%TF.GenerationSoftware,KiCad,Pcbnew,9.0.1*%
%TF.CreationDate,2025-07-04T15:20:45+02:00*%
%TF.ProjectId,USB_36pinOmnetics_straight,5553425f-3336-4706-996e-4f6d6e657469,rev?*%
%TF.SameCoordinates,Original*%
%TF.FileFunction,Copper,L1,Top*%
%TF.FilePolarity,Positive*%
%FSLAX46Y46*%
G04 Gerber Fmt 4.6, Leading zero omitted, Abs format (unit mm)*
G04 Created by KiCad (PCBNEW 9.0.1) date 2025-07-04 15:20:45*
%MOMM*%
%LPD*%
G01*
G04 APERTURE LIST*
G04 Aperture macros list*
%AMRoundRect*
0 Rectangle with rounded corners*
0 $1 Rounding radius*
0 $2 $3 $4 $5 $6 $7 $8 $9 X,Y pos of 4 corners*
0 Add a 4 corners polygon primitive as box body*
4,1,4,$2,$3,$4,$5,$6,$7,$8,$9,$2,$3,0*
0 Add four circle primitives for the rounded corners*
1,1,$1+$1,$2,$3*
1,1,$1+$1,$4,$5*
1,1,$1+$1,$6,$7*
1,1,$1+$1,$8,$9*
0 Add four rect primitives between the rounded corners*
20,1,$1+$1,$2,$3,$4,$5,0*
20,1,$1+$1,$4,$5,$6,$7,0*
20,1,$1+$1,$6,$7,$8,$9,0*
20,1,$1+$1,$8,$9,$2,$3,0*%
G04 Aperture macros list end*
%TA.AperFunction,SMDPad,CuDef*%
%ADD10RoundRect,0.050000X-0.115000X-0.625000X0.115000X-0.625000X0.115000X0.625000X-0.115000X0.625000X0*%
%TD*%
%TA.AperFunction,SMDPad,CuDef*%
%ADD11RoundRect,0.120000X0.280000X0.415000X-0.280000X0.415000X-0.280000X-0.415000X0.280000X-0.415000X0*%
%TD*%
%TA.AperFunction,SMDPad,CuDef*%
%ADD12RoundRect,0.120000X-0.280000X-0.415000X0.280000X-0.415000X0.280000X0.415000X-0.280000X0.415000X0*%
%TD*%
%TA.AperFunction,ViaPad*%
%ADD13C,0.600000*%
%TD*%
%TA.AperFunction,Conductor*%
%ADD14C,0.100000*%
%TD*%
G04 APERTURE END LIST*
D10*
%TO.P,U1,0,0*%
%TO.N,Net-(J1-Pad2)*%
X132300000Y-103300000D03*
%TO.P,U1,1,1*%
%TO.N,Net-(J1-Pad3)*%
X132800000Y-103300000D03*
%TO.P,U1,2,2*%
%TO.N,Net-(J1-Pad4)*%
X133300000Y-103300000D03*
%TO.P,U1,3,3*%
%TO.N,Net-(J1-Pad5)*%
X133800000Y-103300000D03*
%TO.P,U1,4,4*%
%TO.N,Net-(J1-Pad6)*%
X134300000Y-103300000D03*
%TO.P,U1,5,5*%
%TO.N,Net-(J1-Pad7)*%
X134800000Y-103300000D03*
%TO.P,U1,6,6*%
%TO.N,Net-(J1-Pad8)*%
X135300000Y-103300000D03*
%TO.P,U1,7,7*%
%TO.N,Net-(J1-Pad9)*%
X135800000Y-103300000D03*
%TO.P,U1,8,8*%
%TO.N,Net-(J1-Pad10)*%
X136300000Y-103300000D03*
%TO.P,U1,9,9*%
%TO.N,Net-(J1-Pad11)*%
X136800000Y-103300000D03*
%TO.P,U1,10,10*%
%TO.N,Net-(J1-Pad12)*%
X137300000Y-103300000D03*
%TO.P,U1,11,11*%
%TO.N,Net-(J1-Pad13)*%
X137800000Y-103300000D03*
D11*
%TO.P,U1,24,24*%
%TO.N,GND*%
X131500000Y-102990000D03*
D12*
%TO.P,U1,25,25*%
X138600000Y-102990000D03*
%TD*%
D13*
%TO.N,GND*%
X131750000Y-101000000D03*
%TO.N,Net-(J1-Pad13)*%
X133100000Y-95900000D03*
%TO.N,Net-(J1-Pad12)*%
X133669964Y-95220778D03*
%TO.N,Net-(J1-Pad11)*%
X134406020Y-95534188D03*
%TO.N,Net-(J1-Pad10)*%
X135140250Y-95851852D03*
%TO.N,Net-(J1-Pad9)*%
X135615631Y-95191109D03*
%TO.N,Net-(J1-Pad8)*%
X136304462Y-95597945D03*
%TO.N,Net-(J1-Pad7)*%
X137045250Y-95900000D03*
%TO.N,Net-(J1-Pad6)*%
X137890732Y-95183074D03*
%TO.N,Net-(J1-Pad5)*%
X138589114Y-95573287D03*
%TO.N,Net-(J1-Pad4)*%
X139306614Y-95927118D03*
%TO.N,Net-(J1-Pad3)*%
X141614634Y-95985366D03*
%TO.N,Net-(J1-Pad2)*%
X141500000Y-98000000D03*
%TD*%
D14*
%TO.N,GND*%
X131750000Y-103250000D02*
X131800000Y-103300000D01*
X131750000Y-101000000D02*
X131750000Y-103250000D01*
X131800000Y-100950000D02*
X131750000Y-101000000D01*
X131800000Y-95885832D02*
X131800000Y-100950000D01*
X143089646Y-92424366D02*
X135261466Y-92424366D01*
X145362000Y-94696720D02*
X143089646Y-92424366D01*
X145362000Y-99599690D02*
X145362000Y-94696720D01*
X143099690Y-101862000D02*
X145362000Y-99599690D01*
X138930680Y-101862000D02*
X143099690Y-101862000D01*
X138300000Y-102492680D02*
X138930680Y-101862000D01*
X138300000Y-103300000D02*
X138300000Y-102492680D01*
X135261466Y-92424366D02*
X131800000Y-95885832D01*
%TO.N,Net-(J1-Pad13)*%
X133100000Y-95011510D02*
X133100000Y-95900000D01*
X142964968Y-92725366D02*
X135386144Y-92725366D01*
X145061000Y-94821398D02*
X142964968Y-92725366D01*
X135386144Y-92725366D02*
X133100000Y-95011510D01*
X145061000Y-99475012D02*
X145061000Y-94821398D01*
X142975012Y-101561000D02*
X145061000Y-99475012D01*
X138806002Y-101561000D02*
X142975012Y-101561000D01*
X137800000Y-102567002D02*
X138806002Y-101561000D01*
X137800000Y-103300000D02*
X137800000Y-102567002D01*
%TO.N,Net-(J1-Pad12)*%
X142840290Y-93026366D02*
X135864376Y-93026366D01*
X144760000Y-99350334D02*
X144760000Y-94946076D01*
X135864376Y-93026366D02*
X133669964Y-95220778D01*
X142850334Y-101260000D02*
X144760000Y-99350334D01*
X144760000Y-94946076D02*
X142840290Y-93026366D01*
X137300000Y-102550678D02*
X138590678Y-101260000D01*
X138590678Y-101260000D02*
X142850334Y-101260000D01*
X137300000Y-103300000D02*
X137300000Y-102550678D01*
%TO.N,Net-(J1-Pad11)*%
X134406020Y-95195810D02*
X134406020Y-95534188D01*
X136274464Y-93327366D02*
X134406020Y-95195810D01*
X142715612Y-93327366D02*
X136274464Y-93327366D01*
X144459000Y-99225656D02*
X144459000Y-95070754D01*
X142725656Y-100959000D02*
X144459000Y-99225656D01*
X136800000Y-102625000D02*
X138466000Y-100959000D01*
X138466000Y-100959000D02*
X142725656Y-100959000D01*
X136800000Y-103300000D02*
X136800000Y-102625000D01*
X144459000Y-95070754D02*
X142715612Y-93327366D01*
%TO.N,Net-(J1-Pad10)*%
X135064631Y-95776233D02*
X135140250Y-95851852D01*
X135064631Y-94962877D02*
X135064631Y-95776233D01*
X136399142Y-93628366D02*
X135064631Y-94962877D01*
X142590934Y-93628366D02*
X136399142Y-93628366D01*
X142600978Y-100658000D02*
X144158000Y-99100978D01*
X136300000Y-102625000D02*
X138267000Y-100658000D01*
X144158000Y-99100978D02*
X144158000Y-95195432D01*
X144158000Y-95195432D02*
X142590934Y-93628366D01*
X136300000Y-103300000D02*
X136300000Y-102625000D01*
X138267000Y-100658000D02*
X142600978Y-100658000D01*
%TO.N,Net-(J1-Pad9)*%
X142466256Y-93929366D02*
X136877374Y-93929366D01*
X136877374Y-93929366D02*
X135615631Y-95191109D01*
X143857000Y-95320110D02*
X142466256Y-93929366D01*
X142476300Y-100357000D02*
X143857000Y-98976300D01*
X143857000Y-98976300D02*
X143857000Y-95320110D01*
X138068000Y-100357000D02*
X142476300Y-100357000D01*
X135800000Y-102625000D02*
X138068000Y-100357000D01*
X135800000Y-103300000D02*
X135800000Y-102625000D01*
%TO.N,Net-(J1-Pad8)*%
X136304462Y-95515211D02*
X136304462Y-95597945D01*
X142341578Y-94230366D02*
X137589307Y-94230366D01*
X137589307Y-94230366D02*
X136304462Y-95515211D01*
X143556000Y-98851622D02*
X143556000Y-95444788D01*
X143556000Y-95444788D02*
X142341578Y-94230366D01*
X142351622Y-100056000D02*
X143556000Y-98851622D01*
X135300000Y-102600000D02*
X137844000Y-100056000D01*
X135300000Y-103300000D02*
X135300000Y-102600000D01*
X137844000Y-100056000D02*
X142351622Y-100056000D01*
%TO.N,Net-(J1-Pad7)*%
X137045250Y-95249324D02*
X137045250Y-95900000D01*
X137763208Y-94531366D02*
X137045250Y-95249324D01*
X143255000Y-98726944D02*
X143255000Y-95569466D01*
X142226944Y-99755000D02*
X143255000Y-98726944D01*
X142216900Y-94531366D02*
X137763208Y-94531366D01*
X137670000Y-99755000D02*
X142226944Y-99755000D01*
X143255000Y-95569466D02*
X142216900Y-94531366D01*
X134800000Y-103300000D02*
X134800000Y-102625000D01*
X134800000Y-102625000D02*
X137670000Y-99755000D01*
%TO.N,Net-(J1-Pad6)*%
X138241440Y-94832366D02*
X137890732Y-95183074D01*
X142092222Y-94832366D02*
X138241440Y-94832366D01*
X142102266Y-99454000D02*
X142954000Y-98602266D01*
X142954000Y-95694144D02*
X142092222Y-94832366D01*
X134725000Y-102100678D02*
X137371678Y-99454000D01*
X142954000Y-98602266D02*
X142954000Y-95694144D01*
X134725000Y-102200000D02*
X134725000Y-102100678D01*
X134300000Y-103300000D02*
X134300000Y-102625000D01*
X134300000Y-102625000D02*
X134725000Y-102200000D01*
X137371678Y-99454000D02*
X142102266Y-99454000D01*
%TO.N,Net-(J1-Pad5)*%
X139029035Y-95133366D02*
X138589114Y-95573287D01*
X142653000Y-95818822D02*
X141967544Y-95133366D01*
X142653000Y-98477588D02*
X142653000Y-95818822D01*
X141977588Y-99153000D02*
X142653000Y-98477588D01*
X141967544Y-95133366D02*
X139029035Y-95133366D01*
X137247000Y-99153000D02*
X141977588Y-99153000D01*
X133800000Y-102600000D02*
X137247000Y-99153000D01*
X133800000Y-103300000D02*
X133800000Y-102600000D01*
%TO.N,Net-(J1-Pad4)*%
X141842866Y-95434366D02*
X139799366Y-95434366D01*
X142352000Y-95943500D02*
X141842866Y-95434366D01*
X142352000Y-98352910D02*
X142352000Y-95943500D01*
X136924356Y-98852000D02*
X141852910Y-98852000D01*
X133300000Y-102476356D02*
X136924356Y-98852000D01*
X141852910Y-98852000D02*
X142352000Y-98352910D01*
X139799366Y-95434366D02*
X139306614Y-95927118D01*
X133300000Y-103300000D02*
X133300000Y-102476356D01*
%TO.N,Net-(J1-Pad3)*%
X142051000Y-96421732D02*
X141614634Y-95985366D01*
X136799678Y-98551000D02*
X141728232Y-98551000D01*
X132800000Y-102550678D02*
X136799678Y-98551000D01*
X141728232Y-98551000D02*
X142051000Y-98228232D01*
X142051000Y-98228232D02*
X142051000Y-96421732D01*
X132800000Y-103300000D02*
X132800000Y-102550678D01*
%TO.N,Net-(J1-Pad2)*%
X136925000Y-98000000D02*
X141500000Y-98000000D01*
X132300000Y-102625000D02*
X136925000Y-98000000D01*
X132300000Y-103300000D02*
X132300000Y-102625000D01*
%TO.N,GND*%
X138300000Y-103300000D02*
X138805500Y-102794500D01*
X131800000Y-103300000D02*
X131300000Y-102800000D01*
%TD*%
M02*
