G04 #@! TF.GenerationSoftware,KiCad,Pcbnew,9.0.1*
G04 #@! TF.CreationDate,2025-05-24T21:42:48+02:00*
G04 #@! TF.ProjectId,spiral flex,73706972-616c-4206-966c-65782e6b6963,rev?*
G04 #@! TF.SameCoordinates,Original*
G04 #@! TF.FileFunction,Copper,L1,Top*
G04 #@! TF.FilePolarity,Positive*
%FSLAX46Y46*%
G04 Gerber Fmt 4.6, Leading zero omitted, Abs format (unit mm)*
G04 Created by KiCad (PCBNEW 9.0.1) date 2025-05-24 21:42:48*
%MOMM*%
%LPD*%
G01*
G04 APERTURE LIST*
G04 Aperture macros list*
%AMRoundRect*
0 Rectangle with rounded corners*
0 $1 Rounding radius*
0 $2 $3 $4 $5 $6 $7 $8 $9 X,Y pos of 4 corners*
0 Add a 4 corners polygon primitive as box body*
4,1,4,$2,$3,$4,$5,$6,$7,$8,$9,$2,$3,0*
0 Add four circle primitives for the rounded corners*
1,1,$1+$1,$2,$3*
1,1,$1+$1,$4,$5*
1,1,$1+$1,$6,$7*
1,1,$1+$1,$8,$9*
0 Add four rect primitives between the rounded corners*
20,1,$1+$1,$2,$3,$4,$5,0*
20,1,$1+$1,$4,$5,$6,$7,0*
20,1,$1+$1,$6,$7,$8,$9,0*
20,1,$1+$1,$8,$9,$2,$3,0*%
G04 Aperture macros list end*
G04 #@! TA.AperFunction,ConnectorPad*
%ADD10R,0.300000X2.000000*%
G04 #@! TD*
G04 #@! TA.AperFunction,SMDPad,CuDef*
%ADD11RoundRect,0.120000X0.280000X0.415000X-0.280000X0.415000X-0.280000X-0.415000X0.280000X-0.415000X0*%
G04 #@! TD*
G04 #@! TA.AperFunction,SMDPad,CuDef*
%ADD12RoundRect,0.120000X-0.280000X-0.415000X0.280000X-0.415000X0.280000X0.415000X-0.280000X0.415000X0*%
G04 #@! TD*
G04 #@! TA.AperFunction,SMDPad,CuDef*
%ADD13RoundRect,0.050000X0.115000X0.625000X-0.115000X0.625000X-0.115000X-0.625000X0.115000X-0.625000X0*%
G04 #@! TD*
G04 #@! TA.AperFunction,ViaPad*
%ADD14C,0.600000*%
G04 #@! TD*
G04 #@! TA.AperFunction,Conductor*
%ADD15C,0.100000*%
G04 #@! TD*
G04 APERTURE END LIST*
D10*
X136270000Y-95527768D03*
X136770000Y-95527768D03*
X137270000Y-95527768D03*
X137770000Y-95527768D03*
X138270000Y-95527768D03*
X138770000Y-95527768D03*
X139270000Y-95527768D03*
X139770000Y-95527768D03*
X140270000Y-95527768D03*
X140770000Y-95527768D03*
X141270000Y-95527768D03*
X141770000Y-95527768D03*
X142270000Y-95527768D03*
X142770000Y-95527768D03*
X143270000Y-95527768D03*
X143770000Y-95527768D03*
X144270000Y-95527768D03*
X144770000Y-95527768D03*
X145270000Y-95527768D03*
X145770000Y-95527768D03*
X146270000Y-95527768D03*
X146770000Y-95527768D03*
X147270000Y-95527768D03*
X147770000Y-95527768D03*
X148270000Y-95527768D03*
X148770000Y-95527768D03*
D11*
X114890000Y-71460000D03*
D12*
X121990000Y-71460000D03*
D13*
X115690000Y-71150000D03*
X116190000Y-71150000D03*
X116690000Y-71150000D03*
X117190000Y-71150000D03*
X117690000Y-71150000D03*
X118190000Y-71150000D03*
X118690000Y-71150000D03*
X119190000Y-71150000D03*
X119690000Y-71150000D03*
X120190000Y-71150000D03*
X120690000Y-71150000D03*
X121190000Y-71150000D03*
D14*
X144320000Y-98127768D03*
X143248409Y-98056177D03*
X147870000Y-98059733D03*
X144902271Y-97579165D03*
X143705423Y-98735373D03*
X145522210Y-98084813D03*
X136620000Y-98027768D03*
X148857018Y-97489700D03*
X142823983Y-97304959D03*
X146646786Y-98133855D03*
X146108909Y-98716677D03*
X142020000Y-97740768D03*
X148473550Y-98684835D03*
X147220000Y-97527768D03*
X122075000Y-72775000D03*
X114925000Y-72775000D03*
D15*
X101105254Y-61447000D02*
X105500000Y-61447000D01*
X100546999Y-62005256D02*
X101105254Y-61447000D01*
X100547000Y-107794746D02*
X100546999Y-62005256D01*
X101105256Y-108353001D02*
X100547000Y-107794746D01*
X140614745Y-108353000D02*
X101105256Y-108353001D01*
X141402000Y-102261124D02*
X141402000Y-107565745D01*
X138416000Y-97608158D02*
X138416000Y-99275124D01*
X137586610Y-96778768D02*
X138416000Y-97608158D01*
X137369000Y-96778768D02*
X137586610Y-96778768D01*
X137270000Y-96679768D02*
X137369000Y-96778768D01*
X138416000Y-99275124D02*
X141402000Y-102261124D01*
X137270000Y-95527768D02*
X137270000Y-96679768D01*
X141402000Y-107565745D02*
X140614745Y-108353000D01*
X113500000Y-99962002D02*
X125644059Y-99962000D01*
X116500000Y-99761002D02*
X125560802Y-99761000D01*
X110105950Y-99962003D02*
X113500000Y-99962002D01*
X110189207Y-99761003D02*
X116500000Y-99761002D01*
X109976433Y-100401000D02*
X125773572Y-100401000D01*
X110059689Y-100200000D02*
X125690315Y-100200000D01*
X143798884Y-108295685D02*
X143798884Y-101698884D01*
X141530566Y-110564003D02*
X143798884Y-108295685D01*
X100189432Y-110564004D02*
X119000000Y-110564002D01*
X98336000Y-108710573D02*
X100189432Y-110564004D01*
X119000000Y-110564002D02*
X141530566Y-110564003D01*
X98335997Y-61089432D02*
X98336000Y-108710573D01*
X100189434Y-59235994D02*
X98335997Y-61089432D01*
X116000000Y-59235994D02*
X100189434Y-59235994D01*
X141469000Y-97969000D02*
X141469000Y-97456446D01*
X143531000Y-100031000D02*
X141469000Y-97969000D01*
X143531000Y-108279310D02*
X143531000Y-100031000D01*
X141447309Y-110363003D02*
X143531000Y-108279310D01*
X119000000Y-110363002D02*
X141447309Y-110363003D01*
X98537000Y-108627316D02*
X100272689Y-110363004D01*
X100272689Y-110363004D02*
X119000000Y-110363002D01*
X98536997Y-61172688D02*
X98537000Y-108627316D01*
X100272691Y-59436994D02*
X98536997Y-61172688D01*
X130727307Y-59436994D02*
X100272691Y-59436994D01*
X132463003Y-103874023D02*
X132463000Y-61172686D01*
X104772693Y-105563004D02*
X130774025Y-105563002D01*
X102897000Y-103687312D02*
X104772693Y-105563004D01*
X102897000Y-90600000D02*
X102897000Y-103687312D01*
X102896998Y-66712689D02*
X102897000Y-90600000D01*
X104772689Y-64836997D02*
X102896998Y-66712689D01*
X127603000Y-66712687D02*
X125727307Y-64836995D01*
X141469000Y-97456446D02*
X142270000Y-96655446D01*
X142270000Y-96655446D02*
X142270000Y-95527768D01*
X125727307Y-64836995D02*
X104772689Y-64836997D01*
X108239994Y-81794694D02*
X108239997Y-98380308D01*
X130774025Y-105563002D02*
X132463003Y-103874023D01*
X125690315Y-100200000D02*
X127603001Y-98287314D01*
X127603001Y-98287314D02*
X127603000Y-66712687D01*
X108239997Y-98380308D02*
X110059689Y-100200000D01*
X132463000Y-61172686D02*
X130727307Y-59436994D01*
X143330000Y-108196054D02*
X143330000Y-100255678D01*
X141364052Y-110162003D02*
X143330000Y-108196054D01*
X119500000Y-110162002D02*
X141364052Y-110162003D01*
X141270000Y-96679768D02*
X141270000Y-95527768D01*
X140867000Y-97082768D02*
X141270000Y-96679768D01*
X140867000Y-98218356D02*
X140867000Y-97082768D01*
X143129000Y-100480356D02*
X140867000Y-98218356D01*
X100439202Y-109961003D02*
X121000000Y-109961002D01*
X121000000Y-109961002D02*
X141280795Y-109961003D01*
X98939000Y-108460802D02*
X100439202Y-109961003D01*
X98938998Y-61339201D02*
X98939000Y-108460802D01*
X143129000Y-108112798D02*
X143129000Y-100480356D01*
X100439198Y-59839000D02*
X98938998Y-61339201D01*
X112000000Y-59839000D02*
X100439198Y-59839000D01*
X141280795Y-109961003D02*
X143129000Y-108112798D01*
X140566000Y-96958090D02*
X140770000Y-96754090D01*
X140770000Y-96754090D02*
X140770000Y-95527768D01*
X140566000Y-98343034D02*
X140566000Y-96958090D01*
X142928000Y-100705034D02*
X140566000Y-98343034D01*
X122500000Y-109760002D02*
X141197538Y-109760003D01*
X99140000Y-108377545D02*
X100522459Y-109760003D01*
X141197538Y-109760003D02*
X142928000Y-108029540D01*
X142928000Y-108029540D02*
X142928000Y-100705034D01*
X99139998Y-61422458D02*
X99140000Y-108377545D01*
X100522459Y-109760003D02*
X122500000Y-109760002D01*
X100522455Y-60040000D02*
X99139998Y-61422458D01*
X110500000Y-60040000D02*
X100522455Y-60040000D01*
X140265000Y-95532768D02*
X140270000Y-95527768D01*
X140265000Y-98472768D02*
X140265000Y-95532768D01*
X142727000Y-100934768D02*
X140265000Y-98472768D01*
X142727000Y-107946284D02*
X142727000Y-100934768D01*
X141114281Y-109559003D02*
X142727000Y-107946284D01*
X100605716Y-109559003D02*
X123500000Y-109559002D01*
X99341000Y-108294288D02*
X100605716Y-109559003D01*
X100605712Y-60241000D02*
X99340998Y-61505715D01*
X99340998Y-61505715D02*
X99341000Y-108294288D01*
X123500000Y-109559002D02*
X141114281Y-109559003D01*
X111000000Y-60241000D02*
X100605712Y-60241000D01*
X139770000Y-96833768D02*
X139770000Y-95527768D01*
X139964000Y-97027768D02*
X139770000Y-96833768D01*
X142526000Y-101159446D02*
X139964000Y-98597446D01*
X141031024Y-109358003D02*
X142526000Y-107863027D01*
X139964000Y-98597446D02*
X139964000Y-97027768D01*
X100688973Y-109358003D02*
X124500000Y-109358002D01*
X124500000Y-109358002D02*
X141031024Y-109358003D01*
X99541998Y-61588972D02*
X99542000Y-108211031D01*
X142526000Y-107863027D02*
X142526000Y-101159446D01*
X100688969Y-60442000D02*
X99541998Y-61588972D01*
X110000000Y-60442000D02*
X100688969Y-60442000D01*
X99542000Y-108211031D02*
X100688973Y-109358003D01*
X142206000Y-107898771D02*
X142206000Y-101406545D01*
X140947768Y-109157002D02*
X142206000Y-107898771D01*
X99743000Y-108127774D02*
X100772230Y-109157003D01*
X99742998Y-61672229D02*
X99743000Y-108127774D01*
X100772226Y-60643000D02*
X99742998Y-61672229D01*
X100772230Y-109157003D02*
X140947768Y-109157002D01*
X109000000Y-60643000D02*
X100772226Y-60643000D01*
X142206000Y-101406545D02*
X142073611Y-101274157D01*
X142005000Y-107815514D02*
X142005000Y-101489802D01*
X109500000Y-108956002D02*
X140864512Y-108956002D01*
X100855487Y-108956003D02*
X109500000Y-108956002D01*
X99943998Y-61755486D02*
X99944000Y-108044517D01*
X130144513Y-60843999D02*
X100855483Y-60844000D01*
X131056000Y-61755485D02*
X130144513Y-60843999D01*
X131056001Y-103244514D02*
X131056000Y-61755485D01*
X130144516Y-104156000D02*
X131056001Y-103244514D01*
X105355486Y-104156001D02*
X130144516Y-104156000D01*
X104443998Y-103244513D02*
X105355486Y-104156001D01*
X104443997Y-67155487D02*
X104443998Y-103244513D01*
X105355483Y-66244000D02*
X104443997Y-67155487D01*
X100855483Y-60844000D02*
X99943998Y-61755486D01*
X125144513Y-66243999D02*
X105355483Y-66244000D01*
X126103000Y-67202485D02*
X125144513Y-66243999D01*
X126103001Y-97797515D02*
X126103000Y-67202485D01*
X125144517Y-98756000D02*
X126103001Y-97797515D01*
X99944000Y-108044517D02*
X100855487Y-108956003D01*
X109647000Y-97797515D02*
X110605488Y-98756002D01*
X109912242Y-82112242D02*
X109647000Y-82377486D01*
X110605488Y-98756002D02*
X125144517Y-98756000D01*
X142005000Y-101489802D02*
X141957599Y-101442401D01*
X139319000Y-98803802D02*
X141957599Y-101442401D01*
X140864512Y-108956002D02*
X142005000Y-107815514D01*
X109647000Y-82377486D02*
X109647000Y-97797515D01*
X138270000Y-96610802D02*
X138270000Y-95527768D01*
X139018000Y-99025768D02*
X139018000Y-97358802D01*
X141804000Y-107732258D02*
X141804000Y-101811768D01*
X140781258Y-108755000D02*
X141804000Y-107732258D01*
X126500000Y-108755000D02*
X140781258Y-108755000D01*
X100938743Y-108755002D02*
X126500000Y-108755000D01*
X100145000Y-107961260D02*
X100938743Y-108755002D01*
X100144999Y-61838742D02*
X100145000Y-107961260D01*
X100938740Y-61045000D02*
X100144999Y-61838742D01*
X130061256Y-61044999D02*
X100938740Y-61045000D01*
X130855000Y-61838742D02*
X130061256Y-61044999D01*
X130855001Y-103161257D02*
X130855000Y-61838742D01*
X105438742Y-103955001D02*
X130061259Y-103955000D01*
X104644998Y-103161257D02*
X105438742Y-103955001D01*
X139018000Y-97358802D02*
X138270000Y-96610802D01*
X104644997Y-67238744D02*
X104644998Y-103161257D01*
X105438740Y-66445000D02*
X104644997Y-67238744D01*
X125061256Y-66444999D02*
X105438740Y-66445000D01*
X125902000Y-67285742D02*
X125061256Y-66444999D01*
X125902000Y-97714259D02*
X125902000Y-67285742D01*
X110688744Y-98555001D02*
X125061260Y-98555000D01*
X109848000Y-82460742D02*
X109848000Y-97714258D01*
X110737740Y-81571000D02*
X109848000Y-82460742D01*
X109848000Y-97714258D02*
X110688744Y-98555001D01*
X141804000Y-101811768D02*
X139018000Y-99025768D01*
X119234000Y-81571000D02*
X110737740Y-81571000D01*
X130061259Y-103955000D02*
X130855001Y-103161257D01*
X119690000Y-81115000D02*
X119234000Y-81571000D01*
X119690000Y-71150000D02*
X119690000Y-81115000D01*
X125061260Y-98555000D02*
X125902000Y-97714259D01*
X137770000Y-96536480D02*
X137770000Y-95527768D01*
X141603000Y-102036446D02*
X138717000Y-99150446D01*
X141603000Y-107649002D02*
X141603000Y-102036446D01*
X140698002Y-108554000D02*
X141603000Y-107649002D01*
X101021999Y-108554001D02*
X140698002Y-108554000D01*
X100346000Y-107878003D02*
X101021999Y-108554001D01*
X100345999Y-61921999D02*
X100346000Y-107878003D01*
X101021997Y-61246000D02*
X100345999Y-61921999D01*
X130654000Y-61921999D02*
X129978000Y-61246000D01*
X130654001Y-103078000D02*
X130654000Y-61921999D01*
X129978002Y-103754000D02*
X130654001Y-103078000D01*
X104846000Y-103078003D02*
X105521999Y-103754001D01*
X104846000Y-103077998D02*
X104846000Y-103078003D01*
X104845998Y-103078000D02*
X104846000Y-103077998D01*
X129978000Y-61246000D02*
X101021997Y-61246000D01*
X104845998Y-67322000D02*
X104845998Y-103078000D01*
X105521997Y-66646000D02*
X104845998Y-67322000D01*
X138717000Y-97483480D02*
X137770000Y-96536480D01*
X124978000Y-66646000D02*
X105521997Y-66646000D01*
X125701000Y-67368999D02*
X124978000Y-66646000D01*
X125701000Y-97631002D02*
X125701000Y-67368999D01*
X105521999Y-103754001D02*
X129978002Y-103754000D01*
X110049000Y-97631001D02*
X110772000Y-98354000D01*
X119750000Y-81772000D02*
X110820998Y-81772000D01*
X110049000Y-82543998D02*
X110049000Y-97631001D01*
X138717000Y-99150446D02*
X138717000Y-97483480D01*
X110820998Y-81772000D02*
X110049000Y-82543998D01*
X120190000Y-81332000D02*
X119750000Y-81772000D01*
X110772000Y-98354000D02*
X124978003Y-98354000D01*
X124978003Y-98354000D02*
X125701000Y-97631002D01*
X120190000Y-71150000D02*
X120190000Y-81332000D01*
X137244322Y-97079768D02*
X136770000Y-96605446D01*
X137461932Y-97079768D02*
X137244322Y-97079768D01*
X138115000Y-97732836D02*
X137461932Y-97079768D01*
X138115000Y-99399802D02*
X138115000Y-97732836D01*
X141201000Y-102485802D02*
X138115000Y-99399802D01*
X141201000Y-107482488D02*
X141201000Y-102485802D01*
X140531489Y-108152000D02*
X141201000Y-107482488D01*
X101188512Y-108152000D02*
X140531489Y-108152000D01*
X100748000Y-107711489D02*
X101188512Y-108152000D01*
X100748000Y-62088512D02*
X100748000Y-107711489D01*
X101188511Y-61648000D02*
X100748000Y-62088512D01*
X129811488Y-61648000D02*
X101188511Y-61648000D01*
X130252000Y-62088512D02*
X129811488Y-61648000D01*
X130252000Y-102911488D02*
X130252000Y-62088512D01*
X129811488Y-103352000D02*
X130252000Y-102911488D01*
X105248000Y-102911489D02*
X105688512Y-103352000D01*
X105248000Y-67488512D02*
X105248000Y-102911489D01*
X105688511Y-67048000D02*
X105248000Y-67488512D01*
X124811488Y-67048000D02*
X105688511Y-67048000D01*
X125252000Y-67488512D02*
X124811488Y-67048000D01*
X125252000Y-97511488D02*
X125252000Y-67488512D01*
X124811489Y-97952000D02*
X125252000Y-97511488D01*
X110938512Y-97952000D02*
X124811489Y-97952000D01*
X110987511Y-82174000D02*
X110498000Y-82663512D01*
X120351000Y-82174000D02*
X110987511Y-82174000D01*
X136770000Y-96605446D02*
X136770000Y-95527768D01*
X121190000Y-81335000D02*
X120351000Y-82174000D01*
X105688512Y-103352000D02*
X129811488Y-103352000D01*
X110498000Y-97511488D02*
X110938512Y-97952000D01*
X121190000Y-71150000D02*
X121190000Y-81335000D01*
X110498000Y-82663512D02*
X110498000Y-97511488D01*
X121449000Y-73401000D02*
X122075000Y-72775000D01*
X121449000Y-81360256D02*
X121449000Y-73401000D01*
X120434256Y-82375000D02*
X121449000Y-81360256D01*
X111070768Y-82375000D02*
X120434256Y-82375000D01*
X110699000Y-82746769D02*
X111070768Y-82375000D01*
X110699000Y-97428232D02*
X110699000Y-82746769D01*
X111021768Y-97751000D02*
X110699000Y-97428232D01*
X124728232Y-97751000D02*
X111021768Y-97751000D01*
X125051000Y-97428232D02*
X124728232Y-97751000D01*
X125051000Y-67571768D02*
X125051000Y-97428232D01*
X124728232Y-67249000D02*
X125051000Y-67571768D01*
X105771768Y-67249000D02*
X124728232Y-67249000D01*
X105449000Y-67571768D02*
X105771768Y-67249000D01*
X105449000Y-102828232D02*
X105449000Y-67571768D01*
X105771768Y-103151000D02*
X105449000Y-102828232D01*
X129728232Y-103151000D02*
X105771768Y-103151000D01*
X130051000Y-102828232D02*
X129728232Y-103151000D01*
X130051000Y-62171768D02*
X130051000Y-102828232D01*
X129728232Y-61849000D02*
X130051000Y-62171768D01*
X101271768Y-61849000D02*
X129728232Y-61849000D01*
X100949000Y-62171768D02*
X101271768Y-61849000D01*
X101271768Y-107951000D02*
X100949000Y-107628232D01*
X136620000Y-98189059D02*
X141000000Y-102569058D01*
X140448232Y-107951000D02*
X101271768Y-107951000D01*
X141000000Y-102569058D02*
X141000000Y-107399232D01*
X141000000Y-107399232D02*
X140448232Y-107951000D01*
X100949000Y-107628232D02*
X100949000Y-62171768D01*
X136620000Y-98027768D02*
X136620000Y-98189059D01*
X148473550Y-97884051D02*
X148270000Y-97680501D01*
X148270000Y-97680501D02*
X148270000Y-95527768D01*
X148473550Y-98684835D02*
X148473550Y-97884051D01*
X147220000Y-97527768D02*
X147270000Y-97477768D01*
X147270000Y-97477768D02*
X147270000Y-95527768D01*
X143248409Y-98056177D02*
X143374983Y-97929602D01*
X143374983Y-97179637D02*
X143770000Y-96784620D01*
X143374983Y-97929602D02*
X143374983Y-97179637D01*
X143770000Y-96784620D02*
X143770000Y-95527768D01*
X138770000Y-95527768D02*
X138770000Y-96685124D01*
X138671000Y-95626768D02*
X138770000Y-95527768D01*
X138869000Y-95626768D02*
X138770000Y-95527768D01*
X138770000Y-96685124D02*
X139319000Y-97234124D01*
X139319000Y-97234124D02*
X139319000Y-98803802D01*
X140171000Y-95626768D02*
X140270000Y-95527768D01*
X145522210Y-98084813D02*
X145522210Y-96927558D01*
X145522210Y-96927558D02*
X145770000Y-96679768D01*
X145770000Y-96679768D02*
X145770000Y-95527768D01*
X144320000Y-98127768D02*
X144320000Y-97085976D01*
X144671000Y-95626768D02*
X144770000Y-95527768D01*
X142823983Y-97304959D02*
X143270000Y-96858942D01*
X143270000Y-96858942D02*
X143270000Y-95527768D01*
X144770000Y-96635976D02*
X144770000Y-95527768D01*
X144320000Y-97085976D02*
X144770000Y-96635976D01*
X141671000Y-96376768D02*
X141759678Y-96288090D01*
X141168000Y-97331768D02*
X141168000Y-98093678D01*
X141770000Y-95527768D02*
X141770000Y-96729768D01*
X137770000Y-95527768D02*
X137671000Y-95626768D01*
X141759678Y-96288090D02*
X141759678Y-95538090D01*
X141168000Y-98093678D02*
X143330000Y-100255678D01*
X141759678Y-95538090D02*
X141770000Y-95527768D01*
X141770000Y-96729768D02*
X141168000Y-97331768D01*
X139620000Y-98820545D02*
X139620000Y-97109446D01*
X139620000Y-97109446D02*
X139270000Y-96759446D01*
X139270000Y-96759446D02*
X139270000Y-95527768D01*
X139369000Y-95626768D02*
X139270000Y-95527768D01*
X139171000Y-95626768D02*
X139270000Y-95527768D01*
X140937644Y-100138190D02*
X139620000Y-98820545D01*
X142073611Y-101274157D02*
X140937644Y-100138190D01*
X147870000Y-98059733D02*
X147770000Y-97959733D01*
X146770000Y-97077768D02*
X146770000Y-95527768D01*
X146646786Y-98133855D02*
X146646786Y-97200982D01*
X147770000Y-97959733D02*
X147770000Y-95527768D01*
X146646786Y-97200982D02*
X146770000Y-97077768D01*
X144902271Y-97027768D02*
X145270000Y-96660039D01*
X145270000Y-96660039D02*
X145270000Y-95527768D01*
X144902271Y-97579165D02*
X144971033Y-97579165D01*
X144270000Y-96710298D02*
X144270000Y-95527768D01*
X143799409Y-98641387D02*
X143799409Y-97180889D01*
X143799409Y-97180889D02*
X144270000Y-96710298D01*
X143705423Y-98735373D02*
X143799409Y-98641387D01*
X144902271Y-97579165D02*
X144902271Y-97027768D01*
X145171000Y-95626768D02*
X145270000Y-95527768D01*
X144520786Y-100976982D02*
X146819214Y-100976982D01*
X136620000Y-98027768D02*
X136270000Y-97677768D01*
X148924550Y-97557232D02*
X148857018Y-97489700D01*
X148770000Y-97402682D02*
X148770000Y-95527768D01*
X136270000Y-97677768D02*
X136270000Y-95527768D01*
X148857018Y-97489700D02*
X148770000Y-97402682D01*
X148774550Y-95532318D02*
X148770000Y-95527768D01*
X146819214Y-100976982D02*
X148924550Y-98871646D01*
X148924550Y-98871646D02*
X148924550Y-97557232D01*
X143798884Y-101698884D02*
X144520786Y-100976982D01*
X141171000Y-95626768D02*
X141270000Y-95527768D01*
X138171000Y-95626768D02*
X138270000Y-95527768D01*
X145823210Y-97527768D02*
X145823210Y-97052236D01*
X146270000Y-96605446D02*
X146270000Y-95527768D01*
X146108909Y-98716677D02*
X146108909Y-97813467D01*
X145823210Y-97052236D02*
X146270000Y-96605446D01*
X146108909Y-97813467D02*
X145823210Y-97527768D01*
X142020000Y-97740768D02*
X142020000Y-97331124D01*
X142020000Y-97331124D02*
X142770000Y-96581124D01*
X142770000Y-96581124D02*
X142770000Y-95527768D01*
X138369000Y-95527768D02*
X138270000Y-95527768D01*
X103000000Y-110162003D02*
X119500000Y-110162002D01*
X98738000Y-108544059D02*
X100355945Y-110162003D01*
X98737999Y-76800000D02*
X98738000Y-108544059D01*
X98737998Y-61255944D02*
X98737999Y-76800000D01*
X100355945Y-110162003D02*
X103000000Y-110162003D01*
X100355941Y-59638000D02*
X98737998Y-61255944D01*
X113000000Y-59638000D02*
X100355941Y-59638000D01*
X132664000Y-61089429D02*
X130810563Y-59235993D01*
X132664001Y-77400000D02*
X132664000Y-61089429D01*
X132664003Y-103957280D02*
X132664001Y-77400000D01*
X130857282Y-105764002D02*
X132664003Y-103957280D01*
X120500000Y-105764003D02*
X130857282Y-105764002D01*
X102696000Y-88800000D02*
X102696000Y-103770569D01*
X104689437Y-105764005D02*
X120500000Y-105764003D01*
X102696000Y-103770569D02*
X104689437Y-105764005D01*
X130810563Y-59235993D02*
X116000000Y-59235994D01*
X130644051Y-59637995D02*
X113000000Y-59638000D01*
X132262000Y-61255943D02*
X130644051Y-59637995D01*
X124500000Y-105362002D02*
X130690768Y-105362002D01*
X104855950Y-105362004D02*
X124500000Y-105362002D01*
X130690768Y-105362002D02*
X132262003Y-103790766D01*
X132262001Y-72000000D02*
X132262000Y-61255943D01*
X103098000Y-103604055D02*
X104855950Y-105362004D01*
X103098000Y-91800000D02*
X103098000Y-103604055D01*
X132262003Y-103790766D02*
X132262001Y-72000000D01*
X129500000Y-59838996D02*
X112000000Y-59839000D01*
X130560795Y-59838996D02*
X129500000Y-59838996D01*
X132061001Y-79800000D02*
X132061000Y-61339200D01*
X132061002Y-102600000D02*
X132061001Y-79800000D01*
X130607511Y-105161002D02*
X132061002Y-103707510D01*
X132061002Y-103707510D02*
X132061002Y-102600000D01*
X104939206Y-105161003D02*
X130607511Y-105161002D01*
X103299000Y-103520798D02*
X104939206Y-105161003D01*
X103299000Y-93000000D02*
X103299000Y-103520798D01*
X132061000Y-61339200D02*
X130560795Y-59838996D01*
X104689432Y-64635997D02*
X102695998Y-66629432D01*
X125810563Y-64635994D02*
X104689432Y-64635997D01*
X102695998Y-66629432D02*
X102696000Y-88800000D01*
X127804000Y-66629430D02*
X125810563Y-64635994D01*
X127804001Y-89400000D02*
X127804000Y-66629430D01*
X125773572Y-100401000D02*
X127804001Y-98370570D01*
X127804001Y-98370570D02*
X127804001Y-89400000D01*
X108038997Y-98463564D02*
X109976433Y-100401000D01*
X109988428Y-79762000D02*
X108038994Y-81711438D01*
X114963000Y-79762000D02*
X109988428Y-79762000D01*
X108038994Y-81711438D02*
X108038997Y-98463564D01*
X115489000Y-79236000D02*
X114963000Y-79762000D01*
X115489000Y-73339000D02*
X115489000Y-79236000D01*
X114925000Y-72775000D02*
X115489000Y-73339000D01*
X103097999Y-66795945D02*
X103098000Y-91800000D01*
X104855946Y-65037997D02*
X103097999Y-66795945D01*
X117500000Y-65037996D02*
X104855946Y-65037997D01*
X125644051Y-65037996D02*
X117500000Y-65037996D01*
X127402000Y-66795944D02*
X125644051Y-65037996D01*
X127402001Y-98204057D02*
X127402001Y-83400000D01*
X125644059Y-99962000D02*
X127402001Y-98204057D01*
X108440997Y-98297051D02*
X110105950Y-99962003D01*
X127402001Y-83400000D02*
X127402000Y-66795944D01*
X108440994Y-81877950D02*
X108440997Y-98297051D01*
X108661456Y-81657488D02*
X108440994Y-81877950D01*
X103299000Y-66879201D02*
X103299000Y-93000000D01*
X114000000Y-65238997D02*
X104939203Y-65238997D01*
X125560794Y-65238996D02*
X114000000Y-65238997D01*
X127201000Y-66879201D02*
X125560794Y-65238996D01*
X127201001Y-87000000D02*
X127201000Y-66879201D01*
X104939203Y-65238997D02*
X103299000Y-66879201D01*
X127201001Y-98120800D02*
X127201001Y-87000000D01*
X125560802Y-99761000D02*
X127201001Y-98120800D01*
X108641997Y-98213794D02*
X110189207Y-99761003D01*
X108641995Y-81961206D02*
X108641997Y-98213794D01*
X109001600Y-81601600D02*
X108641995Y-81961206D01*
X115046257Y-79963000D02*
X110071685Y-79963000D01*
X115690000Y-79319256D02*
X115046257Y-79963000D01*
X115690000Y-71150000D02*
X115690000Y-79319256D01*
X110154942Y-80164000D02*
X108661456Y-81657488D01*
X116190000Y-80035000D02*
X116061000Y-80164000D01*
X116190000Y-71150000D02*
X116190000Y-80035000D01*
X116061000Y-80164000D02*
X110154942Y-80164000D01*
X110238199Y-80365000D02*
X109001600Y-81601600D01*
X116690000Y-79925000D02*
X116250000Y-80365000D01*
X116690000Y-71150000D02*
X116690000Y-79925000D01*
X116250000Y-80365000D02*
X110238199Y-80365000D01*
X130477539Y-60039997D02*
X110500000Y-60040000D01*
X131860000Y-61422457D02*
X130477539Y-60039997D01*
X131860002Y-103624254D02*
X131860000Y-61422457D01*
X130524254Y-104960002D02*
X131860002Y-103624254D01*
X105022462Y-104960003D02*
X130524254Y-104960002D01*
X103500000Y-103437541D02*
X105022462Y-104960003D01*
X103500000Y-66962457D02*
X103500000Y-103437541D01*
X105022460Y-65439997D02*
X103500000Y-66962457D01*
X125477538Y-65439996D02*
X105022460Y-65439997D01*
X127000000Y-66962458D02*
X125477538Y-65439996D01*
X127000000Y-98037544D02*
X127000000Y-66962458D01*
X125477545Y-99560000D02*
X127000000Y-98037544D01*
X108842997Y-98130537D02*
X110272463Y-99560003D01*
X117190000Y-80135000D02*
X116759000Y-80566000D01*
X116759000Y-80566000D02*
X110321456Y-80566000D01*
X110321456Y-80566000D02*
X108842995Y-82044463D01*
X110272463Y-99560003D02*
X125477545Y-99560000D01*
X117190000Y-71150000D02*
X117190000Y-80135000D01*
X108842995Y-82044463D02*
X108842997Y-98130537D01*
X130394283Y-60240998D02*
X111000000Y-60241000D01*
X130440998Y-104759002D02*
X131659002Y-103540998D01*
X105105718Y-104759002D02*
X130440998Y-104759002D01*
X103799000Y-103452285D02*
X105105718Y-104759002D01*
X103799000Y-66947713D02*
X103799000Y-103452285D01*
X105105713Y-65641000D02*
X103799000Y-66947713D01*
X125394282Y-65640997D02*
X105105713Y-65641000D01*
X126706000Y-66952714D02*
X125394282Y-65640997D01*
X126706003Y-98047284D02*
X126706000Y-66952714D01*
X109043997Y-98047281D02*
X110355719Y-99359003D01*
X109043996Y-82127719D02*
X109043997Y-98047281D01*
X110404713Y-80767000D02*
X109043996Y-82127719D01*
X117258000Y-80767000D02*
X110404713Y-80767000D01*
X117690000Y-71150000D02*
X117690000Y-80335000D01*
X131659000Y-61505714D02*
X130394283Y-60240998D01*
X117690000Y-80335000D02*
X117258000Y-80767000D01*
X131659002Y-103540998D02*
X131659000Y-61505714D01*
X110355719Y-99359003D02*
X125394288Y-99359000D01*
X125394288Y-99359000D02*
X126706003Y-98047284D01*
X129000000Y-60441999D02*
X110000000Y-60442000D01*
X130311030Y-104558000D02*
X131458002Y-103411027D01*
X105188974Y-104558002D02*
X130311030Y-104558000D01*
X104000000Y-103369028D02*
X105188974Y-104558002D01*
X131458002Y-99000000D02*
X131458000Y-61588971D01*
X131458002Y-103411027D02*
X131458002Y-99000000D01*
X130311027Y-60441999D02*
X129000000Y-60441999D01*
X104000000Y-99600000D02*
X104000000Y-103369028D01*
X131458000Y-61588971D02*
X130311027Y-60441999D01*
X104000000Y-67030969D02*
X104000000Y-99600000D01*
X105188969Y-65842000D02*
X104000000Y-67030969D01*
X110000000Y-65842000D02*
X105188969Y-65842000D01*
X125311026Y-65841998D02*
X110000000Y-65842000D01*
X126505002Y-97964028D02*
X126505001Y-79800000D01*
X125311031Y-99158000D02*
X126505002Y-97964028D01*
X118000000Y-99158001D02*
X125311031Y-99158000D01*
X110438975Y-99158003D02*
X118000000Y-99158001D01*
X109244997Y-97964025D02*
X110438975Y-99158003D01*
X109244997Y-82210975D02*
X109244997Y-97964025D01*
X126505001Y-79800000D02*
X126505000Y-67035971D01*
X126505000Y-67035971D02*
X125311026Y-65841998D01*
X131257000Y-61672228D02*
X130227770Y-60642999D01*
X130227773Y-104357000D02*
X131257002Y-103327770D01*
X117000000Y-104357001D02*
X130227773Y-104357000D01*
X105272230Y-104357001D02*
X117000000Y-104357001D01*
X104242997Y-67072230D02*
X104242998Y-89400000D01*
X131257002Y-103327770D02*
X131257001Y-88800000D01*
X105272226Y-66043000D02*
X104242997Y-67072230D01*
X131257001Y-88800000D02*
X131257000Y-61672228D01*
X115000000Y-66043000D02*
X105272226Y-66043000D01*
X130227770Y-60642999D02*
X109000000Y-60643000D01*
X125227770Y-66042999D02*
X115000000Y-66043000D01*
X126304000Y-67119228D02*
X125227770Y-66042999D01*
X104242998Y-89400000D02*
X104242998Y-103327770D01*
X126304001Y-77400000D02*
X126304000Y-67119228D01*
X125227774Y-98957000D02*
X126304002Y-97880771D01*
X110522231Y-98957002D02*
X123500000Y-98957000D01*
X104242998Y-103327770D02*
X105272230Y-104357001D01*
X109446000Y-97880772D02*
X110522231Y-98957002D01*
X109446000Y-95400000D02*
X109446000Y-97880772D01*
X123500000Y-98957000D02*
X125227774Y-98957000D01*
X126304002Y-97880771D02*
X126304001Y-77400000D01*
X109446000Y-82294230D02*
X109446000Y-95400000D01*
X109520113Y-82220113D02*
X109446000Y-82294230D01*
X109912242Y-82112242D02*
X109647000Y-82377485D01*
X129894744Y-61447000D02*
X105500000Y-61447000D01*
X130453000Y-62005256D02*
X129894744Y-61447000D01*
X130453000Y-66600000D02*
X130453000Y-62005256D01*
X130453000Y-93000000D02*
X130453000Y-66600000D01*
X130453000Y-102994744D02*
X130453000Y-93000000D01*
X129894745Y-103553000D02*
X130453000Y-102994744D01*
X120000000Y-103553000D02*
X129894745Y-103553000D01*
X105605256Y-103553001D02*
X120000000Y-103553000D01*
X105047000Y-102994746D02*
X105605256Y-103553001D01*
X105047000Y-92400000D02*
X105047000Y-102994746D01*
X105046999Y-67405256D02*
X105047000Y-92400000D01*
X105605254Y-66847000D02*
X105046999Y-67405256D01*
X113500000Y-66847000D02*
X105605254Y-66847000D01*
X124894744Y-66847000D02*
X113500000Y-66847000D01*
X125500000Y-67452256D02*
X124894744Y-66847000D01*
X125500000Y-96600000D02*
X125500000Y-67452256D01*
X125500000Y-97547746D02*
X125500000Y-96600000D01*
X124894746Y-98153000D02*
X125500000Y-97547746D01*
X110855256Y-98153000D02*
X124894746Y-98153000D01*
X110250000Y-97547744D02*
X110855256Y-98153000D01*
X110250000Y-82627254D02*
X110250000Y-97547744D01*
X110487970Y-80968000D02*
X109244997Y-82210975D01*
X117957000Y-80968000D02*
X110487970Y-80968000D01*
X118190000Y-80735000D02*
X117957000Y-80968000D01*
X118190000Y-71150000D02*
X118190000Y-80735000D01*
X119190000Y-80930000D02*
X118750000Y-81370000D01*
X110654483Y-81370000D02*
X109912242Y-82112242D01*
X119190000Y-71150000D02*
X119190000Y-80930000D01*
X109520113Y-82220113D02*
X109445998Y-82294230D01*
X118750000Y-81370000D02*
X110654483Y-81370000D01*
X120052000Y-81973000D02*
X110904254Y-81973000D01*
X120690000Y-81335000D02*
X120052000Y-81973000D01*
X120690000Y-71150000D02*
X120690000Y-81335000D01*
X110904254Y-81973000D02*
X110250000Y-82627254D01*
X109520113Y-82220113D02*
X109445997Y-82294230D01*
X118690000Y-71150000D02*
X118690000Y-80735000D01*
X118690000Y-80735000D02*
X118256000Y-81169000D01*
X118256000Y-81169000D02*
X110571226Y-81169000D01*
X121837896Y-71297896D02*
X121677338Y-71282560D01*
X114925000Y-71415000D02*
X115042632Y-71297368D01*
X114925000Y-72775000D02*
X114925000Y-71415000D01*
X122075000Y-71535000D02*
X121837896Y-71297896D01*
X122075000Y-72775000D02*
X122075000Y-71535000D01*
X114750000Y-71590000D02*
X115042632Y-71297368D01*
X115042632Y-71297368D02*
X115202617Y-71282086D01*
X110571226Y-81169000D02*
X109520113Y-82220113D01*
X110071685Y-79963000D02*
X108467344Y-81567344D01*
X108467344Y-81567344D02*
X108239994Y-81794694D01*
M02*
