G04 #@! TF.GenerationSoftware,KiCad,Pcbnew,9.0.1*
G04 #@! TF.CreationDate,2025-05-24T21:42:49+02:00*
G04 #@! TF.ProjectId,spiral flex,73706972-616c-4206-966c-65782e6b6963,rev?*
G04 #@! TF.SameCoordinates,Original*
G04 #@! TF.FileFunction,Profile,NP*
%FSLAX46Y46*%
G04 Gerber Fmt 4.6, Leading zero omitted, Abs format (unit mm)*
G04 Created by KiCad (PCBNEW 9.0.1) date 2025-05-24 21:42:49*
%MOMM*%
%LPD*%
G01*
G04 APERTURE LIST*
G04 #@! TA.AperFunction,Profile*
%ADD10C,0.050000*%
G04 #@! TD*
G04 APERTURE END LIST*
D10*
X107000000Y-79775000D02*
G75*
G02*
X108000000Y-78775000I1000000J0D01*
G01*
X123500000Y-67800000D02*
G75*
G02*
X124500000Y-68800000I0J-1000000D01*
G01*
X106000000Y-68800000D02*
G75*
G02*
X107000000Y-67800000I1000000J0D01*
G01*
X127500000Y-63600000D02*
G75*
G02*
X128500000Y-64600000I0J-1000000D01*
G01*
X102000000Y-64600000D02*
G75*
G02*
X103000000Y-63600000I1000000J0D01*
G01*
X101500000Y-63400000D02*
G75*
G02*
X102500000Y-62400000I1000000J0D01*
G01*
X128500000Y-62400000D02*
G75*
G02*
X129500000Y-63400000I0J-1000000D01*
G01*
X132500000Y-58200000D02*
G75*
G02*
X133500000Y-59200000I0J-1000000D01*
G01*
X97500000Y-59200000D02*
G75*
G02*
X98500000Y-58200000I1000000J0D01*
G01*
X127500000Y-100800000D02*
X108000000Y-100800000D01*
X128500000Y-99800000D02*
G75*
G02*
X127500000Y-100800000I-1000000J0D01*
G01*
X108000000Y-100800000D02*
G75*
G02*
X107000000Y-99800000I0J1000000D01*
G01*
X128500000Y-99800000D02*
X128500000Y-64600000D01*
X124500000Y-96200000D02*
G75*
G02*
X123500000Y-97200000I-1000000J0D01*
G01*
X112250000Y-97200000D02*
G75*
G02*
X111250000Y-96200000I0J1000000D01*
G01*
X129500000Y-101600000D02*
G75*
G02*
X128500000Y-102600000I-1000000J0D01*
G01*
X107000000Y-102600000D02*
G75*
G02*
X106000000Y-101600000I0J1000000D01*
G01*
X133500000Y-105800000D02*
G75*
G02*
X132500000Y-106800000I-1000000J0D01*
G01*
X103000000Y-106800000D02*
G75*
G02*
X102000000Y-105800000I0J1000000D01*
G01*
X102500000Y-107400000D02*
G75*
G02*
X101500000Y-106400000I0J1000000D01*
G01*
X98500000Y-111600000D02*
G75*
G02*
X97500000Y-110600000I0J1000000D01*
G01*
X140220000Y-106400000D02*
G75*
G02*
X139220000Y-107400000I-1000000J0D01*
G01*
X145070000Y-110600000D02*
G75*
G02*
X144070000Y-111600000I-1000000J0D01*
G01*
X145070000Y-109277768D02*
X145070000Y-110600000D01*
X140000000Y-111600000D02*
X144070000Y-111600000D01*
X139220000Y-107400000D02*
X134500000Y-107400000D01*
X140220000Y-103535800D02*
X140220000Y-106400000D01*
X145070000Y-103527768D02*
G75*
G02*
X146070000Y-102527768I1000000J0D01*
G01*
X139220000Y-102527768D02*
G75*
G02*
X140220000Y-103527768I0J-1000000D01*
G01*
X135520000Y-102527768D02*
X139220000Y-102527768D01*
X149520000Y-94152768D02*
X135520000Y-94152768D01*
X149520000Y-102527768D02*
X149520000Y-94152768D01*
X135520000Y-94152768D02*
X135520000Y-102527768D01*
X146070000Y-102527768D02*
X149520000Y-102527768D01*
X102500000Y-107400000D02*
X134500000Y-107400000D01*
X101500000Y-63400000D02*
X101500000Y-106400000D01*
X98500000Y-111600000D02*
X140000000Y-111600000D01*
X97500000Y-59200000D02*
X97500000Y-110600000D01*
X132500000Y-58200000D02*
X98500000Y-58200000D01*
X133500000Y-105800000D02*
X133500000Y-59200000D01*
X103000000Y-106800000D02*
X132500000Y-106800000D01*
X102000000Y-64600000D02*
X102000000Y-105800000D01*
X124500000Y-96200000D02*
X124500000Y-68800000D01*
X128500000Y-62400000D02*
X102500000Y-62400000D01*
X129500000Y-101600000D02*
X129500000Y-63400000D01*
X107000000Y-102600000D02*
X128500000Y-102600000D01*
X106000000Y-68800000D02*
X106000000Y-101600000D01*
X107000000Y-79775000D02*
X107000000Y-99800000D01*
X127500000Y-63600000D02*
X103000000Y-63600000D01*
X107000000Y-67800000D02*
X123500000Y-67800000D01*
X113150000Y-82975000D02*
G75*
G02*
X114150000Y-83975000I0J-1000000D01*
G01*
X121687500Y-70175000D02*
X121687500Y-69775000D01*
X115187500Y-70175000D02*
X115187500Y-69775000D01*
X115000000Y-73975000D02*
G75*
G02*
X114500000Y-73975000I-250000J0D01*
G01*
X114500000Y-73975000D02*
G75*
G02*
X115000000Y-73975000I250000J0D01*
G01*
X113125000Y-78775000D02*
X108000000Y-78775000D01*
X121687500Y-70725000D02*
G75*
G02*
X121687500Y-70175000I0J275000D01*
G01*
X114150000Y-95875000D02*
X122875000Y-95875000D01*
X122500000Y-75175000D02*
G75*
G02*
X122000000Y-75175000I-250000J0D01*
G01*
X122000000Y-75175000D02*
G75*
G02*
X122500000Y-75175000I250000J0D01*
G01*
X121687500Y-70725000D02*
X122875000Y-70725000D01*
X113150000Y-82975000D02*
X112250000Y-82975000D01*
X114125000Y-70725000D02*
X114125000Y-77775000D01*
X114125000Y-77775000D02*
G75*
G02*
X113125000Y-78775000I-1000000J0D01*
G01*
X122875000Y-70725000D02*
X122875000Y-95875000D01*
X115187500Y-70725000D02*
X114125000Y-70725000D01*
X114150000Y-83975000D02*
X114150000Y-95875000D01*
X111250000Y-83975000D02*
G75*
G02*
X112250000Y-82975000I1000000J0D01*
G01*
X115000000Y-75175000D02*
G75*
G02*
X114500000Y-75175000I-250000J0D01*
G01*
X114500000Y-75175000D02*
G75*
G02*
X115000000Y-75175000I250000J0D01*
G01*
X115187500Y-69775000D02*
X121687500Y-69775000D01*
X115187500Y-70175000D02*
G75*
G02*
X115187500Y-70725000I0J-275000D01*
G01*
X122500000Y-73975000D02*
G75*
G02*
X122000000Y-73975000I-250000J0D01*
G01*
X122000000Y-73975000D02*
G75*
G02*
X122500000Y-73975000I250000J0D01*
G01*
X145070000Y-103527768D02*
X145070000Y-109277768D01*
X111250000Y-83975000D02*
X111250000Y-96200000D01*
X112250000Y-97200000D02*
X123500000Y-97200000D01*
M02*
