%TF.GenerationSoftware,KiCad,Pcbnew,9.0.1*%
%TF.CreationDate,2025-06-02T18:12:22+02:00*%
%TF.ProjectId,glas_fiber_pcb,676c6173-5f66-4696-9265-725f7063622e,rev?*%
%TF.SameCoordinates,Original*%
%TF.FileFunction,Legend,Top*%
%TF.FilePolarity,Positive*%
%FSLAX46Y46*%
G04 Gerber Fmt 4.6, Leading zero omitted, Abs format (unit mm)*
G04 Created by KiCad (PCBNEW 9.0.1) date 2025-06-02 18:12:22*
%MOMM*%
%LPD*%
G01*
G04 APERTURE LIST*
%ADD10C,0.150000*%
%ADD11C,0.120000*%
G04 APERTURE END LIST*
D10*
X144566666Y-80754819D02*
X144566666Y-81469104D01*
X144566666Y-81469104D02*
X144519047Y-81611961D01*
X144519047Y-81611961D02*
X144423809Y-81707200D01*
X144423809Y-81707200D02*
X144280952Y-81754819D01*
X144280952Y-81754819D02*
X144185714Y-81754819D01*
X144947619Y-80754819D02*
X145566666Y-80754819D01*
X145566666Y-80754819D02*
X145233333Y-81135771D01*
X145233333Y-81135771D02*
X145376190Y-81135771D01*
X145376190Y-81135771D02*
X145471428Y-81183390D01*
X145471428Y-81183390D02*
X145519047Y-81231009D01*
X145519047Y-81231009D02*
X145566666Y-81326247D01*
X145566666Y-81326247D02*
X145566666Y-81564342D01*
X145566666Y-81564342D02*
X145519047Y-81659580D01*
X145519047Y-81659580D02*
X145471428Y-81707200D01*
X145471428Y-81707200D02*
X145376190Y-81754819D01*
X145376190Y-81754819D02*
X145090476Y-81754819D01*
X145090476Y-81754819D02*
X144995238Y-81707200D01*
X144995238Y-81707200D02*
X144947619Y-81659580D01*
X146566666Y-80754819D02*
X146566666Y-81469104D01*
X146566666Y-81469104D02*
X146519047Y-81611961D01*
X146519047Y-81611961D02*
X146423809Y-81707200D01*
X146423809Y-81707200D02*
X146280952Y-81754819D01*
X146280952Y-81754819D02*
X146185714Y-81754819D01*
X146995238Y-80850057D02*
X147042857Y-80802438D01*
X147042857Y-80802438D02*
X147138095Y-80754819D01*
X147138095Y-80754819D02*
X147376190Y-80754819D01*
X147376190Y-80754819D02*
X147471428Y-80802438D01*
X147471428Y-80802438D02*
X147519047Y-80850057D01*
X147519047Y-80850057D02*
X147566666Y-80945295D01*
X147566666Y-80945295D02*
X147566666Y-81040533D01*
X147566666Y-81040533D02*
X147519047Y-81183390D01*
X147519047Y-81183390D02*
X146947619Y-81754819D01*
X146947619Y-81754819D02*
X147566666Y-81754819D01*
D11*
%TO.C,J3*%
X140950000Y-81040000D02*
X142330000Y-81040000D01*
X140950000Y-82420000D02*
X140950000Y-81040000D01*
X140950000Y-83690000D02*
X140950000Y-101580000D01*
X140950000Y-83690000D02*
X143710000Y-83690000D01*
X140950000Y-101580000D02*
X143710000Y-101580000D01*
X143710000Y-83690000D02*
X143710000Y-101580000D01*
%TO.C,J2*%
X148290000Y-81040000D02*
X149670000Y-81040000D01*
X148290000Y-82420000D02*
X148290000Y-81040000D01*
X148290000Y-83690000D02*
X148290000Y-101580000D01*
X148290000Y-83690000D02*
X151050000Y-83690000D01*
X148290000Y-101580000D02*
X151050000Y-101580000D01*
X151050000Y-83690000D02*
X151050000Y-101580000D01*
%TD*%
M02*
