%TF.GenerationSoftware,KiCad,Pcbnew,9.0.1*%
%TF.CreationDate,2025-06-02T18:12:22+02:00*%
%TF.ProjectId,glas_fiber_pcb,676c6173-5f66-4696-9265-725f7063622e,rev?*%
%TF.SameCoordinates,Original*%
%TF.FileFunction,Copper,L2,Bot*%
%TF.FilePolarity,Positive*%
%FSLAX46Y46*%
G04 Gerber Fmt 4.6, Leading zero omitted, Abs format (unit mm)*
G04 Created by KiCad (PCBNEW 9.0.1) date 2025-06-02 18:12:22*
%MOMM*%
%LPD*%
G01*
G04 APERTURE LIST*
%TA.AperFunction,ComponentPad*%
%ADD10R,1.700000X1.700000*%
%TD*%
%TA.AperFunction,ComponentPad*%
%ADD11C,1.700000*%
%TD*%
%TA.AperFunction,ViaPad*%
%ADD12C,0.600000*%
%TD*%
%TA.AperFunction,Conductor*%
%ADD13C,0.100000*%
%TD*%
G04 APERTURE END LIST*
D10*
%TO.P,J3,1,Pin_1*%
%TO.N,Net-(J1-Pin_1)*%
X142330000Y-82420000D03*
D11*
%TO.P,J3,2,Pin_2*%
%TO.N,Net-(J1-Pin_2)*%
X142330000Y-84960000D03*
%TO.P,J3,3,Pin_3*%
%TO.N,Net-(J1-Pin_3)*%
X142330000Y-87500000D03*
%TO.P,J3,4,Pin_4*%
%TO.N,Net-(J1-Pin_4)*%
X142330000Y-90040000D03*
%TO.P,J3,5,Pin_5*%
%TO.N,Net-(J1-Pin_5)*%
X142330000Y-92580000D03*
%TO.P,J3,6,Pin_6*%
%TO.N,Net-(J1-Pin_6)*%
X142330000Y-95120000D03*
%TO.P,J3,7,Pin_7*%
%TO.N,Net-(J1-Pin_7)*%
X142330000Y-97660000D03*
%TO.P,J3,8,Pin_8*%
%TO.N,Net-(J1-Pin_8)*%
X142330000Y-100200000D03*
%TD*%
D10*
%TO.P,J2,1,Pin_1*%
%TO.N,Net-(J1-Pin_9)*%
X149670000Y-82420000D03*
D11*
%TO.P,J2,2,Pin_2*%
%TO.N,Net-(J1-Pin_10)*%
X149670000Y-84960000D03*
%TO.P,J2,3,Pin_3*%
%TO.N,Net-(J1-Pin_11)*%
X149670000Y-87500000D03*
%TO.P,J2,4,Pin_4*%
%TO.N,Net-(J1-Pin_12)*%
X149670000Y-90040000D03*
%TO.P,J2,5,Pin_5*%
%TO.N,Net-(J1-Pin_13)*%
X149670000Y-92580000D03*
%TO.P,J2,6,Pin_6*%
%TO.N,Net-(J1-Pin_14)*%
X149670000Y-95120000D03*
%TO.P,J2,7,Pin_7*%
%TO.N,Net-(J1-Pin_15)*%
X149670000Y-97660000D03*
%TO.P,J2,8,Pin_8*%
%TO.N,Net-(J1-Pin_16)*%
X149670000Y-100200000D03*
%TD*%
D12*
%TO.N,Net-(J1-Pin_9)*%
X147000000Y-93800000D03*
%TO.N,Net-(J1-Pin_7)*%
X145100000Y-101100000D03*
%TO.N,Net-(J1-Pin_15)*%
X147100000Y-101200000D03*
%TO.N,Net-(J1-Pin_1)*%
X145000000Y-93800000D03*
%TO.N,Net-(J1-Pin_5)*%
X145200000Y-92800000D03*
%TO.N,Net-(J1-Pin_13)*%
X147000000Y-92700000D03*
%TD*%
D13*
%TO.N,Net-(J1-Pin_9)*%
X146400000Y-93200000D02*
X146400000Y-85690000D01*
X147000000Y-93800000D02*
X146400000Y-93200000D01*
X146400000Y-85690000D02*
X149670000Y-82420000D01*
%TO.N,Net-(J1-Pin_7)*%
X144070000Y-99400000D02*
X144070000Y-100070000D01*
X144070000Y-100070000D02*
X145100000Y-101100000D01*
X144070000Y-99400000D02*
X142330000Y-97660000D01*
%TO.N,Net-(J1-Pin_15)*%
X147100000Y-101200000D02*
X147800000Y-100500000D01*
X147800000Y-99530000D02*
X149670000Y-97660000D01*
X147800000Y-100500000D02*
X147800000Y-99530000D01*
%TO.N,Net-(J1-Pin_1)*%
X145751000Y-85841000D02*
X142330000Y-82420000D01*
X145000000Y-93800000D02*
X145751000Y-93049000D01*
X145751000Y-93049000D02*
X145751000Y-85841000D01*
%TO.N,Net-(J1-Pin_5)*%
X145200000Y-92800000D02*
X144980000Y-92580000D01*
X144980000Y-92580000D02*
X142330000Y-92580000D01*
%TO.N,Net-(J1-Pin_13)*%
X147000000Y-92700000D02*
X147120000Y-92580000D01*
X147120000Y-92580000D02*
X149670000Y-92580000D01*
%TD*%
M02*
