M48
; DRILL file {KiCad 9.0.1} date 2025-06-02T18:12:26+0200
; FORMAT={-:-/ absolute / metric / decimal}
; #@! TF.CreationDate,2025-06-02T18:12:26+02:00
; #@! TF.GenerationSoftware,Kicad,Pcbnew,9.0.1
; #@! TF.FileFunction,Plated,1,2,PTH
FMAT,2
METRIC
; #@! TA.AperFunction,Plated,PTH,ViaDrill
T1C0.300
; #@! TA.AperFunction,Plated,PTH,ComponentDrill
T2C1.000
%
G90
G05
T1
X145.0Y-93.8
X145.1Y-101.1
X145.2Y-92.8
X147.0Y-92.7
X147.0Y-93.8
X147.1Y-101.2
T2
X142.33Y-82.42
X142.33Y-84.96
X142.33Y-87.5
X142.33Y-90.04
X142.33Y-92.58
X142.33Y-95.12
X142.33Y-97.66
X142.33Y-100.2
X149.67Y-82.42
X149.67Y-84.96
X149.67Y-87.5
X149.67Y-90.04
X149.67Y-92.58
X149.67Y-95.12
X149.67Y-97.66
X149.67Y-100.2
M30
