%TF.GenerationSoftware,KiCad,Pcbnew,9.0.1*%
%TF.CreationDate,2025-07-04T13:50:07+02:00*%
%TF.ProjectId,USB_18pinOmnetics_bend,5553425f-3138-4706-996e-4f6d6e657469,rev?*%
%TF.SameCoordinates,Original*%
%TF.FileFunction,Copper,L1,Top*%
%TF.FilePolarity,Positive*%
%FSLAX46Y46*%
G04 Gerber Fmt 4.6, Leading zero omitted, Abs format (unit mm)*
G04 Created by KiCad (PCBNEW 9.0.1) date 2025-07-04 13:50:07*
%MOMM*%
%LPD*%
G01*
G04 APERTURE LIST*
G04 Aperture macros list*
%AMRoundRect*
0 Rectangle with rounded corners*
0 $1 Rounding radius*
0 $2 $3 $4 $5 $6 $7 $8 $9 X,Y pos of 4 corners*
0 Add a 4 corners polygon primitive as box body*
4,1,4,$2,$3,$4,$5,$6,$7,$8,$9,$2,$3,0*
0 Add four circle primitives for the rounded corners*
1,1,$1+$1,$2,$3*
1,1,$1+$1,$4,$5*
1,1,$1+$1,$6,$7*
1,1,$1+$1,$8,$9*
0 Add four rect primitives between the rounded corners*
20,1,$1+$1,$2,$3,$4,$5,0*
20,1,$1+$1,$4,$5,$6,$7,0*
20,1,$1+$1,$6,$7,$8,$9,0*
20,1,$1+$1,$8,$9,$2,$3,0*%
G04 Aperture macros list end*
%TA.AperFunction,SMDPad,CuDef*%
%ADD10R,0.760000X0.380000*%
%TD*%
%TA.AperFunction,SMDPad,CuDef*%
%ADD11RoundRect,0.050000X-0.115000X-0.625000X0.115000X-0.625000X0.115000X0.625000X-0.115000X0.625000X0*%
%TD*%
%TA.AperFunction,SMDPad,CuDef*%
%ADD12RoundRect,0.120000X0.280000X0.415000X-0.280000X0.415000X-0.280000X-0.415000X0.280000X-0.415000X0*%
%TD*%
%TA.AperFunction,SMDPad,CuDef*%
%ADD13RoundRect,0.120000X-0.280000X-0.415000X0.280000X-0.415000X0.280000X0.415000X-0.280000X0.415000X0*%
%TD*%
%TA.AperFunction,ComponentPad*%
%ADD14R,1.700000X1.700000*%
%TD*%
%TA.AperFunction,ViaPad*%
%ADD15C,0.600000*%
%TD*%
%TA.AperFunction,Conductor*%
%ADD16C,0.100000*%
%TD*%
G04 APERTURE END LIST*
D10*
%TO.P,J1,0,0*%
%TO.N,Net-(J1-Pad0)*%
X148000000Y-104040000D03*
%TO.P,J1,1,1*%
%TO.N,Net-(J1-Pad1)*%
X148000000Y-103400000D03*
%TO.P,J1,2,2*%
%TO.N,Net-(J1-Pad2)*%
X148000000Y-102760000D03*
%TO.P,J1,3,3*%
%TO.N,Net-(J1-Pad3)*%
X148000000Y-102120000D03*
%TO.P,J1,4,4*%
%TO.N,Net-(J1-Pad4)*%
X147060000Y-102120000D03*
%TO.P,J1,5,5*%
%TO.N,Net-(J1-Pad5)*%
X147060000Y-102760000D03*
%TO.P,J1,6,6*%
%TO.N,Net-(J1-Pad6)*%
X147060000Y-103400000D03*
%TO.P,J1,7,7*%
%TO.N,Net-(J1-Pad7)*%
X147060000Y-104040000D03*
%TO.P,J1,8,8*%
%TO.N,Net-(J1-Pad8)*%
X147060000Y-104680000D03*
%TO.P,J1,9,9*%
%TO.N,Net-(J1-Pad9)*%
X147060000Y-105320000D03*
%TO.P,J1,10,10*%
%TO.N,Net-(J1-Pad10)*%
X147060000Y-105960000D03*
%TO.P,J1,11,11*%
%TO.N,Net-(J1-Pad11)*%
X147060000Y-106600000D03*
%TO.P,J1,12,12*%
%TO.N,Net-(J1-Pad12)*%
X148000000Y-106600000D03*
%TO.P,J1,13,13*%
%TO.N,Net-(J1-Pad13)*%
X148000000Y-105960000D03*
%TO.P,J1,14,14*%
%TO.N,Net-(J1-Pad14)*%
X148000000Y-105320000D03*
%TO.P,J1,15,15*%
%TO.N,Net-(J1-Pad15)*%
X148000000Y-104680000D03*
%TO.P,J1,16,16*%
%TO.N,GND*%
X148000000Y-107240000D03*
%TO.P,J1,17,17*%
X148000000Y-101480000D03*
%TD*%
D11*
%TO.P,U1,0,0*%
%TO.N,unconnected-(U1-Pad0)*%
X132300000Y-103300000D03*
%TO.P,U1,1,1*%
%TO.N,unconnected-(U1-Pad1)*%
X132800000Y-103300000D03*
%TO.P,U1,2,2*%
%TO.N,Net-(J1-Pad0)*%
X133300000Y-103300000D03*
%TO.P,U1,3,3*%
%TO.N,Net-(J1-Pad1)*%
X133800000Y-103300000D03*
%TO.P,U1,4,4*%
%TO.N,Net-(J1-Pad2)*%
X134300000Y-103300000D03*
%TO.P,U1,5,5*%
%TO.N,Net-(J1-Pad3)*%
X134800000Y-103300000D03*
%TO.P,U1,6,6*%
%TO.N,Net-(J1-Pad4)*%
X135300000Y-103300000D03*
%TO.P,U1,7,7*%
%TO.N,Net-(J1-Pad5)*%
X135800000Y-103300000D03*
%TO.P,U1,8,8*%
%TO.N,Net-(J1-Pad6)*%
X136300000Y-103300000D03*
%TO.P,U1,9,9*%
%TO.N,Net-(J1-Pad7)*%
X136800000Y-103300000D03*
%TO.P,U1,10,10*%
%TO.N,unconnected-(U1-Pad10)*%
X137300000Y-103300000D03*
%TO.P,U1,11,11*%
%TO.N,unconnected-(U1-Pad11)*%
X137800000Y-103300000D03*
D12*
%TO.P,U1,24,24*%
%TO.N,GND*%
X131500000Y-102990000D03*
D13*
%TO.P,U1,25,25*%
X138600000Y-102990000D03*
%TD*%
D14*
%TO.P,J4,1,Pin_1*%
%TO.N,GND*%
X145200000Y-91200000D03*
%TD*%
%TO.P,J3,1,Pin_1*%
%TO.N,GND*%
X149200000Y-91200000D03*
%TD*%
D15*
%TO.N,GND*%
X132600000Y-93100000D03*
X136200000Y-92499000D03*
X137575707Y-92424293D03*
X138805500Y-99100000D03*
X145300000Y-107200000D03*
X148035000Y-100510000D03*
X149735000Y-107110000D03*
%TO.N,Net-(J1-Pad8)*%
X146285000Y-104710000D03*
%TO.N,Net-(J1-Pad9)*%
X145735000Y-105294933D03*
%TO.N,Net-(J1-Pad10)*%
X145185000Y-106010000D03*
%TO.N,Net-(J1-Pad11)*%
X144635000Y-106590949D03*
%TO.N,Net-(J1-Pad12)*%
X135250000Y-95000000D03*
%TO.N,Net-(J1-Pad13)*%
X135700000Y-93600000D03*
%TO.N,Net-(J1-Pad14)*%
X136200000Y-94300000D03*
%TO.N,Net-(J1-Pad15)*%
X136800000Y-94900000D03*
%TD*%
D16*
%TO.N,GND*%
X131800000Y-93100000D02*
X131800000Y-103300000D01*
X132800000Y-92100000D02*
X131800000Y-93100000D01*
X137251414Y-92100000D02*
X132800000Y-92100000D01*
X137575707Y-92424293D02*
X137251414Y-92100000D01*
X133201000Y-92499000D02*
X132600000Y-93100000D01*
X136200000Y-92499000D02*
X133201000Y-92499000D01*
X138805500Y-102794500D02*
X138300000Y-103300000D01*
X138805500Y-99100000D02*
X138805500Y-102794500D01*
X144464819Y-107200000D02*
X145300000Y-107200000D01*
X138805500Y-98449768D02*
X139155268Y-98100000D01*
X143604232Y-98100000D02*
X144084000Y-98579768D01*
X138805500Y-99100000D02*
X138805500Y-98449768D01*
X144084000Y-98579768D02*
X144084000Y-106819181D01*
X139155268Y-98100000D02*
X143604232Y-98100000D01*
X144084000Y-106819181D02*
X144464819Y-107200000D01*
X145340000Y-107240000D02*
X148000000Y-107240000D01*
X145300000Y-107200000D02*
X145340000Y-107240000D01*
%TO.N,Net-(J1-Pad12)*%
X150738000Y-96286644D02*
X150738000Y-97300000D01*
X135471768Y-93049000D02*
X147500356Y-93049000D01*
X135149000Y-93371768D02*
X135471768Y-93049000D01*
X135149000Y-94899000D02*
X135149000Y-93371768D01*
X147500356Y-93049000D02*
X150738000Y-96286644D01*
X135250000Y-95000000D02*
X135149000Y-94899000D01*
%TO.N,GND*%
X138300000Y-103300000D02*
X138808500Y-102791500D01*
%TO.N,Net-(J1-Pad13)*%
X148432000Y-105960000D02*
X148000000Y-105960000D01*
X150437000Y-103955000D02*
X148432000Y-105960000D01*
X150437000Y-96411322D02*
X150437000Y-103955000D01*
X147625678Y-93600000D02*
X150437000Y-96411322D01*
X135700000Y-93600000D02*
X147625678Y-93600000D01*
%TO.N,Net-(J1-Pad14)*%
X148480000Y-105320000D02*
X148000000Y-105320000D01*
X150136000Y-103664000D02*
X148480000Y-105320000D01*
X150136000Y-96536000D02*
X150136000Y-103664000D01*
X136200000Y-94300000D02*
X147900000Y-94300000D01*
X147900000Y-94300000D02*
X150136000Y-96536000D01*
%TO.N,Net-(J1-Pad15)*%
X148432000Y-104680000D02*
X148000000Y-104680000D01*
X149835000Y-96686322D02*
X149835000Y-103277000D01*
X149835000Y-103277000D02*
X148432000Y-104680000D01*
X148048678Y-94900000D02*
X149835000Y-96686322D01*
X136800000Y-94900000D02*
X148048678Y-94900000D01*
%TO.N,Net-(J1-Pad0)*%
X149534000Y-102938000D02*
X148432000Y-104040000D01*
X147999034Y-95593000D02*
X149534000Y-97127966D01*
X136627254Y-95593000D02*
X147999034Y-95593000D01*
X148432000Y-104040000D02*
X148000000Y-104040000D01*
X133300000Y-98920254D02*
X136627254Y-95593000D01*
X149534000Y-97127966D02*
X149534000Y-102938000D01*
X133300000Y-103300000D02*
X133300000Y-98920254D01*
%TO.N,Net-(J1-Pad1)*%
X148480000Y-103400000D02*
X148000000Y-103400000D01*
X136751932Y-95894000D02*
X147874356Y-95894000D01*
X133800000Y-98845932D02*
X136751932Y-95894000D01*
X149233000Y-102647000D02*
X148480000Y-103400000D01*
X133800000Y-103300000D02*
X133800000Y-98845932D01*
X147874356Y-95894000D02*
X149233000Y-97252644D01*
X149233000Y-97252644D02*
X149233000Y-102647000D01*
%TO.N,Net-(J1-Pad2)*%
X148480000Y-102760000D02*
X148000000Y-102760000D01*
X148932000Y-102308000D02*
X148480000Y-102760000D01*
X147749678Y-96195000D02*
X148932000Y-97377322D01*
X148932000Y-97377322D02*
X148932000Y-102308000D01*
X134300000Y-98771610D02*
X136876610Y-96195000D01*
X134300000Y-103300000D02*
X134300000Y-98771610D01*
X136876610Y-96195000D02*
X147749678Y-96195000D01*
%TO.N,Net-(J1-Pad3)*%
X148480000Y-102120000D02*
X148000000Y-102120000D01*
X148631000Y-97502000D02*
X148631000Y-101969000D01*
X148631000Y-101969000D02*
X148480000Y-102120000D01*
X147625000Y-96496000D02*
X148631000Y-97502000D01*
X137001288Y-96496000D02*
X147625000Y-96496000D01*
X134800000Y-98697288D02*
X137001288Y-96496000D01*
X134800000Y-103300000D02*
X134800000Y-98697288D01*
%TO.N,Net-(J1-Pad4)*%
X147030000Y-102090000D02*
X147060000Y-102120000D01*
X145538000Y-101913000D02*
X145715000Y-102090000D01*
X145538000Y-98035966D02*
X145538000Y-101913000D01*
X137125966Y-96797000D02*
X144299034Y-96797000D01*
X145715000Y-102090000D02*
X147030000Y-102090000D01*
X135300000Y-98622966D02*
X137125966Y-96797000D01*
X144299034Y-96797000D02*
X145538000Y-98035966D01*
X135300000Y-103300000D02*
X135300000Y-98622966D01*
%TO.N,Net-(J1-Pad5)*%
X147030000Y-102730000D02*
X147060000Y-102760000D01*
X144174356Y-97098000D02*
X145237000Y-98160644D01*
X137250644Y-97098000D02*
X144174356Y-97098000D01*
X135800000Y-98548644D02*
X137250644Y-97098000D01*
X145237000Y-98160644D02*
X145237000Y-102512000D01*
X145237000Y-102512000D02*
X145455000Y-102730000D01*
X135800000Y-103300000D02*
X135800000Y-98548644D01*
X145455000Y-102730000D02*
X147030000Y-102730000D01*
%TO.N,Net-(J1-Pad6)*%
X147030000Y-103370000D02*
X147060000Y-103400000D01*
X144049678Y-97399000D02*
X144936000Y-98285322D01*
X137375322Y-97399000D02*
X144049678Y-97399000D01*
X136300000Y-98474322D02*
X137375322Y-97399000D01*
X144936000Y-98285322D02*
X144936000Y-103211000D01*
X145095000Y-103370000D02*
X147030000Y-103370000D01*
X136300000Y-103300000D02*
X136300000Y-98474322D01*
X144936000Y-103211000D02*
X145095000Y-103370000D01*
%TO.N,Net-(J1-Pad7)*%
X144935000Y-104010000D02*
X147030000Y-104010000D01*
X144635000Y-103710000D02*
X144935000Y-104010000D01*
X137500000Y-97700000D02*
X143925000Y-97700000D01*
X143925000Y-97700000D02*
X144635000Y-98410000D01*
X147030000Y-104010000D02*
X147060000Y-104040000D01*
X136800000Y-98400000D02*
X137500000Y-97700000D01*
X144635000Y-98410000D02*
X144635000Y-103710000D01*
X136800000Y-103300000D02*
X136800000Y-98400000D01*
%TO.N,GND*%
X148035000Y-101445000D02*
X148000000Y-101480000D01*
X148035000Y-100510000D02*
X148035000Y-101445000D01*
X149605000Y-107240000D02*
X149735000Y-107110000D01*
X148000000Y-107240000D02*
X149605000Y-107240000D01*
%TO.N,Net-(J1-Pad11)*%
X144644051Y-106600000D02*
X147060000Y-106600000D01*
X144635000Y-106590949D02*
X144644051Y-106600000D01*
%TO.N,Net-(J1-Pad10)*%
X145235000Y-105960000D02*
X147060000Y-105960000D01*
X145185000Y-106010000D02*
X145235000Y-105960000D01*
%TO.N,Net-(J1-Pad9)*%
X145760067Y-105320000D02*
X147060000Y-105320000D01*
X145735000Y-105294933D02*
X145760067Y-105320000D01*
%TO.N,Net-(J1-Pad8)*%
X147030000Y-104710000D02*
X147060000Y-104680000D01*
X146285000Y-104710000D02*
X147030000Y-104710000D01*
%TO.N,Net-(J1-Pad12)*%
X150738000Y-96561644D02*
X150738000Y-104342000D01*
X150738000Y-104342000D02*
X148480000Y-106600000D01*
X148480000Y-106600000D02*
X148000000Y-106600000D01*
%TO.N,Net-(J1-Pad10)*%
X145185000Y-106010000D02*
X145265000Y-105930000D01*
%TD*%
M02*
