%TF.GenerationSoftware,KiCad,Pcbnew,9.0.1*%
%TF.CreationDate,2025-07-04T13:50:08+02:00*%
%TF.ProjectId,USB_18pinOmnetics_bend,5553425f-3138-4706-996e-4f6d6e657469,rev?*%
%TF.SameCoordinates,Original*%
%TF.FileFunction,Copper,L2,Bot*%
%TF.FilePolarity,Positive*%
%FSLAX46Y46*%
G04 Gerber Fmt 4.6, Leading zero omitted, Abs format (unit mm)*
G04 Created by KiCad (PCBNEW 9.0.1) date 2025-07-04 13:50:08*
%MOMM*%
%LPD*%
G01*
G04 APERTURE LIST*
G04 Aperture macros list*
%AMRoundRect*
0 Rectangle with rounded corners*
0 $1 Rounding radius*
0 $2 $3 $4 $5 $6 $7 $8 $9 X,Y pos of 4 corners*
0 Add a 4 corners polygon primitive as box body*
4,1,4,$2,$3,$4,$5,$6,$7,$8,$9,$2,$3,0*
0 Add four circle primitives for the rounded corners*
1,1,$1+$1,$2,$3*
1,1,$1+$1,$4,$5*
1,1,$1+$1,$6,$7*
1,1,$1+$1,$8,$9*
0 Add four rect primitives between the rounded corners*
20,1,$1+$1,$2,$3,$4,$5,0*
20,1,$1+$1,$4,$5,$6,$7,0*
20,1,$1+$1,$6,$7,$8,$9,0*
20,1,$1+$1,$8,$9,$2,$3,0*%
G04 Aperture macros list end*
%TA.AperFunction,SMDPad,CuDef*%
%ADD10RoundRect,0.050000X-0.115000X-0.625000X0.115000X-0.625000X0.115000X0.625000X-0.115000X0.625000X0*%
%TD*%
%TA.AperFunction,SMDPad,CuDef*%
%ADD11RoundRect,0.120000X0.280000X0.415000X-0.280000X0.415000X-0.280000X-0.415000X0.280000X-0.415000X0*%
%TD*%
%TA.AperFunction,SMDPad,CuDef*%
%ADD12RoundRect,0.120000X-0.280000X-0.415000X0.280000X-0.415000X0.280000X0.415000X-0.280000X0.415000X0*%
%TD*%
%TA.AperFunction,ComponentPad*%
%ADD13R,1.700000X1.700000*%
%TD*%
%TA.AperFunction,ViaPad*%
%ADD14C,0.600000*%
%TD*%
%TA.AperFunction,Conductor*%
%ADD15C,0.100000*%
%TD*%
G04 APERTURE END LIST*
D10*
%TO.P,U2,12,12*%
%TO.N,unconnected-(U2-Pad12)*%
X132300000Y-103300000D03*
%TO.P,U2,13,13*%
%TO.N,unconnected-(U2-Pad13)*%
X132800000Y-103300000D03*
%TO.P,U2,14,14*%
%TO.N,Net-(J1-Pad8)*%
X133300000Y-103300000D03*
%TO.P,U2,15,15*%
%TO.N,Net-(J1-Pad9)*%
X133800000Y-103300000D03*
%TO.P,U2,16,16*%
%TO.N,Net-(J1-Pad10)*%
X134300000Y-103300000D03*
%TO.P,U2,17,17*%
%TO.N,Net-(J1-Pad11)*%
X134800000Y-103300000D03*
%TO.P,U2,18,18*%
%TO.N,Net-(J1-Pad12)*%
X135300000Y-103300000D03*
%TO.P,U2,19,19*%
%TO.N,Net-(J1-Pad13)*%
X135800000Y-103300000D03*
%TO.P,U2,20,20*%
%TO.N,Net-(J1-Pad14)*%
X136300000Y-103300000D03*
%TO.P,U2,21,21*%
%TO.N,Net-(J1-Pad15)*%
X136800000Y-103300000D03*
%TO.P,U2,22,22*%
%TO.N,unconnected-(U2-Pad22)*%
X137300000Y-103300000D03*
%TO.P,U2,23,23*%
%TO.N,unconnected-(U2-Pad23)*%
X137800000Y-103300000D03*
D11*
%TO.P,U2,26,26*%
%TO.N,GND*%
X131500000Y-102990000D03*
D12*
%TO.P,U2,27,27*%
X138600000Y-102990000D03*
%TD*%
D13*
%TO.P,J4,1,Pin_1*%
%TO.N,GND*%
X145200000Y-91200000D03*
%TD*%
%TO.P,J3,1,Pin_1*%
%TO.N,GND*%
X149200000Y-91200000D03*
%TD*%
D14*
%TO.N,GND*%
X132600000Y-93100000D03*
X136200000Y-92499000D03*
X137575707Y-92424293D03*
X138805500Y-99100000D03*
X145300000Y-107200000D03*
X148035000Y-100510000D03*
X149735000Y-107110000D03*
%TO.N,Net-(J1-Pad8)*%
X146285000Y-104710000D03*
%TO.N,Net-(J1-Pad9)*%
X145735000Y-105294933D03*
%TO.N,Net-(J1-Pad10)*%
X145185000Y-106010000D03*
%TO.N,Net-(J1-Pad11)*%
X144635000Y-106590949D03*
%TO.N,Net-(J1-Pad12)*%
X135250000Y-95000000D03*
%TO.N,Net-(J1-Pad13)*%
X135700000Y-93600000D03*
%TO.N,Net-(J1-Pad14)*%
X136200000Y-94300000D03*
%TO.N,Net-(J1-Pad15)*%
X136800000Y-94900000D03*
%TD*%
D15*
%TO.N,GND*%
X131800000Y-93900000D02*
X131800000Y-103000000D01*
X132600000Y-93100000D02*
X131800000Y-93900000D01*
X138300000Y-94599000D02*
X136200000Y-92499000D01*
X138300000Y-103000000D02*
X138300000Y-94599000D01*
X138805500Y-93654086D02*
X137575707Y-92424293D01*
X138805500Y-99100000D02*
X138805500Y-93654086D01*
%TO.N,Net-(J1-Pad11)*%
X144635000Y-106239232D02*
X144635000Y-106590949D01*
X144634000Y-106238232D02*
X144635000Y-106239232D01*
X144634000Y-105781768D02*
X144634000Y-106238232D01*
X144635000Y-98705768D02*
X144635000Y-105780768D01*
X137733232Y-91804000D02*
X144635000Y-98705768D01*
X134796000Y-91804000D02*
X137733232Y-91804000D01*
X134699000Y-91901000D02*
X134796000Y-91804000D01*
X144635000Y-105780768D02*
X144634000Y-105781768D01*
X134699000Y-101699000D02*
X134699000Y-91901000D01*
X134800000Y-101800000D02*
X134699000Y-101699000D01*
X134800000Y-103300000D02*
X134800000Y-101800000D01*
%TO.N,Net-(J1-Pad10)*%
X145184000Y-105066701D02*
X145184000Y-105523165D01*
X145185000Y-105524165D02*
X145185000Y-106010000D01*
X145185000Y-105065701D02*
X145184000Y-105066701D01*
X145185000Y-98830090D02*
X145185000Y-105065701D01*
X137857910Y-91503000D02*
X145185000Y-98830090D01*
X134300000Y-91503000D02*
X137857910Y-91503000D01*
X134300000Y-103300000D02*
X134300000Y-91503000D01*
X145184000Y-105523165D02*
X145185000Y-105524165D01*
%TO.N,Net-(J1-Pad9)*%
X145735000Y-104939232D02*
X145735000Y-105294933D01*
X145734000Y-104481768D02*
X145734000Y-104938232D01*
X145735000Y-98601768D02*
X145735000Y-104480768D01*
X145735000Y-104480768D02*
X145734000Y-104481768D01*
X133949356Y-91202000D02*
X138335232Y-91202000D01*
X145734000Y-104938232D02*
X145735000Y-104939232D01*
X138335232Y-91202000D02*
X145735000Y-98601768D01*
X133800000Y-91351356D02*
X133949356Y-91202000D01*
X133800000Y-103300000D02*
X133800000Y-91351356D01*
%TO.N,Net-(J1-Pad8)*%
X138752843Y-90901000D02*
X146285000Y-98433157D01*
X133300000Y-91425678D02*
X133824678Y-90901000D01*
X133824678Y-90901000D02*
X138752843Y-90901000D01*
X146285000Y-98433157D02*
X146285000Y-104710000D01*
X133300000Y-103300000D02*
X133300000Y-91425678D01*
%TO.N,GND*%
X131800000Y-92500000D02*
X133700000Y-90600000D01*
X131800000Y-103000000D02*
X131800000Y-92500000D01*
X133700000Y-90600000D02*
X138877521Y-90600000D01*
X138877521Y-90600000D02*
X148035000Y-99757479D01*
X148035000Y-104465000D02*
X148035000Y-100510000D01*
X145300000Y-107200000D02*
X148035000Y-104465000D01*
X149200000Y-98592479D02*
X149200000Y-91200000D01*
X148035000Y-99757479D02*
X149200000Y-98592479D01*
X145200000Y-91200000D02*
X149200000Y-91200000D01*
X148035000Y-99757479D02*
X148035000Y-100510000D01*
X149735000Y-101310000D02*
X148935000Y-100510000D01*
X149735000Y-107110000D02*
X149735000Y-101310000D01*
X148935000Y-100510000D02*
X148035000Y-100510000D01*
%TO.N,Net-(J1-Pad12)*%
X135300000Y-95050000D02*
X135250000Y-95000000D01*
X135300000Y-103300000D02*
X135300000Y-95050000D01*
%TO.N,Net-(J1-Pad13)*%
X135649000Y-94528232D02*
X135649000Y-93651000D01*
X135800000Y-94679232D02*
X135649000Y-94528232D01*
X135649000Y-93651000D02*
X135700000Y-93600000D01*
X135800000Y-103300000D02*
X135800000Y-94679232D01*
%TO.N,Net-(J1-Pad14)*%
X136249000Y-94349000D02*
X136200000Y-94300000D01*
X136249000Y-103249000D02*
X136249000Y-94349000D01*
X136300000Y-103300000D02*
X136249000Y-103249000D01*
%TO.N,Net-(J1-Pad15)*%
X136800000Y-103300000D02*
X136800000Y-94900000D01*
%TD*%
M02*
