  0
SECTION
  2
HEADER
  9
$ANGBASE
  50
0.0
  9
$ANGDIR
  70
1
  9
$MEASUREMENT
  70
0
  0
ENDSEC
  0
SECTION
  2
TABLES
  0
TABLE
  2
LTYPE
  70
4
  0
LTYPE
  5
40F
  2
CONTINUOUS
  70
0
  3
Solid line
  72
65
  73
0
  40
0.0
  0
LTYPE
  5
410
  2
DASHDOT
 70
0
  3
Dash Dot ____ _ ____ _
 72
65
 73
4
 40
2.0
 49
1.25
 49
-0.25
 49
0.25
 49
-0.25
  0
LTYPE
  5
411
  2
DASHED
 70
0
  3
Dashed __ __ __ __ __
 72
65
 73
2
 40
0.75
 49
0.5
 49
-0.25
  0
LTYPE
  5
43B
  2
DOTTED
 70
0
  3
Dotted .  .  .  .
 72
65
 73
2
 40
0.2
 49
0.0
 49
-0.2
  0
ENDTAB
  0
TABLE
  2
STYLE
  70
4
  0
STYLE
  2
KICAD
  70
0
  40
0
  41
1
  42
1
  50
0
  71
0
  3
isocp.shx
  0
STYLE
  2
KICADB
  70
0
  40
0
  41
1
  42
1
  50
0
  71
0
  3
isocp.shx
  0
STYLE
  2
KICADI
  70
0
  40
0
  41
1
  42
1
  50
15
  71
0
  3
isocp.shx
  0
STYLE
  2
KICADBI
  70
0
  40
0
  41
1
  42
1
  50
15
  71
0
  3
isocp.shx
  0
ENDTAB
  0
TABLE
  2
LAYER
  70
1
  0
LAYER
  2
BLACK
  70
0
  62
7
  6
CONTINUOUS
  0
ENDTAB
  0
ENDSEC
  0
SECTION
  2
ENTITIES
0
LINE
8
BLACK
6
CONTINUOUS
10
5.627952755905512
20
-4.2874015748031491
11
5.5492125984251963
21
-4.2874015748031491
0
LINE
8
BLACK
6
CONTINUOUS
10
5.5492125984251963
20
-4.2874015748031491
11
5.5492125984251963
21
-4.2165354330708658
0
LINE
8
BLACK
6
CONTINUOUS
10
5.5492125984251963
20
-4.2165354330708658
11
5.627952755905512
21
-4.2165354330708658
0
LINE
8
BLACK
6
CONTINUOUS
10
5.627952755905512
20
-4.2165354330708658
11
5.627952755905512
21
-4.2874015748031491
0
LINE
8
BLACK
6
CONTINUOUS
10
6.2618110236220472
20
-4.2874015748031491
11
6.1830708661417324
21
-4.2874015748031491
0
LINE
8
BLACK
6
CONTINUOUS
10
6.1830708661417324
20
-4.2874015748031491
11
6.1830708661417324
21
-4.2165354330708658
0
LINE
8
BLACK
6
CONTINUOUS
10
6.1830708661417324
20
-4.2165354330708658
11
6.2618110236220472
21
-4.2165354330708658
0
LINE
8
BLACK
6
CONTINUOUS
10
6.2618110236220472
20
-4.2165354330708658
11
6.2618110236220472
21
-4.2874015748031491
0
LINE
8
BLACK
6
CONTINUOUS
10
5.6653543307086611
20
-4.1692913385826769
11
5.6535433070866139
21
-4.1692913385826769
0
LINE
8
BLACK
6
CONTINUOUS
10
5.6535433070866139
20
-4.1692913385826769
11
5.6535433070866139
21
-4.1181102362204722
0
LINE
8
BLACK
6
CONTINUOUS
10
5.6535433070866139
20
-4.1181102362204722
11
5.6653543307086611
21
-4.1181102362204722
0
LINE
8
BLACK
6
CONTINUOUS
10
5.6653543307086611
20
-4.1181102362204722
11
5.6653543307086611
21
-4.1692913385826769
0
LINE
8
BLACK
6
CONTINUOUS
10
5.6850393700787398
20
-4.1692913385826769
11
5.6732283464566926
21
-4.1692913385826769
0
LINE
8
BLACK
6
CONTINUOUS
10
5.6732283464566926
20
-4.1692913385826769
11
5.6732283464566926
21
-4.1181102362204722
0
LINE
8
BLACK
6
CONTINUOUS
10
5.6732283464566926
20
-4.1181102362204722
11
5.6850393700787398
21
-4.1181102362204722
0
LINE
8
BLACK
6
CONTINUOUS
10
5.6850393700787398
20
-4.1181102362204722
11
5.6850393700787398
21
-4.1692913385826769
0
LINE
8
BLACK
6
CONTINUOUS
10
5.7047244094488185
20
-4.1692913385826769
11
5.6929133858267713
21
-4.1692913385826769
0
LINE
8
BLACK
6
CONTINUOUS
10
5.6929133858267713
20
-4.1692913385826769
11
5.6929133858267713
21
-4.1181102362204722
0
LINE
8
BLACK
6
CONTINUOUS
10
5.6929133858267713
20
-4.1181102362204722
11
5.7047244094488185
21
-4.1181102362204722
0
LINE
8
BLACK
6
CONTINUOUS
10
5.7047244094488185
20
-4.1181102362204722
11
5.7047244094488185
21
-4.1692913385826769
0
LINE
8
BLACK
6
CONTINUOUS
10
5.7244094488188972
20
-4.1692913385826769
11
5.71259842519685
21
-4.1692913385826769
0
LINE
8
BLACK
6
CONTINUOUS
10
5.71259842519685
20
-4.1692913385826769
11
5.71259842519685
21
-4.1181102362204722
0
LINE
8
BLACK
6
CONTINUOUS
10
5.71259842519685
20
-4.1181102362204722
11
5.7244094488188972
21
-4.1181102362204722
0
LINE
8
BLACK
6
CONTINUOUS
10
5.7244094488188972
20
-4.1181102362204722
11
5.7244094488188972
21
-4.1692913385826769
0
LINE
8
BLACK
6
CONTINUOUS
10
5.7440944881889759
20
-4.1692913385826769
11
5.7322834645669287
21
-4.1692913385826769
0
LINE
8
BLACK
6
CONTINUOUS
10
5.7322834645669287
20
-4.1692913385826769
11
5.7322834645669287
21
-4.1181102362204722
0
LINE
8
BLACK
6
CONTINUOUS
10
5.7322834645669287
20
-4.1181102362204722
11
5.7440944881889759
21
-4.1181102362204722
0
LINE
8
BLACK
6
CONTINUOUS
10
5.7440944881889759
20
-4.1181102362204722
11
5.7440944881889759
21
-4.1692913385826769
0
LINE
8
BLACK
6
CONTINUOUS
10
5.7637795275590546
20
-4.1692913385826769
11
5.7519685039370074
21
-4.1692913385826769
0
LINE
8
BLACK
6
CONTINUOUS
10
5.7519685039370074
20
-4.1692913385826769
11
5.7519685039370074
21
-4.1181102362204722
0
LINE
8
BLACK
6
CONTINUOUS
10
5.7519685039370074
20
-4.1181102362204722
11
5.7637795275590546
21
-4.1181102362204722
0
LINE
8
BLACK
6
CONTINUOUS
10
5.7637795275590546
20
-4.1181102362204722
11
5.7637795275590546
21
-4.1692913385826769
0
LINE
8
BLACK
6
CONTINUOUS
10
5.7834645669291334
20
-4.1692913385826769
11
5.7716535433070861
21
-4.1692913385826769
0
LINE
8
BLACK
6
CONTINUOUS
10
5.7716535433070861
20
-4.1692913385826769
11
5.7716535433070861
21
-4.1181102362204722
0
LINE
8
BLACK
6
CONTINUOUS
10
5.7716535433070861
20
-4.1181102362204722
11
5.7834645669291334
21
-4.1181102362204722
0
LINE
8
BLACK
6
CONTINUOUS
10
5.7834645669291334
20
-4.1181102362204722
11
5.7834645669291334
21
-4.1692913385826769
0
LINE
8
BLACK
6
CONTINUOUS
10
5.8031496062992121
20
-4.1692913385826769
11
5.7913385826771648
21
-4.1692913385826769
0
LINE
8
BLACK
6
CONTINUOUS
10
5.7913385826771648
20
-4.1692913385826769
11
5.7913385826771648
21
-4.1181102362204722
0
LINE
8
BLACK
6
CONTINUOUS
10
5.7913385826771648
20
-4.1181102362204722
11
5.8031496062992121
21
-4.1181102362204722
0
LINE
8
BLACK
6
CONTINUOUS
10
5.8031496062992121
20
-4.1181102362204722
11
5.8031496062992121
21
-4.1692913385826769
0
LINE
8
BLACK
6
CONTINUOUS
10
5.8228346456692908
20
-4.1692913385826769
11
5.8110236220472435
21
-4.1692913385826769
0
LINE
8
BLACK
6
CONTINUOUS
10
5.8110236220472435
20
-4.1692913385826769
11
5.8110236220472435
21
-4.1181102362204722
0
LINE
8
BLACK
6
CONTINUOUS
10
5.8110236220472435
20
-4.1181102362204722
11
5.8228346456692908
21
-4.1181102362204722
0
LINE
8
BLACK
6
CONTINUOUS
10
5.8228346456692908
20
-4.1181102362204722
11
5.8228346456692908
21
-4.1692913385826769
0
LINE
8
BLACK
6
CONTINUOUS
10
5.8425196850393704
20
-4.1692913385826769
11
5.8307086614173231
21
-4.1692913385826769
0
LINE
8
BLACK
6
CONTINUOUS
10
5.8307086614173231
20
-4.1692913385826769
11
5.8307086614173231
21
-4.1181102362204722
0
LINE
8
BLACK
6
CONTINUOUS
10
5.8307086614173231
20
-4.1181102362204722
11
5.8425196850393704
21
-4.1181102362204722
0
LINE
8
BLACK
6
CONTINUOUS
10
5.8425196850393704
20
-4.1181102362204722
11
5.8425196850393704
21
-4.1692913385826769
0
LINE
8
BLACK
6
CONTINUOUS
10
5.8622047244094491
20
-4.1692913385826769
11
5.8503937007874018
21
-4.1692913385826769
0
LINE
8
BLACK
6
CONTINUOUS
10
5.8503937007874018
20
-4.1692913385826769
11
5.8503937007874018
21
-4.1181102362204722
0
LINE
8
BLACK
6
CONTINUOUS
10
5.8503937007874018
20
-4.1181102362204722
11
5.8622047244094491
21
-4.1181102362204722
0
LINE
8
BLACK
6
CONTINUOUS
10
5.8622047244094491
20
-4.1181102362204722
11
5.8622047244094491
21
-4.1692913385826769
0
LINE
8
BLACK
6
CONTINUOUS
10
5.8818897637795278
20
-4.1692913385826769
11
5.8700787401574805
21
-4.1692913385826769
0
LINE
8
BLACK
6
CONTINUOUS
10
5.8700787401574805
20
-4.1692913385826769
11
5.8700787401574805
21
-4.1181102362204722
0
LINE
8
BLACK
6
CONTINUOUS
10
5.8700787401574805
20
-4.1181102362204722
11
5.8818897637795278
21
-4.1181102362204722
0
LINE
8
BLACK
6
CONTINUOUS
10
5.8818897637795278
20
-4.1181102362204722
11
5.8818897637795278
21
-4.1692913385826769
0
LINE
8
BLACK
6
CONTINUOUS
10
5.9015748031496065
20
-4.1692913385826769
11
5.8897637795275593
21
-4.1692913385826769
0
LINE
8
BLACK
6
CONTINUOUS
10
5.8897637795275593
20
-4.1692913385826769
11
5.8897637795275593
21
-4.1181102362204722
0
LINE
8
BLACK
6
CONTINUOUS
10
5.8897637795275593
20
-4.1181102362204722
11
5.9015748031496065
21
-4.1181102362204722
0
LINE
8
BLACK
6
CONTINUOUS
10
5.9015748031496065
20
-4.1181102362204722
11
5.9015748031496065
21
-4.1692913385826769
0
LINE
8
BLACK
6
CONTINUOUS
10
5.9212598425196852
20
-4.1692913385826769
11
5.909448818897638
21
-4.1692913385826769
0
LINE
8
BLACK
6
CONTINUOUS
10
5.909448818897638
20
-4.1692913385826769
11
5.909448818897638
21
-4.1181102362204722
0
LINE
8
BLACK
6
CONTINUOUS
10
5.909448818897638
20
-4.1181102362204722
11
5.9212598425196852
21
-4.1181102362204722
0
LINE
8
BLACK
6
CONTINUOUS
10
5.9212598425196852
20
-4.1181102362204722
11
5.9212598425196852
21
-4.1692913385826769
0
LINE
8
BLACK
6
CONTINUOUS
10
5.9409448818897639
20
-4.1692913385826769
11
5.9291338582677167
21
-4.1692913385826769
0
LINE
8
BLACK
6
CONTINUOUS
10
5.9291338582677167
20
-4.1692913385826769
11
5.9291338582677167
21
-4.1181102362204722
0
LINE
8
BLACK
6
CONTINUOUS
10
5.9291338582677167
20
-4.1181102362204722
11
5.9409448818897639
21
-4.1181102362204722
0
LINE
8
BLACK
6
CONTINUOUS
10
5.9409448818897639
20
-4.1181102362204722
11
5.9409448818897639
21
-4.1692913385826769
0
LINE
8
BLACK
6
CONTINUOUS
10
5.9606299212598426
20
-4.1692913385826769
11
5.9488188976377954
21
-4.1692913385826769
0
LINE
8
BLACK
6
CONTINUOUS
10
5.9488188976377954
20
-4.1692913385826769
11
5.9488188976377954
21
-4.1181102362204722
0
LINE
8
BLACK
6
CONTINUOUS
10
5.9488188976377954
20
-4.1181102362204722
11
5.9606299212598426
21
-4.1181102362204722
0
LINE
8
BLACK
6
CONTINUOUS
10
5.9606299212598426
20
-4.1181102362204722
11
5.9606299212598426
21
-4.1692913385826769
0
LINE
8
BLACK
6
CONTINUOUS
10
5.9803149606299213
20
-4.1692913385826769
11
5.9685039370078741
21
-4.1692913385826769
0
LINE
8
BLACK
6
CONTINUOUS
10
5.9685039370078741
20
-4.1692913385826769
11
5.9685039370078741
21
-4.1181102362204722
0
LINE
8
BLACK
6
CONTINUOUS
10
5.9685039370078741
20
-4.1181102362204722
11
5.9803149606299213
21
-4.1181102362204722
0
LINE
8
BLACK
6
CONTINUOUS
10
5.9803149606299213
20
-4.1181102362204722
11
5.9803149606299213
21
-4.1692913385826769
0
LINE
8
BLACK
6
CONTINUOUS
10
6.
20
-4.1692913385826769
11
5.9881889763779528
21
-4.1692913385826769
0
LINE
8
BLACK
6
CONTINUOUS
10
5.9881889763779528
20
-4.1692913385826769
11
5.9881889763779528
21
-4.1181102362204722
0
LINE
8
BLACK
6
CONTINUOUS
10
5.9881889763779528
20
-4.1181102362204722
11
6.
21
-4.1181102362204722
0
LINE
8
BLACK
6
CONTINUOUS
10
6.
20
-4.1181102362204722
11
6.
21
-4.1692913385826769
0
LINE
8
BLACK
6
CONTINUOUS
10
6.0196850393700787
20
-4.1692913385826769
11
6.0078740157480315
21
-4.1692913385826769
0
LINE
8
BLACK
6
CONTINUOUS
10
6.0078740157480315
20
-4.1692913385826769
11
6.0078740157480315
21
-4.1181102362204722
0
LINE
8
BLACK
6
CONTINUOUS
10
6.0078740157480315
20
-4.1181102362204722
11
6.0196850393700787
21
-4.1181102362204722
0
LINE
8
BLACK
6
CONTINUOUS
10
6.0196850393700787
20
-4.1181102362204722
11
6.0196850393700787
21
-4.1692913385826769
0
LINE
8
BLACK
6
CONTINUOUS
10
6.0393700787401574
20
-4.1692913385826769
11
6.0275590551181102
21
-4.1692913385826769
0
LINE
8
BLACK
6
CONTINUOUS
10
6.0275590551181102
20
-4.1692913385826769
11
6.0275590551181102
21
-4.1181102362204722
0
LINE
8
BLACK
6
CONTINUOUS
10
6.0275590551181102
20
-4.1181102362204722
11
6.0393700787401574
21
-4.1181102362204722
0
LINE
8
BLACK
6
CONTINUOUS
10
6.0393700787401574
20
-4.1181102362204722
11
6.0393700787401574
21
-4.1692913385826769
0
LINE
8
BLACK
6
CONTINUOUS
10
6.0590551181102361
20
-4.1692913385826769
11
6.0472440944881889
21
-4.1692913385826769
0
LINE
8
BLACK
6
CONTINUOUS
10
6.0472440944881889
20
-4.1692913385826769
11
6.0472440944881889
21
-4.1181102362204722
0
LINE
8
BLACK
6
CONTINUOUS
10
6.0472440944881889
20
-4.1181102362204722
11
6.0590551181102361
21
-4.1181102362204722
0
LINE
8
BLACK
6
CONTINUOUS
10
6.0590551181102361
20
-4.1181102362204722
11
6.0590551181102361
21
-4.1692913385826769
0
LINE
8
BLACK
6
CONTINUOUS
10
6.0787401574803148
20
-4.1692913385826769
11
6.0669291338582676
21
-4.1692913385826769
0
LINE
8
BLACK
6
CONTINUOUS
10
6.0669291338582676
20
-4.1692913385826769
11
6.0669291338582676
21
-4.1181102362204722
0
LINE
8
BLACK
6
CONTINUOUS
10
6.0669291338582676
20
-4.1181102362204722
11
6.0787401574803148
21
-4.1181102362204722
0
LINE
8
BLACK
6
CONTINUOUS
10
6.0787401574803148
20
-4.1181102362204722
11
6.0787401574803148
21
-4.1692913385826769
0
LINE
8
BLACK
6
CONTINUOUS
10
6.0984251968503935
20
-4.1692913385826769
11
6.0866141732283463
21
-4.1692913385826769
0
LINE
8
BLACK
6
CONTINUOUS
10
6.0866141732283463
20
-4.1692913385826769
11
6.0866141732283463
21
-4.1181102362204722
0
LINE
8
BLACK
6
CONTINUOUS
10
6.0866141732283463
20
-4.1181102362204722
11
6.0984251968503935
21
-4.1181102362204722
0
LINE
8
BLACK
6
CONTINUOUS
10
6.0984251968503935
20
-4.1181102362204722
11
6.0984251968503935
21
-4.1692913385826769
0
LINE
8
BLACK
6
CONTINUOUS
10
6.1181102362204722
20
-4.1692913385826769
11
6.106299212598425
21
-4.1692913385826769
0
LINE
8
BLACK
6
CONTINUOUS
10
6.106299212598425
20
-4.1692913385826769
11
6.106299212598425
21
-4.1181102362204722
0
LINE
8
BLACK
6
CONTINUOUS
10
6.106299212598425
20
-4.1181102362204722
11
6.1181102362204722
21
-4.1181102362204722
0
LINE
8
BLACK
6
CONTINUOUS
10
6.1181102362204722
20
-4.1181102362204722
11
6.1181102362204722
21
-4.1692913385826769
0
LINE
8
BLACK
6
CONTINUOUS
10
6.1377952755905509
20
-4.1692913385826769
11
6.1259842519685037
21
-4.1692913385826769
0
LINE
8
BLACK
6
CONTINUOUS
10
6.1259842519685037
20
-4.1692913385826769
11
6.1259842519685037
21
-4.1181102362204722
0
LINE
8
BLACK
6
CONTINUOUS
10
6.1259842519685037
20
-4.1181102362204722
11
6.1377952755905509
21
-4.1181102362204722
0
LINE
8
BLACK
6
CONTINUOUS
10
6.1377952755905509
20
-4.1181102362204722
11
6.1377952755905509
21
-4.1692913385826769
0
LINE
8
BLACK
6
CONTINUOUS
10
6.1574803149606296
20
-4.1692913385826769
11
6.1456692913385824
21
-4.1692913385826769
0
LINE
8
BLACK
6
CONTINUOUS
10
6.1456692913385824
20
-4.1692913385826769
11
6.1456692913385824
21
-4.1181102362204722
0
LINE
8
BLACK
6
CONTINUOUS
10
6.1456692913385824
20
-4.1181102362204722
11
6.1574803149606296
21
-4.1181102362204722
0
LINE
8
BLACK
6
CONTINUOUS
10
6.1574803149606296
20
-4.1181102362204722
11
6.1574803149606296
21
-4.1692913385826769
0
LINE
8
BLACK
6
CONTINUOUS
10
5.7133956692913381
20
-3.9296496062992126
11
5.6983956692913385
21
-3.9296496062992126
0
LINE
8
BLACK
6
CONTINUOUS
10
5.6983956692913385
20
-3.9296496062992126
11
5.6983956692913385
21
-3.8996496062992123
0
LINE
8
BLACK
6
CONTINUOUS
10
5.6983956692913385
20
-3.8996496062992123
11
5.7133956692913381
21
-3.8996496062992123
0
LINE
8
BLACK
6
CONTINUOUS
10
5.7133956692913381
20
-3.8996496062992123
11
5.7133956692913381
21
-3.9296496062992126
0
LINE
8
BLACK
6
CONTINUOUS
10
5.7383956692913385
20
-3.9296496062992126
11
5.7233956692913388
21
-3.9296496062992126
0
LINE
8
BLACK
6
CONTINUOUS
10
5.7233956692913388
20
-3.9296496062992126
11
5.7233956692913388
21
-3.8996496062992123
0
LINE
8
BLACK
6
CONTINUOUS
10
5.7233956692913388
20
-3.8996496062992123
11
5.7383956692913385
21
-3.8996496062992123
0
LINE
8
BLACK
6
CONTINUOUS
10
5.7383956692913385
20
-3.8996496062992123
11
5.7383956692913385
21
-3.9296496062992126
0
LINE
8
BLACK
6
CONTINUOUS
10
5.7633956692913388
20
-3.9296496062992126
11
5.7483956692913383
21
-3.9296496062992126
0
LINE
8
BLACK
6
CONTINUOUS
10
5.7483956692913383
20
-3.9296496062992126
11
5.7483956692913383
21
-3.8996496062992123
0
LINE
8
BLACK
6
CONTINUOUS
10
5.7483956692913383
20
-3.8996496062992123
11
5.7633956692913388
21
-3.8996496062992123
0
LINE
8
BLACK
6
CONTINUOUS
10
5.7633956692913388
20
-3.8996496062992123
11
5.7633956692913388
21
-3.9296496062992126
0
LINE
8
BLACK
6
CONTINUOUS
10
5.7883956692913383
20
-3.9296496062992126
11
5.7733956692913386
21
-3.9296496062992126
0
LINE
8
BLACK
6
CONTINUOUS
10
5.7733956692913386
20
-3.9296496062992126
11
5.7733956692913386
21
-3.8996496062992123
0
LINE
8
BLACK
6
CONTINUOUS
10
5.7733956692913386
20
-3.8996496062992123
11
5.7883956692913383
21
-3.8996496062992123
0
LINE
8
BLACK
6
CONTINUOUS
10
5.7883956692913383
20
-3.8996496062992123
11
5.7883956692913383
21
-3.9296496062992126
0
LINE
8
BLACK
6
CONTINUOUS
10
5.8133956692913387
20
-3.9296496062992126
11
5.7983956692913381
21
-3.9296496062992126
0
LINE
8
BLACK
6
CONTINUOUS
10
5.7983956692913381
20
-3.9296496062992126
11
5.7983956692913381
21
-3.8996496062992123
0
LINE
8
BLACK
6
CONTINUOUS
10
5.7983956692913381
20
-3.8996496062992123
11
5.8133956692913387
21
-3.8996496062992123
0
LINE
8
BLACK
6
CONTINUOUS
10
5.8133956692913387
20
-3.8996496062992123
11
5.8133956692913387
21
-3.9296496062992126
0
LINE
8
BLACK
6
CONTINUOUS
10
5.8383956692913381
20
-3.9296496062992126
11
5.8233956692913385
21
-3.9296496062992126
0
LINE
8
BLACK
6
CONTINUOUS
10
5.8233956692913385
20
-3.9296496062992126
11
5.8233956692913385
21
-3.8996496062992123
0
LINE
8
BLACK
6
CONTINUOUS
10
5.8233956692913385
20
-3.8996496062992123
11
5.8383956692913381
21
-3.8996496062992123
0
LINE
8
BLACK
6
CONTINUOUS
10
5.8383956692913381
20
-3.8996496062992123
11
5.8383956692913381
21
-3.9296496062992126
0
LINE
8
BLACK
6
CONTINUOUS
10
5.8633956692913385
20
-3.9296496062992126
11
5.8483956692913388
21
-3.9296496062992126
0
LINE
8
BLACK
6
CONTINUOUS
10
5.8483956692913388
20
-3.9296496062992126
11
5.8483956692913388
21
-3.8996496062992123
0
LINE
8
BLACK
6
CONTINUOUS
10
5.8483956692913388
20
-3.8996496062992123
11
5.8633956692913385
21
-3.8996496062992123
0
LINE
8
BLACK
6
CONTINUOUS
10
5.8633956692913385
20
-3.8996496062992123
11
5.8633956692913385
21
-3.9296496062992126
0
LINE
8
BLACK
6
CONTINUOUS
10
5.8883956692913388
20
-3.9296496062992126
11
5.8733956692913383
21
-3.9296496062992126
0
LINE
8
BLACK
6
CONTINUOUS
10
5.8733956692913383
20
-3.9296496062992126
11
5.8733956692913383
21
-3.8996496062992123
0
LINE
8
BLACK
6
CONTINUOUS
10
5.8733956692913383
20
-3.8996496062992123
11
5.8883956692913388
21
-3.8996496062992123
0
LINE
8
BLACK
6
CONTINUOUS
10
5.8883956692913388
20
-3.8996496062992123
11
5.8883956692913388
21
-3.9296496062992126
0
LINE
8
BLACK
6
CONTINUOUS
10
5.9133956692913383
20
-3.9296496062992126
11
5.8983956692913386
21
-3.9296496062992126
0
LINE
8
BLACK
6
CONTINUOUS
10
5.8983956692913386
20
-3.9296496062992126
11
5.8983956692913386
21
-3.8996496062992123
0
LINE
8
BLACK
6
CONTINUOUS
10
5.8983956692913386
20
-3.8996496062992123
11
5.9133956692913383
21
-3.8996496062992123
0
LINE
8
BLACK
6
CONTINUOUS
10
5.9133956692913383
20
-3.8996496062992123
11
5.9133956692913383
21
-3.9296496062992126
0
LINE
8
BLACK
6
CONTINUOUS
10
5.9383956692913387
20
-3.9296496062992126
11
5.9233956692913381
21
-3.9296496062992126
0
LINE
8
BLACK
6
CONTINUOUS
10
5.9233956692913381
20
-3.9296496062992126
11
5.9233956692913381
21
-3.8996496062992123
0
LINE
8
BLACK
6
CONTINUOUS
10
5.9233956692913381
20
-3.8996496062992123
11
5.9383956692913387
21
-3.8996496062992123
0
LINE
8
BLACK
6
CONTINUOUS
10
5.9383956692913387
20
-3.8996496062992123
11
5.9383956692913387
21
-3.9296496062992126
0
LINE
8
BLACK
6
CONTINUOUS
10
5.9633956692913381
20
-3.9296496062992126
11
5.9483956692913385
21
-3.9296496062992126
0
LINE
8
BLACK
6
CONTINUOUS
10
5.9483956692913385
20
-3.9296496062992126
11
5.9483956692913385
21
-3.8996496062992123
0
LINE
8
BLACK
6
CONTINUOUS
10
5.9483956692913385
20
-3.8996496062992123
11
5.9633956692913381
21
-3.8996496062992123
0
LINE
8
BLACK
6
CONTINUOUS
10
5.9633956692913381
20
-3.8996496062992123
11
5.9633956692913381
21
-3.9296496062992126
0
LINE
8
BLACK
6
CONTINUOUS
10
5.9883956692913385
20
-3.9296496062992126
11
5.9733956692913388
21
-3.9296496062992126
0
LINE
8
BLACK
6
CONTINUOUS
10
5.9733956692913388
20
-3.9296496062992126
11
5.9733956692913388
21
-3.8996496062992123
0
LINE
8
BLACK
6
CONTINUOUS
10
5.9733956692913388
20
-3.8996496062992123
11
5.9883956692913385
21
-3.8996496062992123
0
LINE
8
BLACK
6
CONTINUOUS
10
5.9883956692913385
20
-3.8996496062992123
11
5.9883956692913385
21
-3.9296496062992126
0
LINE
8
BLACK
6
CONTINUOUS
10
6.0133956692913388
20
-3.9296496062992126
11
5.9983956692913383
21
-3.9296496062992126
0
LINE
8
BLACK
6
CONTINUOUS
10
5.9983956692913383
20
-3.9296496062992126
11
5.9983956692913383
21
-3.8996496062992123
0
LINE
8
BLACK
6
CONTINUOUS
10
5.9983956692913383
20
-3.8996496062992123
11
6.0133956692913388
21
-3.8996496062992123
0
LINE
8
BLACK
6
CONTINUOUS
10
6.0133956692913388
20
-3.8996496062992123
11
6.0133956692913388
21
-3.9296496062992126
0
LINE
8
BLACK
6
CONTINUOUS
10
6.0383956692913383
20
-3.9296496062992126
11
6.0233956692913386
21
-3.9296496062992126
0
LINE
8
BLACK
6
CONTINUOUS
10
6.0233956692913386
20
-3.9296496062992126
11
6.0233956692913386
21
-3.8996496062992123
0
LINE
8
BLACK
6
CONTINUOUS
10
6.0233956692913386
20
-3.8996496062992123
11
6.0383956692913383
21
-3.8996496062992123
0
LINE
8
BLACK
6
CONTINUOUS
10
6.0383956692913383
20
-3.8996496062992123
11
6.0383956692913383
21
-3.9296496062992126
0
LINE
8
BLACK
6
CONTINUOUS
10
6.0633956692913387
20
-3.9296496062992126
11
6.0483956692913381
21
-3.9296496062992126
0
LINE
8
BLACK
6
CONTINUOUS
10
6.0483956692913381
20
-3.9296496062992126
11
6.0483956692913381
21
-3.8996496062992123
0
LINE
8
BLACK
6
CONTINUOUS
10
6.0483956692913381
20
-3.8996496062992123
11
6.0633956692913387
21
-3.8996496062992123
0
LINE
8
BLACK
6
CONTINUOUS
10
6.0633956692913387
20
-3.8996496062992123
11
6.0633956692913387
21
-3.9296496062992126
0
LINE
8
BLACK
6
CONTINUOUS
10
6.0883956692913381
20
-3.9296496062992126
11
6.0733956692913385
21
-3.9296496062992126
0
LINE
8
BLACK
6
CONTINUOUS
10
6.0733956692913385
20
-3.9296496062992126
11
6.0733956692913385
21
-3.8996496062992123
0
LINE
8
BLACK
6
CONTINUOUS
10
6.0733956692913385
20
-3.8996496062992123
11
6.0883956692913381
21
-3.8996496062992123
0
LINE
8
BLACK
6
CONTINUOUS
10
6.0883956692913381
20
-3.8996496062992123
11
6.0883956692913381
21
-3.9296496062992126
0
LINE
8
BLACK
6
CONTINUOUS
10
6.1133956692913385
20
-3.9296496062992126
11
6.0983956692913388
21
-3.9296496062992126
0
LINE
8
BLACK
6
CONTINUOUS
10
6.0983956692913388
20
-3.9296496062992126
11
6.0983956692913388
21
-3.8996496062992123
0
LINE
8
BLACK
6
CONTINUOUS
10
6.0983956692913388
20
-3.8996496062992123
11
6.1133956692913385
21
-3.8996496062992123
0
LINE
8
BLACK
6
CONTINUOUS
10
6.1133956692913385
20
-3.8996496062992123
11
6.1133956692913385
21
-3.9296496062992126
0
LINE
8
BLACK
6
CONTINUOUS
10
6.1383956692913388
20
-3.9296496062992126
11
6.1233956692913383
21
-3.9296496062992126
0
LINE
8
BLACK
6
CONTINUOUS
10
6.1233956692913383
20
-3.9296496062992126
11
6.1233956692913383
21
-3.8996496062992123
0
LINE
8
BLACK
6
CONTINUOUS
10
6.1233956692913383
20
-3.8996496062992123
11
6.1383956692913388
21
-3.8996496062992123
0
LINE
8
BLACK
6
CONTINUOUS
10
6.1383956692913388
20
-3.8996496062992123
11
6.1383956692913388
21
-3.9296496062992126
0
LINE
8
BLACK
6
CONTINUOUS
10
5.7133956692913381
20
-3.8926496062992126
11
5.6983956692913385
21
-3.8926496062992126
0
LINE
8
BLACK
6
CONTINUOUS
10
5.6983956692913385
20
-3.8926496062992126
11
5.6983956692913385
21
-3.8626496062992124
0
LINE
8
BLACK
6
CONTINUOUS
10
5.6983956692913385
20
-3.8626496062992124
11
5.7133956692913381
21
-3.8626496062992124
0
LINE
8
BLACK
6
CONTINUOUS
10
5.7133956692913381
20
-3.8626496062992124
11
5.7133956692913381
21
-3.8926496062992126
0
LINE
8
BLACK
6
CONTINUOUS
10
5.7383956692913385
20
-3.8926496062992126
11
5.7233956692913388
21
-3.8926496062992126
0
LINE
8
BLACK
6
CONTINUOUS
10
5.7233956692913388
20
-3.8926496062992126
11
5.7233956692913388
21
-3.8626496062992124
0
LINE
8
BLACK
6
CONTINUOUS
10
5.7233956692913388
20
-3.8626496062992124
11
5.7383956692913385
21
-3.8626496062992124
0
LINE
8
BLACK
6
CONTINUOUS
10
5.7383956692913385
20
-3.8626496062992124
11
5.7383956692913385
21
-3.8926496062992126
0
LINE
8
BLACK
6
CONTINUOUS
10
5.7633956692913388
20
-3.8926496062992126
11
5.7483956692913383
21
-3.8926496062992126
0
LINE
8
BLACK
6
CONTINUOUS
10
5.7483956692913383
20
-3.8926496062992126
11
5.7483956692913383
21
-3.8626496062992124
0
LINE
8
BLACK
6
CONTINUOUS
10
5.7483956692913383
20
-3.8626496062992124
11
5.7633956692913388
21
-3.8626496062992124
0
LINE
8
BLACK
6
CONTINUOUS
10
5.7633956692913388
20
-3.8626496062992124
11
5.7633956692913388
21
-3.8926496062992126
0
LINE
8
BLACK
6
CONTINUOUS
10
5.7883956692913383
20
-3.8926496062992126
11
5.7733956692913386
21
-3.8926496062992126
0
LINE
8
BLACK
6
CONTINUOUS
10
5.7733956692913386
20
-3.8926496062992126
11
5.7733956692913386
21
-3.8626496062992124
0
LINE
8
BLACK
6
CONTINUOUS
10
5.7733956692913386
20
-3.8626496062992124
11
5.7883956692913383
21
-3.8626496062992124
0
LINE
8
BLACK
6
CONTINUOUS
10
5.7883956692913383
20
-3.8626496062992124
11
5.7883956692913383
21
-3.8926496062992126
0
LINE
8
BLACK
6
CONTINUOUS
10
5.8133956692913387
20
-3.8926496062992126
11
5.7983956692913381
21
-3.8926496062992126
0
LINE
8
BLACK
6
CONTINUOUS
10
5.7983956692913381
20
-3.8926496062992126
11
5.7983956692913381
21
-3.8626496062992124
0
LINE
8
BLACK
6
CONTINUOUS
10
5.7983956692913381
20
-3.8626496062992124
11
5.8133956692913387
21
-3.8626496062992124
0
LINE
8
BLACK
6
CONTINUOUS
10
5.8133956692913387
20
-3.8626496062992124
11
5.8133956692913387
21
-3.8926496062992126
0
LINE
8
BLACK
6
CONTINUOUS
10
5.8383956692913381
20
-3.8926496062992126
11
5.8233956692913385
21
-3.8926496062992126
0
LINE
8
BLACK
6
CONTINUOUS
10
5.8233956692913385
20
-3.8926496062992126
11
5.8233956692913385
21
-3.8626496062992124
0
LINE
8
BLACK
6
CONTINUOUS
10
5.8233956692913385
20
-3.8626496062992124
11
5.8383956692913381
21
-3.8626496062992124
0
LINE
8
BLACK
6
CONTINUOUS
10
5.8383956692913381
20
-3.8626496062992124
11
5.8383956692913381
21
-3.8926496062992126
0
LINE
8
BLACK
6
CONTINUOUS
10
5.8633956692913385
20
-3.8926496062992126
11
5.8483956692913388
21
-3.8926496062992126
0
LINE
8
BLACK
6
CONTINUOUS
10
5.8483956692913388
20
-3.8926496062992126
11
5.8483956692913388
21
-3.8626496062992124
0
LINE
8
BLACK
6
CONTINUOUS
10
5.8483956692913388
20
-3.8626496062992124
11
5.8633956692913385
21
-3.8626496062992124
0
LINE
8
BLACK
6
CONTINUOUS
10
5.8633956692913385
20
-3.8626496062992124
11
5.8633956692913385
21
-3.8926496062992126
0
LINE
8
BLACK
6
CONTINUOUS
10
5.8883956692913388
20
-3.8926496062992126
11
5.8733956692913383
21
-3.8926496062992126
0
LINE
8
BLACK
6
CONTINUOUS
10
5.8733956692913383
20
-3.8926496062992126
11
5.8733956692913383
21
-3.8626496062992124
0
LINE
8
BLACK
6
CONTINUOUS
10
5.8733956692913383
20
-3.8626496062992124
11
5.8883956692913388
21
-3.8626496062992124
0
LINE
8
BLACK
6
CONTINUOUS
10
5.8883956692913388
20
-3.8626496062992124
11
5.8883956692913388
21
-3.8926496062992126
0
LINE
8
BLACK
6
CONTINUOUS
10
5.9133956692913383
20
-3.8926496062992126
11
5.8983956692913386
21
-3.8926496062992126
0
LINE
8
BLACK
6
CONTINUOUS
10
5.8983956692913386
20
-3.8926496062992126
11
5.8983956692913386
21
-3.8626496062992124
0
LINE
8
BLACK
6
CONTINUOUS
10
5.8983956692913386
20
-3.8626496062992124
11
5.9133956692913383
21
-3.8626496062992124
0
LINE
8
BLACK
6
CONTINUOUS
10
5.9133956692913383
20
-3.8626496062992124
11
5.9133956692913383
21
-3.8926496062992126
0
LINE
8
BLACK
6
CONTINUOUS
10
5.9383956692913387
20
-3.8926496062992126
11
5.9233956692913381
21
-3.8926496062992126
0
LINE
8
BLACK
6
CONTINUOUS
10
5.9233956692913381
20
-3.8926496062992126
11
5.9233956692913381
21
-3.8626496062992124
0
LINE
8
BLACK
6
CONTINUOUS
10
5.9233956692913381
20
-3.8626496062992124
11
5.9383956692913387
21
-3.8626496062992124
0
LINE
8
BLACK
6
CONTINUOUS
10
5.9383956692913387
20
-3.8626496062992124
11
5.9383956692913387
21
-3.8926496062992126
0
LINE
8
BLACK
6
CONTINUOUS
10
5.9633956692913381
20
-3.8926496062992126
11
5.9483956692913385
21
-3.8926496062992126
0
LINE
8
BLACK
6
CONTINUOUS
10
5.9483956692913385
20
-3.8926496062992126
11
5.9483956692913385
21
-3.8626496062992124
0
LINE
8
BLACK
6
CONTINUOUS
10
5.9483956692913385
20
-3.8626496062992124
11
5.9633956692913381
21
-3.8626496062992124
0
LINE
8
BLACK
6
CONTINUOUS
10
5.9633956692913381
20
-3.8626496062992124
11
5.9633956692913381
21
-3.8926496062992126
0
LINE
8
BLACK
6
CONTINUOUS
10
5.9883956692913385
20
-3.8926496062992126
11
5.9733956692913388
21
-3.8926496062992126
0
LINE
8
BLACK
6
CONTINUOUS
10
5.9733956692913388
20
-3.8926496062992126
11
5.9733956692913388
21
-3.8626496062992124
0
LINE
8
BLACK
6
CONTINUOUS
10
5.9733956692913388
20
-3.8626496062992124
11
5.9883956692913385
21
-3.8626496062992124
0
LINE
8
BLACK
6
CONTINUOUS
10
5.9883956692913385
20
-3.8626496062992124
11
5.9883956692913385
21
-3.8926496062992126
0
LINE
8
BLACK
6
CONTINUOUS
10
6.0133956692913388
20
-3.8926496062992126
11
5.9983956692913383
21
-3.8926496062992126
0
LINE
8
BLACK
6
CONTINUOUS
10
5.9983956692913383
20
-3.8926496062992126
11
5.9983956692913383
21
-3.8626496062992124
0
LINE
8
BLACK
6
CONTINUOUS
10
5.9983956692913383
20
-3.8626496062992124
11
6.0133956692913388
21
-3.8626496062992124
0
LINE
8
BLACK
6
CONTINUOUS
10
6.0133956692913388
20
-3.8626496062992124
11
6.0133956692913388
21
-3.8926496062992126
0
LINE
8
BLACK
6
CONTINUOUS
10
6.0383956692913383
20
-3.8926496062992126
11
6.0233956692913386
21
-3.8926496062992126
0
LINE
8
BLACK
6
CONTINUOUS
10
6.0233956692913386
20
-3.8926496062992126
11
6.0233956692913386
21
-3.8626496062992124
0
LINE
8
BLACK
6
CONTINUOUS
10
6.0233956692913386
20
-3.8626496062992124
11
6.0383956692913383
21
-3.8626496062992124
0
LINE
8
BLACK
6
CONTINUOUS
10
6.0383956692913383
20
-3.8626496062992124
11
6.0383956692913383
21
-3.8926496062992126
0
LINE
8
BLACK
6
CONTINUOUS
10
6.0633956692913387
20
-3.8926496062992126
11
6.0483956692913381
21
-3.8926496062992126
0
LINE
8
BLACK
6
CONTINUOUS
10
6.0483956692913381
20
-3.8926496062992126
11
6.0483956692913381
21
-3.8626496062992124
0
LINE
8
BLACK
6
CONTINUOUS
10
6.0483956692913381
20
-3.8626496062992124
11
6.0633956692913387
21
-3.8626496062992124
0
LINE
8
BLACK
6
CONTINUOUS
10
6.0633956692913387
20
-3.8626496062992124
11
6.0633956692913387
21
-3.8926496062992126
0
LINE
8
BLACK
6
CONTINUOUS
10
6.0883956692913381
20
-3.8926496062992126
11
6.0733956692913385
21
-3.8926496062992126
0
LINE
8
BLACK
6
CONTINUOUS
10
6.0733956692913385
20
-3.8926496062992126
11
6.0733956692913385
21
-3.8626496062992124
0
LINE
8
BLACK
6
CONTINUOUS
10
6.0733956692913385
20
-3.8626496062992124
11
6.0883956692913381
21
-3.8626496062992124
0
LINE
8
BLACK
6
CONTINUOUS
10
6.0883956692913381
20
-3.8626496062992124
11
6.0883956692913381
21
-3.8926496062992126
0
LINE
8
BLACK
6
CONTINUOUS
10
6.1133956692913385
20
-3.8926496062992126
11
6.0983956692913388
21
-3.8926496062992126
0
LINE
8
BLACK
6
CONTINUOUS
10
6.0983956692913388
20
-3.8926496062992126
11
6.0983956692913388
21
-3.8626496062992124
0
LINE
8
BLACK
6
CONTINUOUS
10
6.0983956692913388
20
-3.8626496062992124
11
6.1133956692913385
21
-3.8626496062992124
0
LINE
8
BLACK
6
CONTINUOUS
10
6.1133956692913385
20
-3.8626496062992124
11
6.1133956692913385
21
-3.8926496062992126
0
LINE
8
BLACK
6
CONTINUOUS
10
6.1383956692913388
20
-3.8926496062992126
11
6.1233956692913383
21
-3.8926496062992126
0
LINE
8
BLACK
6
CONTINUOUS
10
6.1233956692913383
20
-3.8926496062992126
11
6.1233956692913383
21
-3.8626496062992124
0
LINE
8
BLACK
6
CONTINUOUS
10
6.1233956692913383
20
-3.8626496062992124
11
6.1383956692913388
21
-3.8626496062992124
0
LINE
8
BLACK
6
CONTINUOUS
10
6.1383956692913388
20
-3.8626496062992124
11
6.1383956692913388
21
-3.8926496062992126
  0
ENDSEC
  0
EOF
