%TF.GenerationSoftware,KiCad,Pcbnew,9.0.1*%
%TF.CreationDate,2025-07-04T14:26:17+02:00*%
%TF.ProjectId,USB_18pinOmnetics_straight,5553425f-3138-4706-996e-4f6d6e657469,rev?*%
%TF.SameCoordinates,Original*%
%TF.FileFunction,Copper,L2,Bot*%
%TF.FilePolarity,Positive*%
%FSLAX46Y46*%
G04 Gerber Fmt 4.6, Leading zero omitted, Abs format (unit mm)*
G04 Created by KiCad (PCBNEW 9.0.1) date 2025-07-04 14:26:17*
%MOMM*%
%LPD*%
G01*
G04 APERTURE LIST*
G04 Aperture macros list*
%AMRoundRect*
0 Rectangle with rounded corners*
0 $1 Rounding radius*
0 $2 $3 $4 $5 $6 $7 $8 $9 X,Y pos of 4 corners*
0 Add a 4 corners polygon primitive as box body*
4,1,4,$2,$3,$4,$5,$6,$7,$8,$9,$2,$3,0*
0 Add four circle primitives for the rounded corners*
1,1,$1+$1,$2,$3*
1,1,$1+$1,$4,$5*
1,1,$1+$1,$6,$7*
1,1,$1+$1,$8,$9*
0 Add four rect primitives between the rounded corners*
20,1,$1+$1,$2,$3,$4,$5,0*
20,1,$1+$1,$4,$5,$6,$7,0*
20,1,$1+$1,$6,$7,$8,$9,0*
20,1,$1+$1,$8,$9,$2,$3,0*%
G04 Aperture macros list end*
%TA.AperFunction,SMDPad,CuDef*%
%ADD10RoundRect,0.050000X-0.115000X-0.625000X0.115000X-0.625000X0.115000X0.625000X-0.115000X0.625000X0*%
%TD*%
%TA.AperFunction,SMDPad,CuDef*%
%ADD11RoundRect,0.120000X0.280000X0.415000X-0.280000X0.415000X-0.280000X-0.415000X0.280000X-0.415000X0*%
%TD*%
%TA.AperFunction,SMDPad,CuDef*%
%ADD12RoundRect,0.120000X-0.280000X-0.415000X0.280000X-0.415000X0.280000X0.415000X-0.280000X0.415000X0*%
%TD*%
%TA.AperFunction,ViaPad*%
%ADD13C,0.600000*%
%TD*%
%TA.AperFunction,Conductor*%
%ADD14C,0.100000*%
%TD*%
G04 APERTURE END LIST*
D10*
%TO.P,U2,12,12*%
%TO.N,unconnected-(U2-Pad12)*%
X132300000Y-103300000D03*
%TO.P,U2,13,13*%
%TO.N,unconnected-(U2-Pad13)*%
X132800000Y-103300000D03*
%TO.P,U2,14,14*%
%TO.N,Net-(J1-Pad8)*%
X133300000Y-103300000D03*
%TO.P,U2,15,15*%
%TO.N,Net-(J1-Pad9)*%
X133800000Y-103300000D03*
%TO.P,U2,16,16*%
%TO.N,Net-(J1-Pad10)*%
X134300000Y-103300000D03*
%TO.P,U2,17,17*%
%TO.N,Net-(J1-Pad11)*%
X134800000Y-103300000D03*
%TO.P,U2,18,18*%
%TO.N,Net-(J1-Pad12)*%
X135300000Y-103300000D03*
%TO.P,U2,19,19*%
%TO.N,Net-(J1-Pad13)*%
X135800000Y-103300000D03*
%TO.P,U2,20,20*%
%TO.N,Net-(J1-Pad14)*%
X136300000Y-103300000D03*
%TO.P,U2,21,21*%
%TO.N,Net-(J1-Pad15)*%
X136800000Y-103300000D03*
%TO.P,U2,22,22*%
%TO.N,unconnected-(U2-Pad22)*%
X137300000Y-103300000D03*
%TO.P,U2,23,23*%
%TO.N,unconnected-(U2-Pad23)*%
X137800000Y-103300000D03*
D11*
%TO.P,U2,26,26*%
%TO.N,GND*%
X131500000Y-102990000D03*
D12*
%TO.P,U2,27,27*%
X138600000Y-102990000D03*
%TD*%
D13*
%TO.N,GND*%
X131200000Y-101700000D03*
X139600000Y-101700000D03*
X138300000Y-98600000D03*
X132600000Y-99100000D03*
%TO.N,Net-(J1-Pad11)*%
X137500000Y-98700000D03*
%TO.N,Net-(J1-Pad9)*%
X135480000Y-99600003D03*
%TO.N,Net-(J1-Pad14)*%
X136200000Y-96000000D03*
%TO.N,Net-(J1-Pad12)*%
X137500000Y-96000000D03*
%TO.N,Net-(J1-Pad10)*%
X135480000Y-100400006D03*
%TO.N,Net-(J1-Pad13)*%
X136934313Y-95434313D03*
%TO.N,Net-(J1-Pad15)*%
X135600000Y-95400000D03*
%TO.N,Net-(J1-Pad8)*%
X135480000Y-98800000D03*
%TD*%
D14*
%TO.N,GND*%
X130900000Y-101400000D02*
X131200000Y-101700000D01*
X139600000Y-101700000D02*
X140304000Y-100996000D01*
X138300000Y-98600000D02*
X137849000Y-98149000D01*
X131200000Y-101700000D02*
X131800000Y-102300000D01*
X133551000Y-98149000D02*
X132600000Y-99100000D01*
X132118687Y-94281313D02*
X130900000Y-95500000D01*
X138684025Y-94281313D02*
X132118687Y-94281313D01*
X131800000Y-102300000D02*
X131800000Y-103000000D01*
X140304000Y-100996000D02*
X140304000Y-95901288D01*
X140304000Y-95901288D02*
X138684025Y-94281313D01*
X131800000Y-99900000D02*
X131800000Y-103000000D01*
X138300000Y-103000000D02*
X139600000Y-101700000D01*
X130900000Y-95500000D02*
X130900000Y-101400000D01*
X137849000Y-98149000D02*
X133551000Y-98149000D01*
X132600000Y-99100000D02*
X131800000Y-99900000D01*
%TO.N,Net-(J1-Pad11)*%
X134800000Y-103300000D02*
X134800000Y-101900000D01*
X134800000Y-101900000D02*
X137500000Y-99200000D01*
X137500000Y-99200000D02*
X137500000Y-98700000D01*
%TO.N,Net-(J1-Pad9)*%
X133800000Y-101280003D02*
X135480000Y-99600003D01*
X133800000Y-103300000D02*
X133800000Y-101280003D01*
%TO.N,Net-(J1-Pad14)*%
X139702000Y-96150644D02*
X138434669Y-94883313D01*
X136300000Y-102500000D02*
X139702000Y-99098000D01*
X136300000Y-103300000D02*
X136249000Y-103249000D01*
X136300000Y-103300000D02*
X136300000Y-102500000D01*
X138434669Y-94883313D02*
X136536941Y-94883313D01*
X139702000Y-99098000D02*
X139702000Y-96150644D01*
X136536941Y-94883313D02*
X136200000Y-95220254D01*
X136200000Y-95220254D02*
X136200000Y-96000000D01*
%TO.N,Net-(J1-Pad12)*%
X135300000Y-103300000D02*
X135300000Y-102500000D01*
X139100000Y-96400000D02*
X138700000Y-96000000D01*
X135300000Y-102500000D02*
X139100000Y-98700000D01*
X138700000Y-96000000D02*
X137500000Y-96000000D01*
X139100000Y-98700000D02*
X139100000Y-96400000D01*
%TO.N,Net-(J1-Pad10)*%
X134300000Y-101580006D02*
X135480000Y-100400006D01*
X134300000Y-103300000D02*
X134300000Y-101580006D01*
%TO.N,Net-(J1-Pad13)*%
X138559991Y-95434313D02*
X136934313Y-95434313D01*
X139401000Y-98899000D02*
X139401000Y-96275322D01*
X135800000Y-103300000D02*
X135800000Y-102500000D01*
X139401000Y-96275322D02*
X138559991Y-95434313D01*
X135800000Y-102500000D02*
X139401000Y-98899000D01*
%TO.N,Net-(J1-Pad15)*%
X140003000Y-99297000D02*
X140003000Y-96025966D01*
X135600000Y-95394576D02*
X135600000Y-95400000D01*
X140003000Y-96025966D02*
X138559347Y-94582313D01*
X136412263Y-94582313D02*
X135600000Y-95394576D01*
X136800000Y-103300000D02*
X136800000Y-102500000D01*
X136800000Y-102500000D02*
X140003000Y-99297000D01*
X138559347Y-94582313D02*
X136412263Y-94582313D01*
%TO.N,Net-(J1-Pad8)*%
X133300000Y-103300000D02*
X133300000Y-100980000D01*
X133300000Y-100980000D02*
X135480000Y-98800000D01*
%TD*%
M02*
