G04 #@! TF.GenerationSoftware,KiCad,Pcbnew,9.0.1*
G04 #@! TF.CreationDate,2025-05-15T23:31:47+02:00*
G04 #@! TF.ProjectId,short flex with bend,73686f72-7420-4666-9c65-782077697468,rev?*
G04 #@! TF.SameCoordinates,Original*
G04 #@! TF.FileFunction,Soldermask,Top*
G04 #@! TF.FilePolarity,Negative*
%FSLAX46Y46*%
G04 Gerber Fmt 4.6, Leading zero omitted, Abs format (unit mm)*
G04 Created by KiCad (PCBNEW 9.0.1) date 2025-05-15 23:31:47*
%MOMM*%
%LPD*%
G01*
G04 APERTURE LIST*
G04 Aperture macros list*
%AMRoundRect*
0 Rectangle with rounded corners*
0 $1 Rounding radius*
0 $2 $3 $4 $5 $6 $7 $8 $9 X,Y pos of 4 corners*
0 Add a 4 corners polygon primitive as box body*
4,1,4,$2,$3,$4,$5,$6,$7,$8,$9,$2,$3,0*
0 Add four circle primitives for the rounded corners*
1,1,$1+$1,$2,$3*
1,1,$1+$1,$4,$5*
1,1,$1+$1,$6,$7*
1,1,$1+$1,$8,$9*
0 Add four rect primitives between the rounded corners*
20,1,$1+$1,$2,$3,$4,$5,0*
20,1,$1+$1,$4,$5,$6,$7,0*
20,1,$1+$1,$6,$7,$8,$9,0*
20,1,$1+$1,$8,$9,$2,$3,0*%
G04 Aperture macros list end*
%ADD10RoundRect,0.102000X-1.000000X0.150000X-1.000000X-0.150000X1.000000X-0.150000X1.000000X0.150000X0*%
%ADD11RoundRect,0.050000X-0.115000X-0.625000X0.115000X-0.625000X0.115000X0.625000X-0.115000X0.625000X0*%
%ADD12RoundRect,0.120000X0.280000X0.415000X-0.280000X0.415000X-0.280000X-0.415000X0.280000X-0.415000X0*%
%ADD13RoundRect,0.120000X-0.280000X-0.415000X0.280000X-0.415000X0.280000X0.415000X-0.280000X0.415000X0*%
G04 APERTURE END LIST*
D10*
X163000000Y-84100000D03*
X163000000Y-83600000D03*
X163000000Y-83100000D03*
X163000000Y-82600000D03*
X163000000Y-82100000D03*
X163000000Y-81600000D03*
X163000000Y-81100000D03*
X163000000Y-80600000D03*
X163000000Y-80100000D03*
X163000000Y-79600000D03*
X163000000Y-79100000D03*
X163000000Y-78600000D03*
X163000000Y-78100000D03*
X163000000Y-77600000D03*
X163000000Y-77100000D03*
X163000000Y-76600000D03*
X163000000Y-76100000D03*
X163000000Y-75600000D03*
X163000000Y-75100000D03*
X163000000Y-74600000D03*
X163000000Y-74100000D03*
X163000000Y-73600000D03*
X163000000Y-73100000D03*
X163000000Y-72600000D03*
X163000000Y-72100000D03*
X163000000Y-71600000D03*
D11*
X132560000Y-95225000D03*
X133060000Y-95225000D03*
X133560000Y-95225000D03*
X134060000Y-95225000D03*
X134560000Y-95225000D03*
X135060000Y-95225000D03*
X135560000Y-95225000D03*
X136060000Y-95225000D03*
X136560000Y-95225000D03*
X137060000Y-95225000D03*
X137560000Y-95225000D03*
X138060000Y-95225000D03*
D12*
X131760000Y-94915000D03*
D13*
X138860000Y-94915000D03*
M02*
