G04 #@! TF.GenerationSoftware,KiCad,Pcbnew,9.0.1*
G04 #@! TF.CreationDate,2025-05-16T11:50:47+02:00*
G04 #@! TF.ProjectId,long flex with bend,6c6f6e67-2066-46c6-9578-207769746820,rev?*
G04 #@! TF.SameCoordinates,Original*
G04 #@! TF.FileFunction,Profile,NP*
%FSLAX46Y46*%
G04 Gerber Fmt 4.6, Leading zero omitted, Abs format (unit mm)*
G04 Created by KiCad (PCBNEW 9.0.1) date 2025-05-16 11:50:47*
%MOMM*%
%LPD*%
G01*
G04 APERTURE LIST*
G04 #@! TA.AperFunction,Profile*
%ADD10C,0.050000*%
G04 #@! TD*
G04 APERTURE END LIST*
D10*
X148000000Y-80400000D02*
X190500000Y-80400000D01*
X147000000Y-75550000D02*
X189250000Y-75550000D01*
X147000000Y-86600000D02*
G75*
G02*
X146000000Y-87600000I-1000000J0D01*
G01*
X132062500Y-96200000D02*
X132062500Y-96600000D01*
X138562500Y-96200000D02*
X138562500Y-96600000D01*
X139250000Y-92400000D02*
G75*
G02*
X138750000Y-92400000I-250000J0D01*
G01*
X138750000Y-92400000D02*
G75*
G02*
X139250000Y-92400000I250000J0D01*
G01*
X140600000Y-83400000D02*
G75*
G02*
X139600000Y-82400000I0J1000000D01*
G01*
X142500000Y-82400000D02*
X142500000Y-76600000D01*
X140600000Y-83400000D02*
X141500000Y-83400000D01*
X197250000Y-75550000D02*
X189250000Y-75550000D01*
X139600000Y-70500000D02*
X130875000Y-70500000D01*
X197250000Y-80400000D02*
G75*
G02*
X198250000Y-81400000I0J-1000000D01*
G01*
X190500000Y-80400000D02*
X197250000Y-80400000D01*
X140625000Y-87600000D02*
X146000000Y-87600000D01*
X132062500Y-95650000D02*
G75*
G02*
X132062500Y-96200000I0J-275000D01*
G01*
X131750000Y-91200000D02*
G75*
G02*
X131250000Y-91200000I-250000J0D01*
G01*
X131250000Y-91200000D02*
G75*
G02*
X131750000Y-91200000I250000J0D01*
G01*
X198250000Y-74550000D02*
G75*
G02*
X197250000Y-75550000I-1000000J0D01*
G01*
X147000000Y-86600000D02*
X147000000Y-81400000D01*
X132062500Y-95650000D02*
X130875000Y-95650000D01*
X138562500Y-95650000D02*
X139625000Y-95650000D01*
X138562500Y-96200000D02*
G75*
G02*
X138562500Y-95650000I0J275000D01*
G01*
X198250000Y-81400000D02*
X198250000Y-84850000D01*
X198250000Y-70850000D02*
X198250000Y-74550000D01*
X147000000Y-81400000D02*
G75*
G02*
X148000000Y-80400000I1000000J0D01*
G01*
X131750000Y-92400000D02*
G75*
G02*
X131250000Y-92400000I-250000J0D01*
G01*
X131250000Y-92400000D02*
G75*
G02*
X131750000Y-92400000I250000J0D01*
G01*
X206625000Y-84850000D02*
X206625000Y-70850000D01*
X198250000Y-84850000D02*
X206625000Y-84850000D01*
X139600000Y-82400000D02*
X139600000Y-70500000D01*
X138562500Y-96600000D02*
X132062500Y-96600000D01*
X142498810Y-76600000D02*
G75*
G02*
X143500000Y-75550000I1051190J0D01*
G01*
X206625000Y-70850000D02*
X198250000Y-70850000D01*
X142500000Y-82400000D02*
G75*
G02*
X141500000Y-83400000I-1000000J0D01*
G01*
X139250000Y-91200000D02*
G75*
G02*
X138750000Y-91200000I-250000J0D01*
G01*
X138750000Y-91200000D02*
G75*
G02*
X139250000Y-91200000I250000J0D01*
G01*
X139625000Y-95650000D02*
X139625000Y-88600000D01*
X139625000Y-88600000D02*
G75*
G02*
X140625000Y-87600000I1000000J0D01*
G01*
X147000000Y-75550000D02*
X143500000Y-75550000D01*
X130875000Y-95650000D02*
X130875000Y-70500000D01*
M02*
