  0
SECTION
  2
HEADER
  9
$ANGBASE
  50
0.0
  9
$ANGDIR
  70
1
  9
$MEASUREMENT
  70
0
  0
ENDSEC
  0
SECTION
  2
TABLES
  0
TABLE
  2
LTYPE
  70
4
  0
LTYPE
  5
40F
  2
CONTINUOUS
  70
0
  3
Solid line
  72
65
  73
0
  40
0.0
  0
LTYPE
  5
410
  2
DASHDOT
 70
0
  3
Dash Dot ____ _ ____ _
 72
65
 73
4
 40
2.0
 49
1.25
 49
-0.25
 49
0.25
 49
-0.25
  0
LTYPE
  5
411
  2
DASHED
 70
0
  3
Dashed __ __ __ __ __
 72
65
 73
2
 40
0.75
 49
0.5
 49
-0.25
  0
LTYPE
  5
43B
  2
DOTTED
 70
0
  3
Dotted .  .  .  .
 72
65
 73
2
 40
0.2
 49
0.0
 49
-0.2
  0
ENDTAB
  0
TABLE
  2
STYLE
  70
4
  0
STYLE
  2
KICAD
  70
0
  40
0
  41
1
  42
1
  50
0
  71
0
  3
isocp.shx
  0
STYLE
  2
KICADB
  70
0
  40
0
  41
1
  42
1
  50
0
  71
0
  3
isocp.shx
  0
STYLE
  2
KICADI
  70
0
  40
0
  41
1
  42
1
  50
15
  71
0
  3
isocp.shx
  0
STYLE
  2
KICADBI
  70
0
  40
0
  41
1
  42
1
  50
15
  71
0
  3
isocp.shx
  0
ENDTAB
  0
TABLE
  2
LAYER
  70
1
  0
LAYER
  2
BLACK
  70
0
  62
7
  6
CONTINUOUS
  0
ENDTAB
  0
ENDSEC
  0
SECTION
  2
ENTITIES
0
LINE
8
BLACK
6
CONTINUOUS
10
5.0374015748031491
20
-3.4606299212598426
11
4.9586614173228343
21
-3.4606299212598426
0
LINE
8
BLACK
6
CONTINUOUS
10
4.9586614173228343
20
-3.4606299212598426
11
4.9586614173228343
21
-3.3897637795275588
0
LINE
8
BLACK
6
CONTINUOUS
10
4.9586614173228343
20
-3.3897637795275588
11
5.0374015748031491
21
-3.3897637795275588
0
LINE
8
BLACK
6
CONTINUOUS
10
5.0374015748031491
20
-3.3897637795275588
11
5.0374015748031491
21
-3.4606299212598426
0
LINE
8
BLACK
6
CONTINUOUS
10
5.6712598425196852
20
-3.4606299212598426
11
5.5925196850393704
21
-3.4606299212598426
0
LINE
8
BLACK
6
CONTINUOUS
10
5.5925196850393704
20
-3.4606299212598426
11
5.5925196850393704
21
-3.3897637795275588
0
LINE
8
BLACK
6
CONTINUOUS
10
5.5925196850393704
20
-3.3897637795275588
11
5.6712598425196852
21
-3.3897637795275588
0
LINE
8
BLACK
6
CONTINUOUS
10
5.6712598425196852
20
-3.3897637795275588
11
5.6712598425196852
21
-3.4606299212598426
0
LINE
8
BLACK
6
CONTINUOUS
10
5.0748031496062991
20
-3.3425196850393699
11
5.0629921259842519
21
-3.3425196850393699
0
LINE
8
BLACK
6
CONTINUOUS
10
5.0629921259842519
20
-3.3425196850393699
11
5.0629921259842519
21
-3.2913385826771653
0
LINE
8
BLACK
6
CONTINUOUS
10
5.0629921259842519
20
-3.2913385826771653
11
5.0748031496062991
21
-3.2913385826771653
0
LINE
8
BLACK
6
CONTINUOUS
10
5.0748031496062991
20
-3.2913385826771653
11
5.0748031496062991
21
-3.3425196850393699
0
LINE
8
BLACK
6
CONTINUOUS
10
5.0944881889763778
20
-3.3425196850393699
11
5.0826771653543306
21
-3.3425196850393699
0
LINE
8
BLACK
6
CONTINUOUS
10
5.0826771653543306
20
-3.3425196850393699
11
5.0826771653543306
21
-3.2913385826771653
0
LINE
8
BLACK
6
CONTINUOUS
10
5.0826771653543306
20
-3.2913385826771653
11
5.0944881889763778
21
-3.2913385826771653
0
LINE
8
BLACK
6
CONTINUOUS
10
5.0944881889763778
20
-3.2913385826771653
11
5.0944881889763778
21
-3.3425196850393699
0
LINE
8
BLACK
6
CONTINUOUS
10
5.1141732283464565
20
-3.3425196850393699
11
5.1023622047244093
21
-3.3425196850393699
0
LINE
8
BLACK
6
CONTINUOUS
10
5.1023622047244093
20
-3.3425196850393699
11
5.1023622047244093
21
-3.2913385826771653
0
LINE
8
BLACK
6
CONTINUOUS
10
5.1023622047244093
20
-3.2913385826771653
11
5.1141732283464565
21
-3.2913385826771653
0
LINE
8
BLACK
6
CONTINUOUS
10
5.1141732283464565
20
-3.2913385826771653
11
5.1141732283464565
21
-3.3425196850393699
0
LINE
8
BLACK
6
CONTINUOUS
10
5.1338582677165352
20
-3.3425196850393699
11
5.122047244094488
21
-3.3425196850393699
0
LINE
8
BLACK
6
CONTINUOUS
10
5.122047244094488
20
-3.3425196850393699
11
5.122047244094488
21
-3.2913385826771653
0
LINE
8
BLACK
6
CONTINUOUS
10
5.122047244094488
20
-3.2913385826771653
11
5.1338582677165352
21
-3.2913385826771653
0
LINE
8
BLACK
6
CONTINUOUS
10
5.1338582677165352
20
-3.2913385826771653
11
5.1338582677165352
21
-3.3425196850393699
0
LINE
8
BLACK
6
CONTINUOUS
10
5.1535433070866139
20
-3.3425196850393699
11
5.1417322834645667
21
-3.3425196850393699
0
LINE
8
BLACK
6
CONTINUOUS
10
5.1417322834645667
20
-3.3425196850393699
11
5.1417322834645667
21
-3.2913385826771653
0
LINE
8
BLACK
6
CONTINUOUS
10
5.1417322834645667
20
-3.2913385826771653
11
5.1535433070866139
21
-3.2913385826771653
0
LINE
8
BLACK
6
CONTINUOUS
10
5.1535433070866139
20
-3.2913385826771653
11
5.1535433070866139
21
-3.3425196850393699
0
LINE
8
BLACK
6
CONTINUOUS
10
5.1732283464566926
20
-3.3425196850393699
11
5.1614173228346454
21
-3.3425196850393699
0
LINE
8
BLACK
6
CONTINUOUS
10
5.1614173228346454
20
-3.3425196850393699
11
5.1614173228346454
21
-3.2913385826771653
0
LINE
8
BLACK
6
CONTINUOUS
10
5.1614173228346454
20
-3.2913385826771653
11
5.1732283464566926
21
-3.2913385826771653
0
LINE
8
BLACK
6
CONTINUOUS
10
5.1732283464566926
20
-3.2913385826771653
11
5.1732283464566926
21
-3.3425196850393699
0
LINE
8
BLACK
6
CONTINUOUS
10
5.1929133858267713
20
-3.3425196850393699
11
5.1811023622047241
21
-3.3425196850393699
0
LINE
8
BLACK
6
CONTINUOUS
10
5.1811023622047241
20
-3.3425196850393699
11
5.1811023622047241
21
-3.2913385826771653
0
LINE
8
BLACK
6
CONTINUOUS
10
5.1811023622047241
20
-3.2913385826771653
11
5.1929133858267713
21
-3.2913385826771653
0
LINE
8
BLACK
6
CONTINUOUS
10
5.1929133858267713
20
-3.2913385826771653
11
5.1929133858267713
21
-3.3425196850393699
0
LINE
8
BLACK
6
CONTINUOUS
10
5.21259842519685
20
-3.3425196850393699
11
5.2007874015748028
21
-3.3425196850393699
0
LINE
8
BLACK
6
CONTINUOUS
10
5.2007874015748028
20
-3.3425196850393699
11
5.2007874015748028
21
-3.2913385826771653
0
LINE
8
BLACK
6
CONTINUOUS
10
5.2007874015748028
20
-3.2913385826771653
11
5.21259842519685
21
-3.2913385826771653
0
LINE
8
BLACK
6
CONTINUOUS
10
5.21259842519685
20
-3.2913385826771653
11
5.21259842519685
21
-3.3425196850393699
0
LINE
8
BLACK
6
CONTINUOUS
10
5.2322834645669287
20
-3.3425196850393699
11
5.2204724409448815
21
-3.3425196850393699
0
LINE
8
BLACK
6
CONTINUOUS
10
5.2204724409448815
20
-3.3425196850393699
11
5.2204724409448815
21
-3.2913385826771653
0
LINE
8
BLACK
6
CONTINUOUS
10
5.2204724409448815
20
-3.2913385826771653
11
5.2322834645669287
21
-3.2913385826771653
0
LINE
8
BLACK
6
CONTINUOUS
10
5.2322834645669287
20
-3.2913385826771653
11
5.2322834645669287
21
-3.3425196850393699
0
LINE
8
BLACK
6
CONTINUOUS
10
5.2519685039370074
20
-3.3425196850393699
11
5.2401574803149602
21
-3.3425196850393699
0
LINE
8
BLACK
6
CONTINUOUS
10
5.2401574803149602
20
-3.3425196850393699
11
5.2401574803149602
21
-3.2913385826771653
0
LINE
8
BLACK
6
CONTINUOUS
10
5.2401574803149602
20
-3.2913385826771653
11
5.2519685039370074
21
-3.2913385826771653
0
LINE
8
BLACK
6
CONTINUOUS
10
5.2519685039370074
20
-3.2913385826771653
11
5.2519685039370074
21
-3.3425196850393699
0
LINE
8
BLACK
6
CONTINUOUS
10
5.2716535433070861
20
-3.3425196850393699
11
5.2598425196850389
21
-3.3425196850393699
0
LINE
8
BLACK
6
CONTINUOUS
10
5.2598425196850389
20
-3.3425196850393699
11
5.2598425196850389
21
-3.2913385826771653
0
LINE
8
BLACK
6
CONTINUOUS
10
5.2598425196850389
20
-3.2913385826771653
11
5.2716535433070861
21
-3.2913385826771653
0
LINE
8
BLACK
6
CONTINUOUS
10
5.2716535433070861
20
-3.2913385826771653
11
5.2716535433070861
21
-3.3425196850393699
0
LINE
8
BLACK
6
CONTINUOUS
10
5.2913385826771648
20
-3.3425196850393699
11
5.2795275590551176
21
-3.3425196850393699
0
LINE
8
BLACK
6
CONTINUOUS
10
5.2795275590551176
20
-3.3425196850393699
11
5.2795275590551176
21
-3.2913385826771653
0
LINE
8
BLACK
6
CONTINUOUS
10
5.2795275590551176
20
-3.2913385826771653
11
5.2913385826771648
21
-3.2913385826771653
0
LINE
8
BLACK
6
CONTINUOUS
10
5.2913385826771648
20
-3.2913385826771653
11
5.2913385826771648
21
-3.3425196850393699
0
LINE
8
BLACK
6
CONTINUOUS
10
5.3110236220472435
20
-3.3425196850393699
11
5.2992125984251963
21
-3.3425196850393699
0
LINE
8
BLACK
6
CONTINUOUS
10
5.2992125984251963
20
-3.3425196850393699
11
5.2992125984251963
21
-3.2913385826771653
0
LINE
8
BLACK
6
CONTINUOUS
10
5.2992125984251963
20
-3.2913385826771653
11
5.3110236220472435
21
-3.2913385826771653
0
LINE
8
BLACK
6
CONTINUOUS
10
5.3110236220472435
20
-3.2913385826771653
11
5.3110236220472435
21
-3.3425196850393699
0
LINE
8
BLACK
6
CONTINUOUS
10
5.3307086614173231
20
-3.3425196850393699
11
5.3188976377952759
21
-3.3425196850393699
0
LINE
8
BLACK
6
CONTINUOUS
10
5.3188976377952759
20
-3.3425196850393699
11
5.3188976377952759
21
-3.2913385826771653
0
LINE
8
BLACK
6
CONTINUOUS
10
5.3188976377952759
20
-3.2913385826771653
11
5.3307086614173231
21
-3.2913385826771653
0
LINE
8
BLACK
6
CONTINUOUS
10
5.3307086614173231
20
-3.2913385826771653
11
5.3307086614173231
21
-3.3425196850393699
0
LINE
8
BLACK
6
CONTINUOUS
10
5.3503937007874018
20
-3.3425196850393699
11
5.3385826771653546
21
-3.3425196850393699
0
LINE
8
BLACK
6
CONTINUOUS
10
5.3385826771653546
20
-3.3425196850393699
11
5.3385826771653546
21
-3.2913385826771653
0
LINE
8
BLACK
6
CONTINUOUS
10
5.3385826771653546
20
-3.2913385826771653
11
5.3503937007874018
21
-3.2913385826771653
0
LINE
8
BLACK
6
CONTINUOUS
10
5.3503937007874018
20
-3.2913385826771653
11
5.3503937007874018
21
-3.3425196850393699
0
LINE
8
BLACK
6
CONTINUOUS
10
5.3700787401574805
20
-3.3425196850393699
11
5.3582677165354333
21
-3.3425196850393699
0
LINE
8
BLACK
6
CONTINUOUS
10
5.3582677165354333
20
-3.3425196850393699
11
5.3582677165354333
21
-3.2913385826771653
0
LINE
8
BLACK
6
CONTINUOUS
10
5.3582677165354333
20
-3.2913385826771653
11
5.3700787401574805
21
-3.2913385826771653
0
LINE
8
BLACK
6
CONTINUOUS
10
5.3700787401574805
20
-3.2913385826771653
11
5.3700787401574805
21
-3.3425196850393699
0
LINE
8
BLACK
6
CONTINUOUS
10
5.3897637795275593
20
-3.3425196850393699
11
5.377952755905512
21
-3.3425196850393699
0
LINE
8
BLACK
6
CONTINUOUS
10
5.377952755905512
20
-3.3425196850393699
11
5.377952755905512
21
-3.2913385826771653
0
LINE
8
BLACK
6
CONTINUOUS
10
5.377952755905512
20
-3.2913385826771653
11
5.3897637795275593
21
-3.2913385826771653
0
LINE
8
BLACK
6
CONTINUOUS
10
5.3897637795275593
20
-3.2913385826771653
11
5.3897637795275593
21
-3.3425196850393699
0
LINE
8
BLACK
6
CONTINUOUS
10
5.409448818897638
20
-3.3425196850393699
11
5.3976377952755907
21
-3.3425196850393699
0
LINE
8
BLACK
6
CONTINUOUS
10
5.3976377952755907
20
-3.3425196850393699
11
5.3976377952755907
21
-3.2913385826771653
0
LINE
8
BLACK
6
CONTINUOUS
10
5.3976377952755907
20
-3.2913385826771653
11
5.409448818897638
21
-3.2913385826771653
0
LINE
8
BLACK
6
CONTINUOUS
10
5.409448818897638
20
-3.2913385826771653
11
5.409448818897638
21
-3.3425196850393699
0
LINE
8
BLACK
6
CONTINUOUS
10
5.4291338582677167
20
-3.3425196850393699
11
5.4173228346456694
21
-3.3425196850393699
0
LINE
8
BLACK
6
CONTINUOUS
10
5.4173228346456694
20
-3.3425196850393699
11
5.4173228346456694
21
-3.2913385826771653
0
LINE
8
BLACK
6
CONTINUOUS
10
5.4173228346456694
20
-3.2913385826771653
11
5.4291338582677167
21
-3.2913385826771653
0
LINE
8
BLACK
6
CONTINUOUS
10
5.4291338582677167
20
-3.2913385826771653
11
5.4291338582677167
21
-3.3425196850393699
0
LINE
8
BLACK
6
CONTINUOUS
10
5.4488188976377954
20
-3.3425196850393699
11
5.4370078740157481
21
-3.3425196850393699
0
LINE
8
BLACK
6
CONTINUOUS
10
5.4370078740157481
20
-3.3425196850393699
11
5.4370078740157481
21
-3.2913385826771653
0
LINE
8
BLACK
6
CONTINUOUS
10
5.4370078740157481
20
-3.2913385826771653
11
5.4488188976377954
21
-3.2913385826771653
0
LINE
8
BLACK
6
CONTINUOUS
10
5.4488188976377954
20
-3.2913385826771653
11
5.4488188976377954
21
-3.3425196850393699
0
LINE
8
BLACK
6
CONTINUOUS
10
5.4685039370078741
20
-3.3425196850393699
11
5.4566929133858268
21
-3.3425196850393699
0
LINE
8
BLACK
6
CONTINUOUS
10
5.4566929133858268
20
-3.3425196850393699
11
5.4566929133858268
21
-3.2913385826771653
0
LINE
8
BLACK
6
CONTINUOUS
10
5.4566929133858268
20
-3.2913385826771653
11
5.4685039370078741
21
-3.2913385826771653
0
LINE
8
BLACK
6
CONTINUOUS
10
5.4685039370078741
20
-3.2913385826771653
11
5.4685039370078741
21
-3.3425196850393699
0
LINE
8
BLACK
6
CONTINUOUS
10
5.4881889763779528
20
-3.3425196850393699
11
5.4763779527559056
21
-3.3425196850393699
0
LINE
8
BLACK
6
CONTINUOUS
10
5.4763779527559056
20
-3.3425196850393699
11
5.4763779527559056
21
-3.2913385826771653
0
LINE
8
BLACK
6
CONTINUOUS
10
5.4763779527559056
20
-3.2913385826771653
11
5.4881889763779528
21
-3.2913385826771653
0
LINE
8
BLACK
6
CONTINUOUS
10
5.4881889763779528
20
-3.2913385826771653
11
5.4881889763779528
21
-3.3425196850393699
0
LINE
8
BLACK
6
CONTINUOUS
10
5.5078740157480315
20
-3.3425196850393699
11
5.4960629921259843
21
-3.3425196850393699
0
LINE
8
BLACK
6
CONTINUOUS
10
5.4960629921259843
20
-3.3425196850393699
11
5.4960629921259843
21
-3.2913385826771653
0
LINE
8
BLACK
6
CONTINUOUS
10
5.4960629921259843
20
-3.2913385826771653
11
5.5078740157480315
21
-3.2913385826771653
0
LINE
8
BLACK
6
CONTINUOUS
10
5.5078740157480315
20
-3.2913385826771653
11
5.5078740157480315
21
-3.3425196850393699
0
LINE
8
BLACK
6
CONTINUOUS
10
5.5275590551181102
20
-3.3425196850393699
11
5.515748031496063
21
-3.3425196850393699
0
LINE
8
BLACK
6
CONTINUOUS
10
5.515748031496063
20
-3.3425196850393699
11
5.515748031496063
21
-3.2913385826771653
0
LINE
8
BLACK
6
CONTINUOUS
10
5.515748031496063
20
-3.2913385826771653
11
5.5275590551181102
21
-3.2913385826771653
0
LINE
8
BLACK
6
CONTINUOUS
10
5.5275590551181102
20
-3.2913385826771653
11
5.5275590551181102
21
-3.3425196850393699
0
LINE
8
BLACK
6
CONTINUOUS
10
5.5472440944881889
20
-3.3425196850393699
11
5.5354330708661417
21
-3.3425196850393699
0
LINE
8
BLACK
6
CONTINUOUS
10
5.5354330708661417
20
-3.3425196850393699
11
5.5354330708661417
21
-3.2913385826771653
0
LINE
8
BLACK
6
CONTINUOUS
10
5.5354330708661417
20
-3.2913385826771653
11
5.5472440944881889
21
-3.2913385826771653
0
LINE
8
BLACK
6
CONTINUOUS
10
5.5472440944881889
20
-3.2913385826771653
11
5.5472440944881889
21
-3.3425196850393699
0
LINE
8
BLACK
6
CONTINUOUS
10
5.5669291338582676
20
-3.3425196850393699
11
5.5551181102362204
21
-3.3425196850393699
0
LINE
8
BLACK
6
CONTINUOUS
10
5.5551181102362204
20
-3.3425196850393699
11
5.5551181102362204
21
-3.2913385826771653
0
LINE
8
BLACK
6
CONTINUOUS
10
5.5551181102362204
20
-3.2913385826771653
11
5.5669291338582676
21
-3.2913385826771653
0
LINE
8
BLACK
6
CONTINUOUS
10
5.5669291338582676
20
-3.2913385826771653
11
5.5669291338582676
21
-3.3425196850393699
0
LINE
8
BLACK
6
CONTINUOUS
10
5.2271653543307082
20
-3.1834645669291337
11
5.2122047244094487
21
-3.1834645669291337
0
LINE
8
BLACK
6
CONTINUOUS
10
5.2122047244094487
20
-3.1834645669291337
11
5.2122047244094487
21
-3.1535433070866139
0
LINE
8
BLACK
6
CONTINUOUS
10
5.2122047244094487
20
-3.1535433070866139
11
5.2271653543307082
21
-3.1535433070866139
0
LINE
8
BLACK
6
CONTINUOUS
10
5.2271653543307082
20
-3.1535433070866139
11
5.2271653543307082
21
-3.1834645669291337
0
LINE
8
BLACK
6
CONTINUOUS
10
5.2523622047244096
20
-3.1834645669291337
11
5.2374015748031493
21
-3.1834645669291337
0
LINE
8
BLACK
6
CONTINUOUS
10
5.2374015748031493
20
-3.1834645669291337
11
5.2374015748031493
21
-3.1535433070866139
0
LINE
8
BLACK
6
CONTINUOUS
10
5.2374015748031493
20
-3.1535433070866139
11
5.2523622047244096
21
-3.1535433070866139
0
LINE
8
BLACK
6
CONTINUOUS
10
5.2523622047244096
20
-3.1535433070866139
11
5.2523622047244096
21
-3.1834645669291337
0
LINE
8
BLACK
6
CONTINUOUS
10
5.2775590551181102
20
-3.1834645669291337
11
5.2625984251968498
21
-3.1834645669291337
0
LINE
8
BLACK
6
CONTINUOUS
10
5.2625984251968498
20
-3.1834645669291337
11
5.2625984251968498
21
-3.1535433070866139
0
LINE
8
BLACK
6
CONTINUOUS
10
5.2625984251968498
20
-3.1535433070866139
11
5.2775590551181102
21
-3.1535433070866139
0
LINE
8
BLACK
6
CONTINUOUS
10
5.2775590551181102
20
-3.1535433070866139
11
5.2775590551181102
21
-3.1834645669291337
0
LINE
8
BLACK
6
CONTINUOUS
10
5.3027559055118108
20
-3.1834645669291337
11
5.2877952755905513
21
-3.1834645669291337
0
LINE
8
BLACK
6
CONTINUOUS
10
5.2877952755905513
20
-3.1834645669291337
11
5.2877952755905513
21
-3.1535433070866139
0
LINE
8
BLACK
6
CONTINUOUS
10
5.2877952755905513
20
-3.1535433070866139
11
5.3027559055118108
21
-3.1535433070866139
0
LINE
8
BLACK
6
CONTINUOUS
10
5.3027559055118108
20
-3.1535433070866139
11
5.3027559055118108
21
-3.1834645669291337
0
LINE
8
BLACK
6
CONTINUOUS
10
5.3279527559055113
20
-3.1834645669291337
11
5.3129921259842519
21
-3.1834645669291337
0
LINE
8
BLACK
6
CONTINUOUS
10
5.3129921259842519
20
-3.1834645669291337
11
5.3129921259842519
21
-3.1535433070866139
0
LINE
8
BLACK
6
CONTINUOUS
10
5.3129921259842519
20
-3.1535433070866139
11
5.3279527559055113
21
-3.1535433070866139
0
LINE
8
BLACK
6
CONTINUOUS
10
5.3279527559055113
20
-3.1535433070866139
11
5.3279527559055113
21
-3.1834645669291337
0
LINE
8
BLACK
6
CONTINUOUS
10
5.3531496062992128
20
-3.1834645669291337
11
5.3381889763779524
21
-3.1834645669291337
0
LINE
8
BLACK
6
CONTINUOUS
10
5.3381889763779524
20
-3.1834645669291337
11
5.3381889763779524
21
-3.1535433070866139
0
LINE
8
BLACK
6
CONTINUOUS
10
5.3381889763779524
20
-3.1535433070866139
11
5.3531496062992128
21
-3.1535433070866139
0
LINE
8
BLACK
6
CONTINUOUS
10
5.3531496062992128
20
-3.1535433070866139
11
5.3531496062992128
21
-3.1834645669291337
0
LINE
8
BLACK
6
CONTINUOUS
10
5.3783464566929133
20
-3.1834645669291337
11
5.363385826771653
21
-3.1834645669291337
0
LINE
8
BLACK
6
CONTINUOUS
10
5.363385826771653
20
-3.1834645669291337
11
5.363385826771653
21
-3.1535433070866139
0
LINE
8
BLACK
6
CONTINUOUS
10
5.363385826771653
20
-3.1535433070866139
11
5.3783464566929133
21
-3.1535433070866139
0
LINE
8
BLACK
6
CONTINUOUS
10
5.3783464566929133
20
-3.1535433070866139
11
5.3783464566929133
21
-3.1834645669291337
0
LINE
8
BLACK
6
CONTINUOUS
10
5.4035433070866139
20
-3.1834645669291337
11
5.3885826771653544
21
-3.1834645669291337
0
LINE
8
BLACK
6
CONTINUOUS
10
5.3885826771653544
20
-3.1834645669291337
11
5.3885826771653544
21
-3.1535433070866139
0
LINE
8
BLACK
6
CONTINUOUS
10
5.3885826771653544
20
-3.1535433070866139
11
5.4035433070866139
21
-3.1535433070866139
0
LINE
8
BLACK
6
CONTINUOUS
10
5.4035433070866139
20
-3.1535433070866139
11
5.4035433070866139
21
-3.1834645669291337
0
LINE
8
BLACK
6
CONTINUOUS
10
5.2019685039370076
20
-3.1464566929133859
11
5.1870078740157481
21
-3.1464566929133859
0
LINE
8
BLACK
6
CONTINUOUS
10
5.1870078740157481
20
-3.1464566929133859
11
5.1870078740157481
21
-3.1165354330708661
0
LINE
8
BLACK
6
CONTINUOUS
10
5.1870078740157481
20
-3.1165354330708661
11
5.2019685039370076
21
-3.1165354330708661
0
LINE
8
BLACK
6
CONTINUOUS
10
5.2019685039370076
20
-3.1165354330708661
11
5.2019685039370076
21
-3.1464566929133859
0
LINE
8
BLACK
6
CONTINUOUS
10
5.2271653543307082
20
-3.1464566929133859
11
5.2122047244094487
21
-3.1464566929133859
0
LINE
8
BLACK
6
CONTINUOUS
10
5.2122047244094487
20
-3.1464566929133859
11
5.2122047244094487
21
-3.1165354330708661
0
LINE
8
BLACK
6
CONTINUOUS
10
5.2122047244094487
20
-3.1165354330708661
11
5.2271653543307082
21
-3.1165354330708661
0
LINE
8
BLACK
6
CONTINUOUS
10
5.2271653543307082
20
-3.1165354330708661
11
5.2271653543307082
21
-3.1464566929133859
0
LINE
8
BLACK
6
CONTINUOUS
10
5.2523622047244096
20
-3.1464566929133859
11
5.2374015748031493
21
-3.1464566929133859
0
LINE
8
BLACK
6
CONTINUOUS
10
5.2374015748031493
20
-3.1464566929133859
11
5.2374015748031493
21
-3.1165354330708661
0
LINE
8
BLACK
6
CONTINUOUS
10
5.2374015748031493
20
-3.1165354330708661
11
5.2523622047244096
21
-3.1165354330708661
0
LINE
8
BLACK
6
CONTINUOUS
10
5.2523622047244096
20
-3.1165354330708661
11
5.2523622047244096
21
-3.1464566929133859
0
LINE
8
BLACK
6
CONTINUOUS
10
5.2775590551181102
20
-3.1464566929133859
11
5.2625984251968498
21
-3.1464566929133859
0
LINE
8
BLACK
6
CONTINUOUS
10
5.2625984251968498
20
-3.1464566929133859
11
5.2625984251968498
21
-3.1165354330708661
0
LINE
8
BLACK
6
CONTINUOUS
10
5.2625984251968498
20
-3.1165354330708661
11
5.2775590551181102
21
-3.1165354330708661
0
LINE
8
BLACK
6
CONTINUOUS
10
5.2775590551181102
20
-3.1165354330708661
11
5.2775590551181102
21
-3.1464566929133859
0
LINE
8
BLACK
6
CONTINUOUS
10
5.3027559055118108
20
-3.1464566929133859
11
5.2877952755905513
21
-3.1464566929133859
0
LINE
8
BLACK
6
CONTINUOUS
10
5.2877952755905513
20
-3.1464566929133859
11
5.2877952755905513
21
-3.1165354330708661
0
LINE
8
BLACK
6
CONTINUOUS
10
5.2877952755905513
20
-3.1165354330708661
11
5.3027559055118108
21
-3.1165354330708661
0
LINE
8
BLACK
6
CONTINUOUS
10
5.3027559055118108
20
-3.1165354330708661
11
5.3027559055118108
21
-3.1464566929133859
0
LINE
8
BLACK
6
CONTINUOUS
10
5.3279527559055113
20
-3.1464566929133859
11
5.3129921259842519
21
-3.1464566929133859
0
LINE
8
BLACK
6
CONTINUOUS
10
5.3129921259842519
20
-3.1464566929133859
11
5.3129921259842519
21
-3.1165354330708661
0
LINE
8
BLACK
6
CONTINUOUS
10
5.3129921259842519
20
-3.1165354330708661
11
5.3279527559055113
21
-3.1165354330708661
0
LINE
8
BLACK
6
CONTINUOUS
10
5.3279527559055113
20
-3.1165354330708661
11
5.3279527559055113
21
-3.1464566929133859
0
LINE
8
BLACK
6
CONTINUOUS
10
5.3531496062992128
20
-3.1464566929133859
11
5.3381889763779524
21
-3.1464566929133859
0
LINE
8
BLACK
6
CONTINUOUS
10
5.3381889763779524
20
-3.1464566929133859
11
5.3381889763779524
21
-3.1165354330708661
0
LINE
8
BLACK
6
CONTINUOUS
10
5.3381889763779524
20
-3.1165354330708661
11
5.3531496062992128
21
-3.1165354330708661
0
LINE
8
BLACK
6
CONTINUOUS
10
5.3531496062992128
20
-3.1165354330708661
11
5.3531496062992128
21
-3.1464566929133859
0
LINE
8
BLACK
6
CONTINUOUS
10
5.3783464566929133
20
-3.1464566929133859
11
5.363385826771653
21
-3.1464566929133859
0
LINE
8
BLACK
6
CONTINUOUS
10
5.363385826771653
20
-3.1464566929133859
11
5.363385826771653
21
-3.1165354330708661
0
LINE
8
BLACK
6
CONTINUOUS
10
5.363385826771653
20
-3.1165354330708661
11
5.3783464566929133
21
-3.1165354330708661
0
LINE
8
BLACK
6
CONTINUOUS
10
5.3783464566929133
20
-3.1165354330708661
11
5.3783464566929133
21
-3.1464566929133859
0
LINE
8
BLACK
6
CONTINUOUS
10
5.4035433070866139
20
-3.1464566929133859
11
5.3885826771653544
21
-3.1464566929133859
0
LINE
8
BLACK
6
CONTINUOUS
10
5.3885826771653544
20
-3.1464566929133859
11
5.3885826771653544
21
-3.1165354330708661
0
LINE
8
BLACK
6
CONTINUOUS
10
5.3885826771653544
20
-3.1165354330708661
11
5.4035433070866139
21
-3.1165354330708661
0
LINE
8
BLACK
6
CONTINUOUS
10
5.4035433070866139
20
-3.1165354330708661
11
5.4035433070866139
21
-3.1464566929133859
0
LINE
8
BLACK
6
CONTINUOUS
10
5.4287401574803145
20
-3.1464566929133859
11
5.413779527559055
21
-3.1464566929133859
0
LINE
8
BLACK
6
CONTINUOUS
10
5.413779527559055
20
-3.1464566929133859
11
5.413779527559055
21
-3.1165354330708661
0
LINE
8
BLACK
6
CONTINUOUS
10
5.413779527559055
20
-3.1165354330708661
11
5.4287401574803145
21
-3.1165354330708661
0
LINE
8
BLACK
6
CONTINUOUS
10
5.4287401574803145
20
-3.1165354330708661
11
5.4287401574803145
21
-3.1464566929133859
  0
ENDSEC
  0
EOF
