%TF.GenerationSoftware,KiCad,Pcbnew,9.0.1*%
%TF.CreationDate,2025-07-04T15:05:31+02:00*%
%TF.ProjectId,USB_36pinOmnetics_bend,5553425f-3336-4706-996e-4f6d6e657469,rev?*%
%TF.SameCoordinates,Original*%
%TF.FileFunction,Copper,L2,Bot*%
%TF.FilePolarity,Positive*%
%FSLAX46Y46*%
G04 Gerber Fmt 4.6, Leading zero omitted, Abs format (unit mm)*
G04 Created by KiCad (PCBNEW 9.0.1) date 2025-07-04 15:05:31*
%MOMM*%
%LPD*%
G01*
G04 APERTURE LIST*
G04 Aperture macros list*
%AMRoundRect*
0 Rectangle with rounded corners*
0 $1 Rounding radius*
0 $2 $3 $4 $5 $6 $7 $8 $9 X,Y pos of 4 corners*
0 Add a 4 corners polygon primitive as box body*
4,1,4,$2,$3,$4,$5,$6,$7,$8,$9,$2,$3,0*
0 Add four circle primitives for the rounded corners*
1,1,$1+$1,$2,$3*
1,1,$1+$1,$4,$5*
1,1,$1+$1,$6,$7*
1,1,$1+$1,$8,$9*
0 Add four rect primitives between the rounded corners*
20,1,$1+$1,$2,$3,$4,$5,0*
20,1,$1+$1,$4,$5,$6,$7,0*
20,1,$1+$1,$6,$7,$8,$9,0*
20,1,$1+$1,$8,$9,$2,$3,0*%
G04 Aperture macros list end*
%TA.AperFunction,SMDPad,CuDef*%
%ADD10R,0.762000X0.381000*%
%TD*%
%TA.AperFunction,SMDPad,CuDef*%
%ADD11RoundRect,0.050000X-0.115000X-0.625000X0.115000X-0.625000X0.115000X0.625000X-0.115000X0.625000X0*%
%TD*%
%TA.AperFunction,SMDPad,CuDef*%
%ADD12RoundRect,0.120000X0.280000X0.415000X-0.280000X0.415000X-0.280000X-0.415000X0.280000X-0.415000X0*%
%TD*%
%TA.AperFunction,SMDPad,CuDef*%
%ADD13RoundRect,0.120000X-0.280000X-0.415000X0.280000X-0.415000X0.280000X0.415000X-0.280000X0.415000X0*%
%TD*%
%TA.AperFunction,ViaPad*%
%ADD14C,0.600000*%
%TD*%
%TA.AperFunction,Conductor*%
%ADD15C,0.100000*%
%TD*%
G04 APERTURE END LIST*
D10*
%TO.P,J1,1,1*%
%TO.N,GND*%
X149000000Y-105770250D03*
%TO.P,J1,2,2*%
%TO.N,Net-(J1-Pad2)*%
X149000000Y-105135250D03*
%TO.P,J1,3,3*%
%TO.N,Net-(J1-Pad3)*%
X149000000Y-104500250D03*
%TO.P,J1,4,4*%
%TO.N,Net-(J1-Pad4)*%
X149000000Y-103865250D03*
%TO.P,J1,5,5*%
%TO.N,Net-(J1-Pad5)*%
X149000000Y-103230250D03*
%TO.P,J1,6,6*%
%TO.N,Net-(J1-Pad6)*%
X149000000Y-102595250D03*
%TO.P,J1,7,7*%
%TO.N,Net-(J1-Pad7)*%
X149000000Y-101960250D03*
%TO.P,J1,8,8*%
%TO.N,Net-(J1-Pad8)*%
X149000000Y-101325250D03*
%TO.P,J1,9,9*%
%TO.N,Net-(J1-Pad9)*%
X149000000Y-100690250D03*
%TO.P,J1,10,10*%
%TO.N,Net-(J1-Pad10)*%
X149000000Y-100055250D03*
%TO.P,J1,11,11*%
%TO.N,Net-(J1-Pad11)*%
X149000000Y-99420250D03*
%TO.P,J1,12,12*%
%TO.N,Net-(J1-Pad12)*%
X149000000Y-98785250D03*
%TO.P,J1,13,13*%
%TO.N,Net-(J1-Pad13)*%
X149000000Y-98150250D03*
%TO.P,J1,14,14*%
%TO.N,unconnected-(J1-Pad14)*%
X149000000Y-97515250D03*
%TO.P,J1,15,15*%
%TO.N,unconnected-(J1-Pad15)*%
X149000000Y-96880250D03*
%TO.P,J1,16,16*%
%TO.N,unconnected-(J1-Pad16)*%
X149000000Y-96245250D03*
%TO.P,J1,17,17*%
%TO.N,unconnected-(J1-Pad17)*%
X149000000Y-95610250D03*
%TO.P,J1,18,18*%
%TO.N,GND*%
X149000000Y-94975250D03*
%TO.P,J1,19,19*%
X148060200Y-105770250D03*
%TO.P,J1,20,20*%
%TO.N,Net-(J1-Pad20)*%
X148060200Y-105135250D03*
%TO.P,J1,21,21*%
%TO.N,Net-(J1-Pad21)*%
X148060200Y-104500250D03*
%TO.P,J1,22,22*%
%TO.N,Net-(J1-Pad22)*%
X148060200Y-103865250D03*
%TO.P,J1,23,23*%
%TO.N,Net-(J1-Pad23)*%
X148060200Y-103230250D03*
%TO.P,J1,24,24*%
%TO.N,Net-(J1-Pad24)*%
X148060200Y-102595250D03*
%TO.P,J1,25,25*%
%TO.N,Net-(J1-Pad25)*%
X148060200Y-101960250D03*
%TO.P,J1,26,26*%
%TO.N,Net-(J1-Pad26)*%
X148060200Y-101325250D03*
%TO.P,J1,27,27*%
%TO.N,Net-(J1-Pad27)*%
X148060200Y-100690250D03*
%TO.P,J1,28,28*%
%TO.N,Net-(J1-Pad28)*%
X148060200Y-100055250D03*
%TO.P,J1,29,29*%
%TO.N,Net-(J1-Pad29)*%
X148060200Y-99420250D03*
%TO.P,J1,30,30*%
%TO.N,Net-(J1-Pad30)*%
X148060200Y-98785250D03*
%TO.P,J1,31,31*%
%TO.N,Net-(J1-Pad31)*%
X148060200Y-98150250D03*
%TO.P,J1,32,32*%
%TO.N,unconnected-(J1-Pad32)*%
X148060200Y-97515250D03*
%TO.P,J1,33,33*%
%TO.N,unconnected-(J1-Pad33)*%
X148060200Y-96880250D03*
%TO.P,J1,34,34*%
%TO.N,unconnected-(J1-Pad34)*%
X148060200Y-96245250D03*
%TO.P,J1,35,35*%
%TO.N,unconnected-(J1-Pad35)*%
X148060200Y-95610250D03*
%TO.P,J1,36,36*%
%TO.N,GND*%
X148060200Y-94975250D03*
%TD*%
D11*
%TO.P,U2,12,12*%
%TO.N,Net-(J1-Pad31)*%
X132300000Y-103300000D03*
%TO.P,U2,13,13*%
%TO.N,Net-(J1-Pad30)*%
X132800000Y-103300000D03*
%TO.P,U2,14,14*%
%TO.N,Net-(J1-Pad29)*%
X133300000Y-103300000D03*
%TO.P,U2,15,15*%
%TO.N,Net-(J1-Pad28)*%
X133800000Y-103300000D03*
%TO.P,U2,16,16*%
%TO.N,Net-(J1-Pad27)*%
X134300000Y-103300000D03*
%TO.P,U2,17,17*%
%TO.N,Net-(J1-Pad26)*%
X134800000Y-103300000D03*
%TO.P,U2,18,18*%
%TO.N,Net-(J1-Pad25)*%
X135300000Y-103300000D03*
%TO.P,U2,19,19*%
%TO.N,Net-(J1-Pad24)*%
X135800000Y-103300000D03*
%TO.P,U2,20,20*%
%TO.N,Net-(J1-Pad23)*%
X136300000Y-103300000D03*
%TO.P,U2,21,21*%
%TO.N,Net-(J1-Pad22)*%
X136800000Y-103300000D03*
%TO.P,U2,22,22*%
%TO.N,Net-(J1-Pad21)*%
X137300000Y-103300000D03*
%TO.P,U2,23,23*%
%TO.N,Net-(J1-Pad20)*%
X137800000Y-103300000D03*
D12*
%TO.P,U2,26,26*%
%TO.N,GND*%
X131500000Y-102990000D03*
D13*
%TO.P,U2,27,27*%
X138600000Y-102990000D03*
%TD*%
D14*
%TO.N,GND*%
X151194284Y-105741958D03*
X131300000Y-101600000D03*
X138805500Y-101400000D03*
%TO.N,Net-(J1-Pad2)*%
X150751678Y-105075547D03*
%TO.N,Net-(J1-Pad3)*%
X150300000Y-104415250D03*
%TO.N,Net-(J1-Pad4)*%
X151200000Y-103900000D03*
%TO.N,Net-(J1-Pad5)*%
X150800000Y-103200000D03*
%TO.N,Net-(J1-Pad6)*%
X150300000Y-102510250D03*
%TO.N,Net-(J1-Pad7)*%
X151172942Y-102017417D03*
%TO.N,Net-(J1-Pad8)*%
X150735124Y-101347850D03*
%TO.N,Net-(J1-Pad9)*%
X150276947Y-100692047D03*
%TO.N,Net-(J1-Pad10)*%
X150455941Y-99912326D03*
%TO.N,Net-(J1-Pad11)*%
X150551001Y-99079502D03*
%TO.N,Net-(J1-Pad12)*%
X150402398Y-98293422D03*
%TO.N,Net-(J1-Pad13)*%
X150300000Y-97500000D03*
%TD*%
D15*
%TO.N,GND*%
X131300000Y-100769351D02*
X131300000Y-101600000D01*
X137612351Y-94457000D02*
X131300000Y-100769351D01*
X148920250Y-94457000D02*
X137612351Y-94457000D01*
X152400000Y-97936750D02*
X148920250Y-94457000D01*
X152400000Y-104536242D02*
X152400000Y-97936750D01*
X151194284Y-105741958D02*
X152400000Y-104536242D01*
X131300000Y-101600000D02*
X131800000Y-101600000D01*
X131800000Y-103000000D02*
X131800000Y-101600000D01*
X138805500Y-101400000D02*
X138300000Y-101400000D01*
X138300000Y-101400000D02*
X138300000Y-101300000D01*
X138300000Y-101300000D02*
X138300000Y-99303165D01*
X149000000Y-94975250D02*
X148060200Y-94975250D01*
X149000000Y-105770250D02*
X148060200Y-105770250D01*
%TO.N,Net-(J1-Pad2)*%
X150691975Y-105135250D02*
X149000000Y-105135250D01*
X150751678Y-105075547D02*
X150691975Y-105135250D01*
%TO.N,Net-(J1-Pad3)*%
X150300000Y-104415250D02*
X150215000Y-104500250D01*
X150215000Y-104500250D02*
X149000000Y-104500250D01*
%TO.N,Net-(J1-Pad4)*%
X151165250Y-103865250D02*
X149000000Y-103865250D01*
X151200000Y-103900000D02*
X151165250Y-103865250D01*
%TO.N,Net-(J1-Pad5)*%
X150769750Y-103230250D02*
X149000000Y-103230250D01*
X150800000Y-103200000D02*
X150769750Y-103230250D01*
%TO.N,Net-(J1-Pad6)*%
X150215000Y-102595250D02*
X149000000Y-102595250D01*
X150300000Y-102510250D02*
X150215000Y-102595250D01*
%TO.N,Net-(J1-Pad7)*%
X151115775Y-101960250D02*
X149000000Y-101960250D01*
X151172942Y-102017417D02*
X151115775Y-101960250D01*
%TO.N,Net-(J1-Pad8)*%
X150712524Y-101325250D02*
X149000000Y-101325250D01*
X150735124Y-101347850D02*
X150712524Y-101325250D01*
%TO.N,Net-(J1-Pad9)*%
X149990250Y-100690250D02*
X149000000Y-100690250D01*
X149992047Y-100692047D02*
X149990250Y-100690250D01*
X150276947Y-100692047D02*
X149992047Y-100692047D01*
%TO.N,Net-(J1-Pad10)*%
X150455941Y-99912326D02*
X150313017Y-100055250D01*
X150313017Y-100055250D02*
X149000000Y-100055250D01*
%TO.N,Net-(J1-Pad11)*%
X150210253Y-99420250D02*
X149000000Y-99420250D01*
X150551001Y-99079502D02*
X150210253Y-99420250D01*
%TO.N,Net-(J1-Pad12)*%
X149910570Y-98785250D02*
X149000000Y-98785250D01*
X150402398Y-98293422D02*
X149910570Y-98785250D01*
%TO.N,Net-(J1-Pad13)*%
X149649750Y-98150250D02*
X149000000Y-98150250D01*
X150300000Y-97500000D02*
X149649750Y-98150250D01*
%TO.N,GND*%
X147541950Y-94457000D02*
X148060200Y-94975250D01*
X137612351Y-94457000D02*
X147541950Y-94457000D01*
X131800000Y-100269351D02*
X137612351Y-94457000D01*
X131800000Y-101600000D02*
X131800000Y-100269351D01*
X143800000Y-98643665D02*
X143800000Y-104500000D01*
X145070250Y-105770250D02*
X148060200Y-105770250D01*
X143526335Y-98370000D02*
X143800000Y-98643665D01*
X139233165Y-98370000D02*
X143526335Y-98370000D01*
X138300000Y-99303165D02*
X139233165Y-98370000D01*
X138300000Y-103000000D02*
X138300000Y-101400000D01*
X143800000Y-104500000D02*
X145070250Y-105770250D01*
%TO.N,Net-(J1-Pad20)*%
X144860928Y-105135250D02*
X148060200Y-105135250D01*
X144101000Y-104375322D02*
X144860928Y-105135250D01*
X143651013Y-98069000D02*
X144101000Y-98518987D01*
X137800000Y-99377487D02*
X139108487Y-98069000D01*
X139108487Y-98069000D02*
X143651013Y-98069000D01*
X144101000Y-98518987D02*
X144101000Y-104375322D01*
X137800000Y-103300000D02*
X137800000Y-99377487D01*
%TO.N,Net-(J1-Pad21)*%
X144402000Y-104250644D02*
X144651606Y-104500250D01*
X137300000Y-99451809D02*
X138983809Y-97768000D01*
X143775691Y-97768000D02*
X144402000Y-98394309D01*
X144402000Y-98394309D02*
X144402000Y-104250644D01*
X144651606Y-104500250D02*
X148060200Y-104500250D01*
X137300000Y-103300000D02*
X137300000Y-99451809D01*
X138983809Y-97768000D02*
X143775691Y-97768000D01*
%TO.N,Net-(J1-Pad22)*%
X145165250Y-103865250D02*
X148060200Y-103865250D01*
X144703000Y-103403000D02*
X145165250Y-103865250D01*
X144703000Y-98269631D02*
X144703000Y-103403000D01*
X138859131Y-97467000D02*
X143900369Y-97467000D01*
X136800000Y-99526131D02*
X138859131Y-97467000D01*
X136800000Y-103300000D02*
X136800000Y-99526131D01*
X143900369Y-97467000D02*
X144703000Y-98269631D01*
%TO.N,Net-(J1-Pad23)*%
X145004000Y-102800000D02*
X145434250Y-103230250D01*
X144025047Y-97166000D02*
X145004000Y-98144953D01*
X145004000Y-98144953D02*
X145004000Y-102800000D01*
X138734453Y-97166000D02*
X144025047Y-97166000D01*
X136300000Y-99600453D02*
X138734453Y-97166000D01*
X136300000Y-103300000D02*
X136300000Y-99600453D01*
X145434250Y-103230250D02*
X148060200Y-103230250D01*
%TO.N,Net-(J1-Pad24)*%
X145305000Y-102100000D02*
X145800250Y-102595250D01*
X145305000Y-98020275D02*
X145305000Y-102100000D01*
X145800250Y-102595250D02*
X148060200Y-102595250D01*
X138609775Y-96865000D02*
X144149725Y-96865000D01*
X144149725Y-96865000D02*
X145305000Y-98020275D01*
X135800000Y-99674775D02*
X138609775Y-96865000D01*
X135800000Y-103300000D02*
X135800000Y-99674775D01*
%TO.N,Net-(J1-Pad25)*%
X145966250Y-101960250D02*
X148060200Y-101960250D01*
X145606000Y-101600000D02*
X145966250Y-101960250D01*
%TO.N,Net-(J1-Pad26)*%
X146132250Y-101325250D02*
X148060200Y-101325250D01*
X145907000Y-101100000D02*
X146132250Y-101325250D01*
%TO.N,Net-(J1-Pad27)*%
X146208000Y-100300000D02*
X146598250Y-100690250D01*
X138235741Y-95962000D02*
X144523759Y-95962000D01*
X134300000Y-99897741D02*
X138235741Y-95962000D01*
X146208000Y-97646241D02*
X146208000Y-100300000D01*
X146598250Y-100690250D02*
X148060200Y-100690250D01*
X134300000Y-103300000D02*
X134300000Y-99897741D01*
X144523759Y-95962000D02*
X146208000Y-97646241D01*
%TO.N,Net-(J1-Pad28)*%
X147139572Y-100055250D02*
X148060200Y-100055250D01*
X146509000Y-99424678D02*
X147139572Y-100055250D01*
X146509000Y-97521563D02*
X146509000Y-99424678D01*
%TO.N,Net-(J1-Pad29)*%
X146810000Y-99300000D02*
X146930250Y-99420250D01*
X146930250Y-99420250D02*
X148060200Y-99420250D01*
%TO.N,Net-(J1-Pad30)*%
X147196250Y-98785250D02*
X148060200Y-98785250D01*
X147111000Y-98700000D02*
X147196250Y-98785250D01*
%TO.N,Net-(J1-Pad31)*%
X147428200Y-97828700D02*
X147749750Y-98150250D01*
X145022471Y-94758000D02*
X147428200Y-97163729D01*
X147749750Y-98150250D02*
X148060200Y-98150250D01*
X132300000Y-100195029D02*
X137737029Y-94758000D01*
X137737029Y-94758000D02*
X145022471Y-94758000D01*
X147428200Y-97163729D02*
X147428200Y-97828700D01*
X132300000Y-103300000D02*
X132300000Y-100195029D01*
%TO.N,Net-(J1-Pad30)*%
X144897793Y-95059000D02*
X147111000Y-97272207D01*
X137861707Y-95059000D02*
X144897793Y-95059000D01*
X147111000Y-97272207D02*
X147111000Y-98700000D01*
X132800000Y-100120707D02*
X137861707Y-95059000D01*
X132800000Y-103300000D02*
X132800000Y-100120707D01*
%TO.N,Net-(J1-Pad29)*%
X146810000Y-97396885D02*
X146810000Y-99300000D01*
X133300000Y-100046385D02*
X137986385Y-95360000D01*
X144773115Y-95360000D02*
X146810000Y-97396885D01*
X137986385Y-95360000D02*
X144773115Y-95360000D01*
X133300000Y-103300000D02*
X133300000Y-100046385D01*
%TO.N,Net-(J1-Pad28)*%
X144648437Y-95661000D02*
X146509000Y-97521563D01*
X138111063Y-95661000D02*
X144648437Y-95661000D01*
X133800000Y-99972063D02*
X138111063Y-95661000D01*
X133800000Y-103300000D02*
X133800000Y-99972063D01*
%TO.N,Net-(J1-Pad26)*%
X144399081Y-96263000D02*
X145907000Y-97770919D01*
X145907000Y-97770919D02*
X145907000Y-101100000D01*
X138360419Y-96263000D02*
X144399081Y-96263000D01*
X134800000Y-99823419D02*
X138360419Y-96263000D01*
X134800000Y-103300000D02*
X134800000Y-99823419D01*
%TO.N,Net-(J1-Pad25)*%
X145606000Y-97895597D02*
X145606000Y-101600000D01*
X144274403Y-96564000D02*
X145606000Y-97895597D01*
X138485097Y-96564000D02*
X144274403Y-96564000D01*
X135300000Y-99749097D02*
X138485097Y-96564000D01*
X135300000Y-103300000D02*
X135300000Y-99749097D01*
%TD*%
M02*
