%TF.GenerationSoftware,KiCad,Pcbnew,9.0.1*%
%TF.CreationDate,2025-07-04T15:05:31+02:00*%
%TF.ProjectId,USB_36pinOmnetics_bend,5553425f-3336-4706-996e-4f6d6e657469,rev?*%
%TF.SameCoordinates,Original*%
%TF.FileFunction,Paste,Bot*%
%TF.FilePolarity,Positive*%
%FSLAX46Y46*%
G04 Gerber Fmt 4.6, Leading zero omitted, Abs format (unit mm)*
G04 Created by KiCad (PCBNEW 9.0.1) date 2025-07-04 15:05:31*
%MOMM*%
%LPD*%
G01*
G04 APERTURE LIST*
G04 Aperture macros list*
%AMRoundRect*
0 Rectangle with rounded corners*
0 $1 Rounding radius*
0 $2 $3 $4 $5 $6 $7 $8 $9 X,Y pos of 4 corners*
0 Add a 4 corners polygon primitive as box body*
4,1,4,$2,$3,$4,$5,$6,$7,$8,$9,$2,$3,0*
0 Add four circle primitives for the rounded corners*
1,1,$1+$1,$2,$3*
1,1,$1+$1,$4,$5*
1,1,$1+$1,$6,$7*
1,1,$1+$1,$8,$9*
0 Add four rect primitives between the rounded corners*
20,1,$1+$1,$2,$3,$4,$5,0*
20,1,$1+$1,$4,$5,$6,$7,0*
20,1,$1+$1,$6,$7,$8,$9,0*
20,1,$1+$1,$8,$9,$2,$3,0*%
G04 Aperture macros list end*
%ADD10R,0.762000X0.381000*%
%ADD11RoundRect,0.050000X-0.115000X-0.625000X0.115000X-0.625000X0.115000X0.625000X-0.115000X0.625000X0*%
%ADD12RoundRect,0.120000X0.280000X0.415000X-0.280000X0.415000X-0.280000X-0.415000X0.280000X-0.415000X0*%
%ADD13RoundRect,0.120000X-0.280000X-0.415000X0.280000X-0.415000X0.280000X0.415000X-0.280000X0.415000X0*%
G04 APERTURE END LIST*
D10*
%TO.C,J1*%
X149000000Y-105770250D03*
X149000000Y-105135250D03*
X149000000Y-104500250D03*
X149000000Y-103865250D03*
X149000000Y-103230250D03*
X149000000Y-102595250D03*
X149000000Y-101960250D03*
X149000000Y-101325250D03*
X149000000Y-100690250D03*
X149000000Y-100055250D03*
X149000000Y-99420250D03*
X149000000Y-98785250D03*
X149000000Y-98150250D03*
X149000000Y-97515250D03*
X149000000Y-96880250D03*
X149000000Y-96245250D03*
X149000000Y-95610250D03*
X149000000Y-94975250D03*
X148060200Y-105770250D03*
X148060200Y-105135250D03*
X148060200Y-104500250D03*
X148060200Y-103865250D03*
X148060200Y-103230250D03*
X148060200Y-102595250D03*
X148060200Y-101960250D03*
X148060200Y-101325250D03*
X148060200Y-100690250D03*
X148060200Y-100055250D03*
X148060200Y-99420250D03*
X148060200Y-98785250D03*
X148060200Y-98150250D03*
X148060200Y-97515250D03*
X148060200Y-96880250D03*
X148060200Y-96245250D03*
X148060200Y-95610250D03*
X148060200Y-94975250D03*
%TD*%
D11*
%TO.C,U2*%
X132300000Y-103300000D03*
X132800000Y-103300000D03*
X133300000Y-103300000D03*
X133800000Y-103300000D03*
X134300000Y-103300000D03*
X134800000Y-103300000D03*
X135300000Y-103300000D03*
X135800000Y-103300000D03*
X136300000Y-103300000D03*
X136800000Y-103300000D03*
X137300000Y-103300000D03*
X137800000Y-103300000D03*
D12*
X131500000Y-102990000D03*
D13*
X138600000Y-102990000D03*
%TD*%
M02*
