%TF.GenerationSoftware,KiCad,Pcbnew,9.0.1*%
%TF.CreationDate,2025-07-04T15:05:30+02:00*%
%TF.ProjectId,USB_36pinOmnetics_bend,5553425f-3336-4706-996e-4f6d6e657469,rev?*%
%TF.SameCoordinates,Original*%
%TF.FileFunction,Copper,L1,Top*%
%TF.FilePolarity,Positive*%
%FSLAX46Y46*%
G04 Gerber Fmt 4.6, Leading zero omitted, Abs format (unit mm)*
G04 Created by KiCad (PCBNEW 9.0.1) date 2025-07-04 15:05:30*
%MOMM*%
%LPD*%
G01*
G04 APERTURE LIST*
G04 Aperture macros list*
%AMRoundRect*
0 Rectangle with rounded corners*
0 $1 Rounding radius*
0 $2 $3 $4 $5 $6 $7 $8 $9 X,Y pos of 4 corners*
0 Add a 4 corners polygon primitive as box body*
4,1,4,$2,$3,$4,$5,$6,$7,$8,$9,$2,$3,0*
0 Add four circle primitives for the rounded corners*
1,1,$1+$1,$2,$3*
1,1,$1+$1,$4,$5*
1,1,$1+$1,$6,$7*
1,1,$1+$1,$8,$9*
0 Add four rect primitives between the rounded corners*
20,1,$1+$1,$2,$3,$4,$5,0*
20,1,$1+$1,$4,$5,$6,$7,0*
20,1,$1+$1,$6,$7,$8,$9,0*
20,1,$1+$1,$8,$9,$2,$3,0*%
G04 Aperture macros list end*
%TA.AperFunction,SMDPad,CuDef*%
%ADD10RoundRect,0.050000X-0.115000X-0.625000X0.115000X-0.625000X0.115000X0.625000X-0.115000X0.625000X0*%
%TD*%
%TA.AperFunction,SMDPad,CuDef*%
%ADD11RoundRect,0.120000X0.280000X0.415000X-0.280000X0.415000X-0.280000X-0.415000X0.280000X-0.415000X0*%
%TD*%
%TA.AperFunction,SMDPad,CuDef*%
%ADD12RoundRect,0.120000X-0.280000X-0.415000X0.280000X-0.415000X0.280000X0.415000X-0.280000X0.415000X0*%
%TD*%
%TA.AperFunction,ViaPad*%
%ADD13C,0.600000*%
%TD*%
%TA.AperFunction,Conductor*%
%ADD14C,0.100000*%
%TD*%
G04 APERTURE END LIST*
D10*
%TO.P,U1,0,0*%
%TO.N,Net-(J1-Pad2)*%
X132300000Y-103300000D03*
%TO.P,U1,1,1*%
%TO.N,Net-(J1-Pad3)*%
X132800000Y-103300000D03*
%TO.P,U1,2,2*%
%TO.N,Net-(J1-Pad4)*%
X133300000Y-103300000D03*
%TO.P,U1,3,3*%
%TO.N,Net-(J1-Pad5)*%
X133800000Y-103300000D03*
%TO.P,U1,4,4*%
%TO.N,Net-(J1-Pad6)*%
X134300000Y-103300000D03*
%TO.P,U1,5,5*%
%TO.N,Net-(J1-Pad7)*%
X134800000Y-103300000D03*
%TO.P,U1,6,6*%
%TO.N,Net-(J1-Pad8)*%
X135300000Y-103300000D03*
%TO.P,U1,7,7*%
%TO.N,Net-(J1-Pad9)*%
X135800000Y-103300000D03*
%TO.P,U1,8,8*%
%TO.N,Net-(J1-Pad10)*%
X136300000Y-103300000D03*
%TO.P,U1,9,9*%
%TO.N,Net-(J1-Pad11)*%
X136800000Y-103300000D03*
%TO.P,U1,10,10*%
%TO.N,Net-(J1-Pad12)*%
X137300000Y-103300000D03*
%TO.P,U1,11,11*%
%TO.N,Net-(J1-Pad13)*%
X137800000Y-103300000D03*
D11*
%TO.P,U1,24,24*%
%TO.N,GND*%
X131500000Y-102990000D03*
D12*
%TO.P,U1,25,25*%
X138600000Y-102990000D03*
%TD*%
D13*
%TO.N,GND*%
X151194284Y-105741958D03*
X131300000Y-101600000D03*
X138805500Y-101400000D03*
%TO.N,Net-(J1-Pad2)*%
X150751678Y-105075547D03*
%TO.N,Net-(J1-Pad3)*%
X150300000Y-104415250D03*
%TO.N,Net-(J1-Pad4)*%
X151200000Y-103900000D03*
%TO.N,Net-(J1-Pad5)*%
X150800000Y-103200000D03*
%TO.N,Net-(J1-Pad6)*%
X150300000Y-102510250D03*
%TO.N,Net-(J1-Pad7)*%
X151172942Y-102017417D03*
%TO.N,Net-(J1-Pad8)*%
X150735124Y-101347850D03*
%TO.N,Net-(J1-Pad9)*%
X150276947Y-100692047D03*
%TO.N,Net-(J1-Pad10)*%
X150455941Y-99912326D03*
%TO.N,Net-(J1-Pad11)*%
X150551001Y-99079502D03*
%TO.N,Net-(J1-Pad12)*%
X150402398Y-98293422D03*
%TO.N,Net-(J1-Pad13)*%
X150300000Y-97500000D03*
%TD*%
D14*
%TO.N,GND*%
X143705000Y-98548665D02*
X143705000Y-98808101D01*
X150638857Y-105741958D02*
X151194284Y-105741958D01*
X138805500Y-98797665D02*
X139233165Y-98370000D01*
X143705000Y-98808101D02*
X150638857Y-105741958D01*
X143526335Y-98370000D02*
X143705000Y-98548665D01*
X139233165Y-98370000D02*
X143526335Y-98370000D01*
X138805500Y-101400000D02*
X138805500Y-98797665D01*
%TO.N,Net-(J1-Pad13)*%
X139282458Y-97500000D02*
X150300000Y-97500000D01*
X137800000Y-98982458D02*
X139282458Y-97500000D01*
X137800000Y-103300000D02*
X137800000Y-98982458D01*
%TO.N,Net-(J1-Pad12)*%
X150851000Y-97844820D02*
X150402398Y-98293422D01*
X150528232Y-96949000D02*
X150851000Y-97271768D01*
X137300000Y-99056780D02*
X139407780Y-96949000D01*
X150851000Y-97271768D02*
X150851000Y-97844820D01*
X137300000Y-103300000D02*
X137300000Y-99056780D01*
X139407780Y-96949000D02*
X150528232Y-96949000D01*
%TO.N,Net-(J1-Pad11)*%
X151152000Y-97147090D02*
X151152000Y-98478503D01*
X150652910Y-96648000D02*
X151152000Y-97147090D01*
X139283102Y-96648000D02*
X150652910Y-96648000D01*
X151152000Y-98478503D02*
X150551001Y-99079502D01*
X136800000Y-99131102D02*
X139283102Y-96648000D01*
X136800000Y-103300000D02*
X136800000Y-99131102D01*
%TO.N,Net-(J1-Pad10)*%
X151561958Y-98930827D02*
X150580459Y-99912326D01*
X150580459Y-99912326D02*
X150455941Y-99912326D01*
X151561958Y-97131370D02*
X151561958Y-98930827D01*
X150777588Y-96347000D02*
X151561958Y-97131370D01*
X139158424Y-96347000D02*
X150777588Y-96347000D01*
X136300000Y-99205424D02*
X139158424Y-96347000D01*
X136300000Y-103300000D02*
X136300000Y-99205424D01*
%TO.N,Net-(J1-Pad9)*%
X150455452Y-100692047D02*
X150276947Y-100692047D01*
X150902266Y-96046000D02*
X151862958Y-97006692D01*
X151862958Y-99284541D02*
X150455452Y-100692047D01*
X139033746Y-96046000D02*
X150902266Y-96046000D01*
X135800000Y-99279746D02*
X139033746Y-96046000D01*
X151862958Y-97006692D02*
X151862958Y-99284541D01*
X135800000Y-103300000D02*
X135800000Y-99279746D01*
%TO.N,Net-(J1-Pad8)*%
X152163958Y-99919016D02*
X150735124Y-101347850D01*
X152163958Y-96882014D02*
X152163958Y-99919016D01*
X138909068Y-95745000D02*
X151026944Y-95745000D01*
X135300000Y-99354068D02*
X138909068Y-95745000D01*
X151026944Y-95745000D02*
X152163958Y-96882014D01*
X135300000Y-103300000D02*
X135300000Y-99354068D01*
%TO.N,Net-(J1-Pad7)*%
X152464958Y-100725401D02*
X151172942Y-102017417D01*
X152464958Y-96757336D02*
X152464958Y-100725401D01*
X134800000Y-99428390D02*
X138784390Y-95444000D01*
X138784390Y-95444000D02*
X151151622Y-95444000D01*
X134800000Y-103300000D02*
X134800000Y-99428390D01*
X151151622Y-95444000D02*
X152464958Y-96757336D01*
%TO.N,Net-(J1-Pad6)*%
X152765958Y-101203633D02*
X151401174Y-102568417D01*
X151401174Y-102568417D02*
X150358167Y-102568417D01*
X151276300Y-95143000D02*
X152765958Y-96632658D01*
X138659712Y-95143000D02*
X151276300Y-95143000D01*
X134300000Y-99502712D02*
X138659712Y-95143000D01*
X150358167Y-102568417D02*
X150300000Y-102510250D01*
X134300000Y-103300000D02*
X134300000Y-99502712D01*
X152765958Y-96632658D02*
X152765958Y-101203633D01*
%TO.N,Net-(J1-Pad5)*%
X153066958Y-96507980D02*
X153066958Y-101328311D01*
X151195269Y-103200000D02*
X150800000Y-103200000D01*
X151400978Y-94842000D02*
X153066958Y-96507980D01*
X133800000Y-99577034D02*
X138535034Y-94842000D01*
X138535034Y-94842000D02*
X151400978Y-94842000D01*
X153066958Y-101328311D02*
X151195269Y-103200000D01*
X133800000Y-103300000D02*
X133800000Y-99577034D01*
%TO.N,Net-(J1-Pad4)*%
X153367958Y-101732042D02*
X151200000Y-103900000D01*
X153367958Y-96383302D02*
X153367958Y-101732042D01*
X151525656Y-94541000D02*
X153367958Y-96383302D01*
X138410356Y-94541000D02*
X151525656Y-94541000D01*
X133300000Y-103300000D02*
X133300000Y-99651356D01*
X133300000Y-99651356D02*
X138410356Y-94541000D01*
%TO.N,Net-(J1-Pad3)*%
X151428232Y-104451000D02*
X150335750Y-104451000D01*
X153668958Y-102210274D02*
X151428232Y-104451000D01*
X150335750Y-104451000D02*
X150300000Y-104415250D01*
X153668958Y-96258624D02*
X153668958Y-102210274D01*
X151650334Y-94240000D02*
X153668958Y-96258624D01*
X132800000Y-99725678D02*
X138285678Y-94240000D01*
X138285678Y-94240000D02*
X151650334Y-94240000D01*
X132800000Y-103300000D02*
X132800000Y-99725678D01*
%TO.N,Net-(J1-Pad2)*%
X153969958Y-96133946D02*
X153969958Y-102334952D01*
X153969958Y-102334952D02*
X151229363Y-105075547D01*
X151775012Y-93939000D02*
X153969958Y-96133946D01*
X151229363Y-105075547D02*
X150751678Y-105075547D01*
X138161000Y-93939000D02*
X151775012Y-93939000D01*
X132300000Y-99800000D02*
X138161000Y-93939000D01*
X132300000Y-103300000D02*
X132300000Y-99800000D01*
%TO.N,GND*%
X131300000Y-102800000D02*
X131300000Y-101600000D01*
X131800000Y-103300000D02*
X131300000Y-102800000D01*
X138805500Y-102794500D02*
X138805500Y-101400000D01*
X138300000Y-103300000D02*
X138805500Y-102794500D01*
%TD*%
M02*
