%TF.GenerationSoftware,KiCad,Pcbnew,9.0.1*%
%TF.CreationDate,2025-05-28T15:57:22+02:00*%
%TF.ProjectId,fpc_connector_36pinOmnetics,6670635f-636f-46e6-9e65-63746f725f33,rev?*%
%TF.SameCoordinates,Original*%
%TF.FileFunction,Soldermask,Top*%
%TF.FilePolarity,Negative*%
%FSLAX46Y46*%
G04 Gerber Fmt 4.6, Leading zero omitted, Abs format (unit mm)*
G04 Created by KiCad (PCBNEW 9.0.1) date 2025-05-28 15:57:22*
%MOMM*%
%LPD*%
G01*
G04 APERTURE LIST*
G04 Aperture macros list*
%AMRoundRect*
0 Rectangle with rounded corners*
0 $1 Rounding radius*
0 $2 $3 $4 $5 $6 $7 $8 $9 X,Y pos of 4 corners*
0 Add a 4 corners polygon primitive as box body*
4,1,4,$2,$3,$4,$5,$6,$7,$8,$9,$2,$3,0*
0 Add four circle primitives for the rounded corners*
1,1,$1+$1,$2,$3*
1,1,$1+$1,$4,$5*
1,1,$1+$1,$6,$7*
1,1,$1+$1,$8,$9*
0 Add four rect primitives between the rounded corners*
20,1,$1+$1,$2,$3,$4,$5,0*
20,1,$1+$1,$4,$5,$6,$7,0*
20,1,$1+$1,$6,$7,$8,$9,0*
20,1,$1+$1,$8,$9,$2,$3,0*%
G04 Aperture macros list end*
%ADD10R,1.700000X1.700000*%
%ADD11RoundRect,0.102000X0.190500X0.381000X-0.190500X0.381000X-0.190500X-0.381000X0.190500X-0.381000X0*%
%ADD12RoundRect,0.102000X-0.150000X-0.650000X0.150000X-0.650000X0.150000X0.650000X-0.150000X0.650000X0*%
%ADD13RoundRect,0.102000X-1.000000X-0.900000X1.000000X-0.900000X1.000000X0.900000X-1.000000X0.900000X0*%
G04 APERTURE END LIST*
D10*
%TO.C,J4*%
X160500000Y-102600000D03*
%TD*%
D11*
%TO.C,J2*%
X155724750Y-99432100D03*
X155089750Y-99432100D03*
X154454750Y-99432100D03*
X153819750Y-99432100D03*
X153184750Y-99432100D03*
X152549750Y-99432100D03*
X151914750Y-99432100D03*
X151279750Y-99432100D03*
X150644750Y-99432100D03*
X150009750Y-99432100D03*
X149374750Y-99432100D03*
X148739750Y-99432100D03*
X148104750Y-99432100D03*
X147469750Y-99432100D03*
X146834750Y-99432100D03*
X146199750Y-99432100D03*
X145564750Y-99432100D03*
X144929750Y-99432100D03*
X155724750Y-98492300D03*
X155089750Y-98492300D03*
X154454750Y-98492300D03*
X153819750Y-98492300D03*
X153184750Y-98492300D03*
X152549750Y-98492300D03*
X151914750Y-98492300D03*
X151279750Y-98492300D03*
X150644750Y-98492300D03*
X150009750Y-98492300D03*
X149374750Y-98492300D03*
X148739750Y-98492300D03*
X148104750Y-98492300D03*
X147469750Y-98492300D03*
X146834750Y-98492300D03*
X146199750Y-98492300D03*
X145564750Y-98492300D03*
X144929750Y-98492300D03*
%TD*%
D10*
%TO.C,J3*%
X139000000Y-102600000D03*
%TD*%
D12*
%TO.C,J1*%
X143750000Y-105250000D03*
X144250000Y-105250000D03*
X144750000Y-105250000D03*
X145250000Y-105250000D03*
X145750000Y-105250000D03*
X146250000Y-105250000D03*
X146750000Y-105250000D03*
X147250000Y-105250000D03*
X147750000Y-105250000D03*
X148250000Y-105250000D03*
X148750000Y-105250000D03*
X149250000Y-105250000D03*
X149750000Y-105250000D03*
X150250000Y-105250000D03*
X150750000Y-105250000D03*
X151250000Y-105250000D03*
X151750000Y-105250000D03*
X152250000Y-105250000D03*
X152750000Y-105250000D03*
X153250000Y-105250000D03*
X153750000Y-105250000D03*
X154250000Y-105250000D03*
X154750000Y-105250000D03*
X155250000Y-105250000D03*
X155750000Y-105250000D03*
X156250000Y-105250000D03*
D13*
X141950000Y-108000000D03*
X158050000Y-108000000D03*
%TD*%
M02*
