%TF.GenerationSoftware,KiCad,Pcbnew,9.0.1*%
%TF.CreationDate,2025-05-28T15:57:21+02:00*%
%TF.ProjectId,fpc_connector_36pinOmnetics,6670635f-636f-46e6-9e65-63746f725f33,rev?*%
%TF.SameCoordinates,Original*%
%TF.FileFunction,Copper,L1,Top*%
%TF.FilePolarity,Positive*%
%FSLAX46Y46*%
G04 Gerber Fmt 4.6, Leading zero omitted, Abs format (unit mm)*
G04 Created by KiCad (PCBNEW 9.0.1) date 2025-05-28 15:57:21*
%MOMM*%
%LPD*%
G01*
G04 APERTURE LIST*
%TA.AperFunction,ComponentPad*%
%ADD10R,1.700000X1.700000*%
%TD*%
%TA.AperFunction,SMDPad,CuDef*%
%ADD11R,0.381000X0.762000*%
%TD*%
%TA.AperFunction,SMDPad,CuDef*%
%ADD12R,0.300000X1.300000*%
%TD*%
%TA.AperFunction,SMDPad,CuDef*%
%ADD13R,2.000000X1.800000*%
%TD*%
%TA.AperFunction,ViaPad*%
%ADD14C,0.600000*%
%TD*%
%TA.AperFunction,Conductor*%
%ADD15C,0.100000*%
%TD*%
G04 APERTURE END LIST*
D10*
%TO.P,J4,1,Pin_1*%
%TO.N,GND*%
X160500000Y-102600000D03*
%TD*%
D11*
%TO.P,J2,36,36*%
%TO.N,GND*%
X155724750Y-99432100D03*
%TO.P,J2,35,35*%
%TO.N,unconnected-(J2-Pad35)*%
X155089750Y-99432100D03*
%TO.P,J2,34,34*%
%TO.N,unconnected-(J2-Pad34)*%
X154454750Y-99432100D03*
%TO.P,J2,33,33*%
%TO.N,unconnected-(J2-Pad33)*%
X153819750Y-99432100D03*
%TO.P,J2,32,32*%
%TO.N,unconnected-(J2-Pad32)*%
X153184750Y-99432100D03*
%TO.P,J2,31,31*%
%TO.N,Net-(J1-Pad14)*%
X152549750Y-99432100D03*
%TO.P,J2,30,30*%
%TO.N,Net-(J1-Pad15)*%
X151914750Y-99432100D03*
%TO.P,J2,29,29*%
%TO.N,Net-(J1-Pad16)*%
X151279750Y-99432100D03*
%TO.P,J2,28,28*%
%TO.N,Net-(J1-Pad17)*%
X150644750Y-99432100D03*
%TO.P,J2,27,27*%
%TO.N,Net-(J1-Pad18)*%
X150009750Y-99432100D03*
%TO.P,J2,26,26*%
%TO.N,Net-(J1-Pad19)*%
X149374750Y-99432100D03*
%TO.P,J2,25,25*%
%TO.N,Net-(J1-Pad20)*%
X148739750Y-99432100D03*
%TO.P,J2,24,24*%
%TO.N,Net-(J1-Pad21)*%
X148104750Y-99432100D03*
%TO.P,J2,23,23*%
%TO.N,Net-(J1-Pad22)*%
X147469750Y-99432100D03*
%TO.P,J2,22,22*%
%TO.N,Net-(J1-Pad23)*%
X146834750Y-99432100D03*
%TO.P,J2,21,21*%
%TO.N,Net-(J1-Pad24)*%
X146199750Y-99432100D03*
%TO.P,J2,20,20*%
%TO.N,Net-(J1-Pad25)*%
X145564750Y-99432100D03*
%TO.P,J2,19,19*%
%TO.N,GND*%
X144929750Y-99432100D03*
%TO.P,J2,18,18*%
X155724750Y-98492300D03*
%TO.P,J2,17,17*%
%TO.N,unconnected-(J2-Pad17)*%
X155089750Y-98492300D03*
%TO.P,J2,16,16*%
%TO.N,unconnected-(J2-Pad16)*%
X154454750Y-98492300D03*
%TO.P,J2,15,15*%
%TO.N,unconnected-(J2-Pad15)*%
X153819750Y-98492300D03*
%TO.P,J2,14,14*%
%TO.N,unconnected-(J2-Pad14)*%
X153184750Y-98492300D03*
%TO.P,J2,13,13*%
%TO.N,Net-(J1-Pad13)*%
X152549750Y-98492300D03*
%TO.P,J2,12,12*%
%TO.N,Net-(J1-Pad12)*%
X151914750Y-98492300D03*
%TO.P,J2,11,11*%
%TO.N,Net-(J1-Pad11)*%
X151279750Y-98492300D03*
%TO.P,J2,10,10*%
%TO.N,Net-(J1-Pad10)*%
X150644750Y-98492300D03*
%TO.P,J2,9,9*%
%TO.N,Net-(J1-Pad9)*%
X150009750Y-98492300D03*
%TO.P,J2,8,8*%
%TO.N,Net-(J1-Pad8)*%
X149374750Y-98492300D03*
%TO.P,J2,7,7*%
%TO.N,Net-(J1-Pad7)*%
X148739750Y-98492300D03*
%TO.P,J2,6,6*%
%TO.N,Net-(J1-Pad6)*%
X148104750Y-98492300D03*
%TO.P,J2,5,5*%
%TO.N,Net-(J1-Pad5)*%
X147469750Y-98492300D03*
%TO.P,J2,4,4*%
%TO.N,Net-(J1-Pad4)*%
X146834750Y-98492300D03*
%TO.P,J2,3,3*%
%TO.N,Net-(J1-Pad3)*%
X146199750Y-98492300D03*
%TO.P,J2,2,2*%
%TO.N,Net-(J1-Pad2)*%
X145564750Y-98492300D03*
%TO.P,J2,1,1*%
%TO.N,GND*%
X144929750Y-98492300D03*
%TD*%
D10*
%TO.P,J3,1,Pin_1*%
%TO.N,GND*%
X139000000Y-102600000D03*
%TD*%
D12*
%TO.P,J1,1*%
%TO.N,GND*%
X143750000Y-105250000D03*
%TO.P,J1,2*%
%TO.N,Net-(J1-Pad2)*%
X144250000Y-105250000D03*
%TO.P,J1,3*%
%TO.N,Net-(J1-Pad3)*%
X144750000Y-105250000D03*
%TO.P,J1,4*%
%TO.N,Net-(J1-Pad4)*%
X145250000Y-105250000D03*
%TO.P,J1,5*%
%TO.N,Net-(J1-Pad5)*%
X145750000Y-105250000D03*
%TO.P,J1,6*%
%TO.N,Net-(J1-Pad6)*%
X146250000Y-105250000D03*
%TO.P,J1,7*%
%TO.N,Net-(J1-Pad7)*%
X146750000Y-105250000D03*
%TO.P,J1,8*%
%TO.N,Net-(J1-Pad8)*%
X147250000Y-105250000D03*
%TO.P,J1,9*%
%TO.N,Net-(J1-Pad9)*%
X147750000Y-105250000D03*
%TO.P,J1,10*%
%TO.N,Net-(J1-Pad10)*%
X148250000Y-105250000D03*
%TO.P,J1,11*%
%TO.N,Net-(J1-Pad11)*%
X148750000Y-105250000D03*
%TO.P,J1,12*%
%TO.N,Net-(J1-Pad12)*%
X149250000Y-105250000D03*
%TO.P,J1,13*%
%TO.N,Net-(J1-Pad13)*%
X149750000Y-105250000D03*
%TO.P,J1,14*%
%TO.N,Net-(J1-Pad14)*%
X150250000Y-105250000D03*
%TO.P,J1,15*%
%TO.N,Net-(J1-Pad15)*%
X150750000Y-105250000D03*
%TO.P,J1,16*%
%TO.N,Net-(J1-Pad16)*%
X151250000Y-105250000D03*
%TO.P,J1,17*%
%TO.N,Net-(J1-Pad17)*%
X151750000Y-105250000D03*
%TO.P,J1,18*%
%TO.N,Net-(J1-Pad18)*%
X152250000Y-105250000D03*
%TO.P,J1,19*%
%TO.N,Net-(J1-Pad19)*%
X152750000Y-105250000D03*
%TO.P,J1,20*%
%TO.N,Net-(J1-Pad20)*%
X153250000Y-105250000D03*
%TO.P,J1,21*%
%TO.N,Net-(J1-Pad21)*%
X153750000Y-105250000D03*
%TO.P,J1,22*%
%TO.N,Net-(J1-Pad22)*%
X154250000Y-105250000D03*
%TO.P,J1,23*%
%TO.N,Net-(J1-Pad23)*%
X154750000Y-105250000D03*
%TO.P,J1,24*%
%TO.N,Net-(J1-Pad24)*%
X155250000Y-105250000D03*
%TO.P,J1,25*%
%TO.N,Net-(J1-Pad25)*%
X155750000Y-105250000D03*
%TO.P,J1,26*%
%TO.N,GND*%
X156250000Y-105250000D03*
D13*
%TO.P,J1,Z1*%
%TO.N,unconnected-(J1-PadZ1)*%
X141950000Y-108000000D03*
%TO.P,J1,Z2*%
%TO.N,unconnected-(J1-PadZ2)*%
X158050000Y-108000000D03*
%TD*%
D14*
%TO.N,GND*%
X156000000Y-100592000D03*
%TO.N,Net-(J1-Pad15)*%
X152011023Y-101353933D03*
%TO.N,Net-(J1-Pad14)*%
X152810166Y-101391000D03*
%TO.N,Net-(J1-Pad12)*%
X151500000Y-97200000D03*
%TO.N,Net-(J1-Pad13)*%
X152500000Y-97200000D03*
%TO.N,Net-(J1-Pad16)*%
X151211284Y-101374466D03*
%TO.N,Net-(J1-Pad12)*%
X148599991Y-107400000D03*
%TO.N,Net-(J1-Pad16)*%
X151800003Y-107400000D03*
%TO.N,Net-(J1-Pad13)*%
X149399994Y-107400000D03*
%TO.N,Net-(J1-Pad14)*%
X150199997Y-107400000D03*
%TO.N,Net-(J1-Pad15)*%
X151000000Y-107400000D03*
%TO.N,GND*%
X156000000Y-103800000D03*
X144800000Y-100800000D03*
X143700000Y-103800000D03*
%TD*%
D15*
%TO.N,GND*%
X156000000Y-100592000D02*
X156000000Y-99707350D01*
X156000000Y-99707350D02*
X155724750Y-99432100D01*
X155724750Y-98492300D02*
X155724750Y-99432100D01*
%TO.N,Net-(J1-Pad12)*%
X151914750Y-97614750D02*
X151914750Y-98492300D01*
X151500000Y-97200000D02*
X151914750Y-97614750D01*
%TO.N,Net-(J1-Pad13)*%
X152500000Y-97200000D02*
X152549750Y-97249750D01*
X152549750Y-97249750D02*
X152549750Y-98492300D01*
%TO.N,Net-(J1-Pad16)*%
X151279750Y-101306000D02*
X151279750Y-99432100D01*
X151211284Y-101374466D02*
X151279750Y-101306000D01*
%TO.N,Net-(J1-Pad12)*%
X149250000Y-106749991D02*
X148599991Y-107400000D01*
X149250000Y-105250000D02*
X149250000Y-106749991D01*
%TO.N,Net-(J1-Pad16)*%
X151250000Y-106849997D02*
X151800003Y-107400000D01*
X151250000Y-105250000D02*
X151250000Y-106849997D01*
%TO.N,Net-(J1-Pad13)*%
X149750000Y-107049994D02*
X149399994Y-107400000D01*
X149750000Y-105250000D02*
X149750000Y-107049994D01*
%TO.N,Net-(J1-Pad14)*%
X150250000Y-107349997D02*
X150199997Y-107400000D01*
X150250000Y-105250000D02*
X150250000Y-107349997D01*
%TO.N,Net-(J1-Pad15)*%
X150750000Y-107150000D02*
X151000000Y-107400000D01*
X150750000Y-105250000D02*
X150750000Y-107150000D01*
%TO.N,Net-(J1-Pad11)*%
X151279750Y-98053800D02*
X151279750Y-98492300D01*
X143424448Y-95093000D02*
X148318950Y-95093000D01*
X140668966Y-97848482D02*
X143424448Y-95093000D01*
X140668966Y-104750644D02*
X140668966Y-97848482D01*
X139194000Y-106225610D02*
X140668966Y-104750644D01*
X139194000Y-109774390D02*
X139194000Y-106225610D01*
X140075610Y-110656000D02*
X139194000Y-109774390D01*
X144146000Y-110656000D02*
X140075610Y-110656000D01*
X148750000Y-106052000D02*
X144146000Y-110656000D01*
X148318950Y-95093000D02*
X151279750Y-98053800D01*
X148750000Y-105250000D02*
X148750000Y-106052000D01*
%TO.N,Net-(J1-Pad10)*%
X150644750Y-98011300D02*
X150644750Y-98492300D01*
X148027450Y-95394000D02*
X150644750Y-98011300D01*
X143549126Y-95394000D02*
X148027450Y-95394000D01*
X140969966Y-97973160D02*
X143549126Y-95394000D01*
X140969966Y-104875322D02*
X140969966Y-97973160D01*
X139495000Y-106350288D02*
X140969966Y-104875322D01*
X140200288Y-110355000D02*
X139495000Y-109649712D01*
X143947000Y-110355000D02*
X140200288Y-110355000D01*
X148250000Y-106052000D02*
X143947000Y-110355000D01*
X139495000Y-109649712D02*
X139495000Y-106350288D01*
X148250000Y-105250000D02*
X148250000Y-106052000D01*
%TO.N,Net-(J1-Pad9)*%
X150009750Y-98011300D02*
X150009750Y-98492300D01*
X147693450Y-95695000D02*
X150009750Y-98011300D01*
X143673804Y-95695000D02*
X147693450Y-95695000D01*
X141270966Y-98097838D02*
X143673804Y-95695000D01*
X141270966Y-105000000D02*
X141270966Y-98097838D01*
X139796000Y-106474966D02*
X141270966Y-105000000D01*
X139796000Y-109525034D02*
X139796000Y-106474966D01*
X140324966Y-110054000D02*
X139796000Y-109525034D01*
X143748000Y-110054000D02*
X140324966Y-110054000D01*
X147750000Y-106052000D02*
X143748000Y-110054000D01*
X147750000Y-105250000D02*
X147750000Y-106052000D01*
%TO.N,Net-(J1-Pad8)*%
X149374750Y-98011300D02*
X149374750Y-98492300D01*
X147359450Y-95996000D02*
X149374750Y-98011300D01*
X143798482Y-95996000D02*
X147359450Y-95996000D01*
X141644000Y-98150482D02*
X143798482Y-95996000D01*
X141644000Y-105454000D02*
X141644000Y-98150482D01*
X141098644Y-105598000D02*
X141500000Y-105598000D01*
X140097000Y-106599644D02*
X141098644Y-105598000D01*
X140097000Y-109400356D02*
X140097000Y-106599644D01*
X140449644Y-109753000D02*
X140097000Y-109400356D01*
X143549000Y-109753000D02*
X140449644Y-109753000D01*
X147250000Y-106052000D02*
X143549000Y-109753000D01*
X141500000Y-105598000D02*
X141644000Y-105454000D01*
X147250000Y-105250000D02*
X147250000Y-106052000D01*
%TO.N,Net-(J1-Pad7)*%
X148739750Y-98053800D02*
X148739750Y-98492300D01*
X146982950Y-96297000D02*
X148739750Y-98053800D01*
X143923160Y-96297000D02*
X146982950Y-96297000D01*
X141945000Y-98275160D02*
X143923160Y-96297000D01*
X141945000Y-105829322D02*
X141945000Y-98275160D01*
X141875322Y-105899000D02*
X141945000Y-105829322D01*
X141223322Y-105899000D02*
X141875322Y-105899000D01*
X140398000Y-106724322D02*
X141223322Y-105899000D01*
X140398000Y-109275678D02*
X140398000Y-106724322D01*
X140574322Y-109452000D02*
X140398000Y-109275678D01*
X143350000Y-109452000D02*
X140574322Y-109452000D01*
X146750000Y-106052000D02*
X143350000Y-109452000D01*
X146750000Y-105250000D02*
X146750000Y-106052000D01*
%TO.N,Net-(J1-Pad6)*%
X148104750Y-98011300D02*
X148104750Y-98492300D01*
X146691450Y-96598000D02*
X148104750Y-98011300D01*
X144047838Y-96598000D02*
X146691450Y-96598000D01*
X142246000Y-98399838D02*
X144047838Y-96598000D01*
X142246000Y-105954000D02*
X142246000Y-98399838D01*
X142000000Y-106200000D02*
X142246000Y-105954000D01*
X141348000Y-106200000D02*
X142000000Y-106200000D01*
X140699000Y-106849000D02*
X141348000Y-106200000D01*
X140699000Y-109151000D02*
X140699000Y-106849000D01*
X143201000Y-109151000D02*
X140699000Y-109151000D01*
X146250000Y-106102000D02*
X143201000Y-109151000D01*
X146250000Y-105250000D02*
X146250000Y-106102000D01*
%TO.N,Net-(J1-Pad5)*%
X147469750Y-98053800D02*
X147469750Y-98492300D01*
X146314950Y-96899000D02*
X147469750Y-98053800D01*
X144172516Y-96899000D02*
X146314950Y-96899000D01*
X142547000Y-98524516D02*
X144172516Y-96899000D01*
X142547000Y-106200356D02*
X142547000Y-98524516D01*
X143099644Y-106753000D02*
X142547000Y-106200356D01*
X145049000Y-106753000D02*
X143099644Y-106753000D01*
X145750000Y-106052000D02*
X145049000Y-106753000D01*
X145750000Y-105250000D02*
X145750000Y-106052000D01*
%TO.N,Net-(J1-Pad17)*%
X151750000Y-106000000D02*
X151750000Y-105250000D01*
X156105000Y-110355000D02*
X151750000Y-106000000D01*
X159799712Y-110355000D02*
X156105000Y-110355000D01*
X160505000Y-109649712D02*
X159799712Y-110355000D01*
X160505000Y-106071966D02*
X160505000Y-109649712D01*
X158758000Y-104324966D02*
X160505000Y-106071966D01*
X158758000Y-102799022D02*
X158758000Y-104324966D01*
X157100978Y-101142000D02*
X158758000Y-102799022D01*
X153924966Y-101142000D02*
X157100978Y-101142000D01*
X153125966Y-101941000D02*
X153924966Y-101142000D01*
X151000000Y-101941000D02*
X153125966Y-101941000D01*
X150644750Y-101585750D02*
X151000000Y-101941000D01*
X150644750Y-99432100D02*
X150644750Y-101585750D01*
%TO.N,Net-(J1-Pad18)*%
X152250000Y-106000000D02*
X152250000Y-105250000D01*
X156304000Y-110054000D02*
X152250000Y-106000000D01*
X159675034Y-110054000D02*
X156304000Y-110054000D01*
X160204000Y-109525034D02*
X159675034Y-110054000D01*
X160204000Y-106196644D02*
X160204000Y-109525034D01*
X158457000Y-104449644D02*
X160204000Y-106196644D01*
X156976300Y-101443000D02*
X158457000Y-102923700D01*
X154049644Y-101443000D02*
X156976300Y-101443000D01*
X153250644Y-102242000D02*
X154049644Y-101443000D01*
X158457000Y-102923700D02*
X158457000Y-104449644D01*
X150500000Y-102242000D02*
X153250644Y-102242000D01*
X150009750Y-101751750D02*
X150500000Y-102242000D01*
X150009750Y-99432100D02*
X150009750Y-101751750D01*
%TO.N,Net-(J1-Pad19)*%
X156503000Y-109753000D02*
X152750000Y-106000000D01*
X159550356Y-109753000D02*
X156503000Y-109753000D01*
X159903000Y-109400356D02*
X159550356Y-109753000D01*
X152750000Y-106000000D02*
X152750000Y-105250000D01*
X159903000Y-106497644D02*
X159903000Y-109400356D01*
X158156000Y-103048378D02*
X158156000Y-104750644D01*
X156851622Y-101744000D02*
X158156000Y-103048378D01*
X154174322Y-101744000D02*
X156851622Y-101744000D01*
X153375322Y-102543000D02*
X154174322Y-101744000D01*
X149500000Y-102543000D02*
X153375322Y-102543000D01*
X149374750Y-102417750D02*
X149500000Y-102543000D01*
X149374750Y-99432100D02*
X149374750Y-102417750D01*
X158156000Y-104750644D02*
X159903000Y-106497644D01*
%TO.N,Net-(J1-Pad20)*%
X153250000Y-106000000D02*
X153250000Y-105250000D01*
X156702000Y-109452000D02*
X153250000Y-106000000D01*
X159425678Y-109452000D02*
X156702000Y-109452000D01*
X159602000Y-109275678D02*
X159425678Y-109452000D01*
X159602000Y-106622322D02*
X159602000Y-109275678D01*
X157855000Y-104875322D02*
X159602000Y-106622322D01*
X157855000Y-103173056D02*
X157855000Y-104875322D01*
X156726944Y-102045000D02*
X157855000Y-103173056D01*
X154299000Y-102045000D02*
X156726944Y-102045000D01*
X153500000Y-102844000D02*
X154299000Y-102045000D01*
X149144000Y-102844000D02*
X153500000Y-102844000D01*
X148739750Y-102439750D02*
X149144000Y-102844000D01*
X148739750Y-99432100D02*
X148739750Y-102439750D01*
%TO.N,Net-(J1-Pad21)*%
X153750000Y-105977678D02*
X153750000Y-105250000D01*
X156923322Y-109151000D02*
X153750000Y-105977678D01*
X159301000Y-109151000D02*
X156923322Y-109151000D01*
X159301000Y-106747000D02*
X159301000Y-109151000D01*
X157554000Y-105000000D02*
X159301000Y-106747000D01*
X157554000Y-103297734D02*
X157554000Y-105000000D01*
X156602266Y-102346000D02*
X157554000Y-103297734D01*
X154424966Y-102346000D02*
X156602266Y-102346000D01*
X153625966Y-103145000D02*
X154424966Y-102346000D01*
X148500000Y-103145000D02*
X153625966Y-103145000D01*
X148104750Y-102749750D02*
X148500000Y-103145000D01*
X148104750Y-99432100D02*
X148104750Y-102749750D01*
%TO.N,Net-(J1-Pad22)*%
X154250000Y-106052000D02*
X154250000Y-105250000D01*
X154998000Y-106800000D02*
X154250000Y-106052000D01*
X156751356Y-106800000D02*
X154998000Y-106800000D01*
X157253000Y-106298356D02*
X156751356Y-106800000D01*
X157253000Y-103422412D02*
X157253000Y-106298356D01*
X156477588Y-102647000D02*
X157253000Y-103422412D01*
X154549644Y-102647000D02*
X156477588Y-102647000D01*
X153750644Y-103446000D02*
X154549644Y-102647000D01*
X148000000Y-103446000D02*
X153750644Y-103446000D01*
X147469750Y-102915750D02*
X148000000Y-103446000D01*
X147469750Y-99432100D02*
X147469750Y-102915750D01*
%TO.N,Net-(J1-Pad23)*%
X154750000Y-106000000D02*
X154750000Y-105250000D01*
X155202000Y-106452000D02*
X154750000Y-106000000D01*
X156673678Y-106452000D02*
X155202000Y-106452000D01*
X156952000Y-106173678D02*
X156673678Y-106452000D01*
X156952000Y-103547090D02*
X156952000Y-106173678D01*
X156352910Y-102948000D02*
X156952000Y-103547090D01*
X153875322Y-103747000D02*
X154674322Y-102948000D01*
X154674322Y-102948000D02*
X156352910Y-102948000D01*
X146947000Y-103747000D02*
X153875322Y-103747000D01*
X146834750Y-103634750D02*
X146947000Y-103747000D01*
X146834750Y-99432100D02*
X146834750Y-103634750D01*
%TO.N,Net-(J1-Pad24)*%
X155250000Y-106052000D02*
X155250000Y-105250000D01*
X155349000Y-106151000D02*
X155250000Y-106052000D01*
X156549000Y-106151000D02*
X155349000Y-106151000D01*
X156651000Y-106049000D02*
X156549000Y-106151000D01*
X156651000Y-103671768D02*
X156651000Y-106049000D01*
X156228232Y-103249000D02*
X156651000Y-103671768D01*
X154799000Y-103249000D02*
X156228232Y-103249000D01*
X146500000Y-104048000D02*
X154000000Y-104048000D01*
X154000000Y-104048000D02*
X154799000Y-103249000D01*
X146199750Y-103747750D02*
X146500000Y-104048000D01*
X146199750Y-99432100D02*
X146199750Y-103747750D01*
%TO.N,GND*%
X156250000Y-104050000D02*
X156000000Y-103800000D01*
X156250000Y-105250000D02*
X156250000Y-104050000D01*
X144929750Y-100670250D02*
X144800000Y-100800000D01*
X144929750Y-99432100D02*
X144929750Y-100670250D01*
X144929750Y-99432100D02*
X144929750Y-98492300D01*
X144929750Y-99529750D02*
X145000000Y-99600000D01*
%TO.N,Net-(J1-Pad25)*%
X155750000Y-104448000D02*
X155750000Y-105250000D01*
X155651000Y-104349000D02*
X155750000Y-104448000D01*
X146000000Y-104349000D02*
X155651000Y-104349000D01*
X145564750Y-103913750D02*
X146000000Y-104349000D01*
X145564750Y-99432100D02*
X145564750Y-103913750D01*
%TO.N,Net-(J1-Pad4)*%
X146834750Y-98011300D02*
X146834750Y-98492300D01*
X146023450Y-97200000D02*
X146834750Y-98011300D01*
X144297194Y-97200000D02*
X146023450Y-97200000D01*
X142848000Y-98649194D02*
X144297194Y-97200000D01*
X142848000Y-106075678D02*
X142848000Y-98649194D01*
X143224322Y-106452000D02*
X142848000Y-106075678D01*
X144850000Y-106452000D02*
X143224322Y-106452000D01*
X145250000Y-106052000D02*
X144850000Y-106452000D01*
X145250000Y-105250000D02*
X145250000Y-106052000D01*
%TO.N,Net-(J1-Pad3)*%
X145705250Y-97559300D02*
X146199750Y-98053800D01*
X144363572Y-97559300D02*
X145705250Y-97559300D01*
X143149000Y-98773872D02*
X144363572Y-97559300D01*
X143149000Y-105951000D02*
X143149000Y-98773872D01*
X143349000Y-106151000D02*
X143149000Y-105951000D01*
X144651000Y-106151000D02*
X143349000Y-106151000D01*
X144750000Y-106052000D02*
X144651000Y-106151000D01*
X146199750Y-98053800D02*
X146199750Y-98492300D01*
X144750000Y-105250000D02*
X144750000Y-106052000D01*
%TO.N,GND*%
X143750000Y-103850000D02*
X143700000Y-103800000D01*
X143750000Y-105250000D02*
X143750000Y-103850000D01*
%TO.N,Net-(J1-Pad2)*%
X145564750Y-98011300D02*
X145564750Y-98492300D01*
X145413750Y-97860300D02*
X145564750Y-98011300D01*
X144250000Y-98098550D02*
X144488250Y-97860300D01*
X144488250Y-97860300D02*
X145413750Y-97860300D01*
X144250000Y-105250000D02*
X144250000Y-98098550D01*
%TO.N,Net-(J1-Pad14)*%
X152549750Y-101130584D02*
X152549750Y-99432100D01*
X152810166Y-101391000D02*
X152549750Y-101130584D01*
%TO.N,Net-(J1-Pad15)*%
X151914750Y-101257660D02*
X151914750Y-99432100D01*
X152011023Y-101353933D02*
X151914750Y-101257660D01*
%TD*%
M02*
