%TF.GenerationSoftware,KiCad,Pcbnew,9.0.1*%
%TF.CreationDate,2025-05-28T15:57:22+02:00*%
%TF.ProjectId,fpc_connector_36pinOmnetics,6670635f-636f-46e6-9e65-63746f725f33,rev?*%
%TF.SameCoordinates,Original*%
%TF.FileFunction,Paste,Top*%
%TF.FilePolarity,Positive*%
%FSLAX46Y46*%
G04 Gerber Fmt 4.6, Leading zero omitted, Abs format (unit mm)*
G04 Created by KiCad (PCBNEW 9.0.1) date 2025-05-28 15:57:22*
%MOMM*%
%LPD*%
G01*
G04 APERTURE LIST*
%ADD10R,0.381000X0.762000*%
%ADD11R,0.300000X1.300000*%
%ADD12R,2.000000X1.800000*%
G04 APERTURE END LIST*
D10*
%TO.C,J2*%
X155724750Y-99432100D03*
X155089750Y-99432100D03*
X154454750Y-99432100D03*
X153819750Y-99432100D03*
X153184750Y-99432100D03*
X152549750Y-99432100D03*
X151914750Y-99432100D03*
X151279750Y-99432100D03*
X150644750Y-99432100D03*
X150009750Y-99432100D03*
X149374750Y-99432100D03*
X148739750Y-99432100D03*
X148104750Y-99432100D03*
X147469750Y-99432100D03*
X146834750Y-99432100D03*
X146199750Y-99432100D03*
X145564750Y-99432100D03*
X144929750Y-99432100D03*
X155724750Y-98492300D03*
X155089750Y-98492300D03*
X154454750Y-98492300D03*
X153819750Y-98492300D03*
X153184750Y-98492300D03*
X152549750Y-98492300D03*
X151914750Y-98492300D03*
X151279750Y-98492300D03*
X150644750Y-98492300D03*
X150009750Y-98492300D03*
X149374750Y-98492300D03*
X148739750Y-98492300D03*
X148104750Y-98492300D03*
X147469750Y-98492300D03*
X146834750Y-98492300D03*
X146199750Y-98492300D03*
X145564750Y-98492300D03*
X144929750Y-98492300D03*
%TD*%
D11*
%TO.C,J1*%
X143750000Y-105250000D03*
X144250000Y-105250000D03*
X144750000Y-105250000D03*
X145250000Y-105250000D03*
X145750000Y-105250000D03*
X146250000Y-105250000D03*
X146750000Y-105250000D03*
X147250000Y-105250000D03*
X147750000Y-105250000D03*
X148250000Y-105250000D03*
X148750000Y-105250000D03*
X149250000Y-105250000D03*
X149750000Y-105250000D03*
X150250000Y-105250000D03*
X150750000Y-105250000D03*
X151250000Y-105250000D03*
X151750000Y-105250000D03*
X152250000Y-105250000D03*
X152750000Y-105250000D03*
X153250000Y-105250000D03*
X153750000Y-105250000D03*
X154250000Y-105250000D03*
X154750000Y-105250000D03*
X155250000Y-105250000D03*
X155750000Y-105250000D03*
X156250000Y-105250000D03*
D12*
X141950000Y-108000000D03*
X158050000Y-108000000D03*
%TD*%
M02*
