%TF.GenerationSoftware,KiCad,Pcbnew,9.0.1*%
%TF.CreationDate,2025-05-28T15:57:22+02:00*%
%TF.ProjectId,fpc_connector_36pinOmnetics,6670635f-636f-46e6-9e65-63746f725f33,rev?*%
%TF.SameCoordinates,Original*%
%TF.FileFunction,Legend,Top*%
%TF.FilePolarity,Positive*%
%FSLAX46Y46*%
G04 Gerber Fmt 4.6, Leading zero omitted, Abs format (unit mm)*
G04 Created by KiCad (PCBNEW 9.0.1) date 2025-05-28 15:57:22*
%MOMM*%
%LPD*%
G01*
G04 APERTURE LIST*
%ADD10C,0.150000*%
%ADD11C,0.120000*%
%ADD12C,0.200000*%
%ADD13C,0.127000*%
G04 APERTURE END LIST*
D10*
X160166666Y-99674819D02*
X160166666Y-100389104D01*
X160166666Y-100389104D02*
X160119047Y-100531961D01*
X160119047Y-100531961D02*
X160023809Y-100627200D01*
X160023809Y-100627200D02*
X159880952Y-100674819D01*
X159880952Y-100674819D02*
X159785714Y-100674819D01*
X161071428Y-100008152D02*
X161071428Y-100674819D01*
X160833333Y-99627200D02*
X160595238Y-100341485D01*
X160595238Y-100341485D02*
X161214285Y-100341485D01*
X149666666Y-96054819D02*
X149666666Y-96769104D01*
X149666666Y-96769104D02*
X149619047Y-96911961D01*
X149619047Y-96911961D02*
X149523809Y-97007200D01*
X149523809Y-97007200D02*
X149380952Y-97054819D01*
X149380952Y-97054819D02*
X149285714Y-97054819D01*
X150095238Y-96150057D02*
X150142857Y-96102438D01*
X150142857Y-96102438D02*
X150238095Y-96054819D01*
X150238095Y-96054819D02*
X150476190Y-96054819D01*
X150476190Y-96054819D02*
X150571428Y-96102438D01*
X150571428Y-96102438D02*
X150619047Y-96150057D01*
X150619047Y-96150057D02*
X150666666Y-96245295D01*
X150666666Y-96245295D02*
X150666666Y-96340533D01*
X150666666Y-96340533D02*
X150619047Y-96483390D01*
X150619047Y-96483390D02*
X150047619Y-97054819D01*
X150047619Y-97054819D02*
X150666666Y-97054819D01*
X138666666Y-99674819D02*
X138666666Y-100389104D01*
X138666666Y-100389104D02*
X138619047Y-100531961D01*
X138619047Y-100531961D02*
X138523809Y-100627200D01*
X138523809Y-100627200D02*
X138380952Y-100674819D01*
X138380952Y-100674819D02*
X138285714Y-100674819D01*
X139047619Y-99674819D02*
X139666666Y-99674819D01*
X139666666Y-99674819D02*
X139333333Y-100055771D01*
X139333333Y-100055771D02*
X139476190Y-100055771D01*
X139476190Y-100055771D02*
X139571428Y-100103390D01*
X139571428Y-100103390D02*
X139619047Y-100151009D01*
X139619047Y-100151009D02*
X139666666Y-100246247D01*
X139666666Y-100246247D02*
X139666666Y-100484342D01*
X139666666Y-100484342D02*
X139619047Y-100579580D01*
X139619047Y-100579580D02*
X139571428Y-100627200D01*
X139571428Y-100627200D02*
X139476190Y-100674819D01*
X139476190Y-100674819D02*
X139190476Y-100674819D01*
X139190476Y-100674819D02*
X139095238Y-100627200D01*
X139095238Y-100627200D02*
X139047619Y-100579580D01*
X149666666Y-108054819D02*
X149666666Y-108769104D01*
X149666666Y-108769104D02*
X149619047Y-108911961D01*
X149619047Y-108911961D02*
X149523809Y-109007200D01*
X149523809Y-109007200D02*
X149380952Y-109054819D01*
X149380952Y-109054819D02*
X149285714Y-109054819D01*
X150666666Y-109054819D02*
X150095238Y-109054819D01*
X150380952Y-109054819D02*
X150380952Y-108054819D01*
X150380952Y-108054819D02*
X150285714Y-108197676D01*
X150285714Y-108197676D02*
X150190476Y-108292914D01*
X150190476Y-108292914D02*
X150095238Y-108340533D01*
D11*
%TO.C,J4*%
X161880000Y-103870000D02*
X161880000Y-103980000D01*
X159120000Y-103980000D02*
X161880000Y-103980000D01*
X159120000Y-103870000D02*
X161880000Y-103870000D01*
X159120000Y-103870000D02*
X159120000Y-103980000D01*
X159120000Y-102600000D02*
X159120000Y-101220000D01*
X159120000Y-101220000D02*
X160500000Y-101220000D01*
D12*
%TO.C,J2*%
X143157250Y-98492200D02*
G75*
G02*
X142957250Y-98492200I-100000J0D01*
G01*
X142957250Y-98492200D02*
G75*
G02*
X143157250Y-98492200I100000J0D01*
G01*
D13*
X143786750Y-93386900D02*
X156867750Y-93386900D01*
X143786750Y-97781100D02*
X143786750Y-93386900D01*
X156867750Y-93386900D02*
X156867750Y-97781100D01*
X156867750Y-97781100D02*
X143786750Y-97781100D01*
D11*
%TO.C,J3*%
X137620000Y-101220000D02*
X139000000Y-101220000D01*
X137620000Y-102600000D02*
X137620000Y-101220000D01*
X137620000Y-103870000D02*
X137620000Y-103980000D01*
X137620000Y-103870000D02*
X140380000Y-103870000D01*
X137620000Y-103980000D02*
X140380000Y-103980000D01*
X140380000Y-103870000D02*
X140380000Y-103980000D01*
D12*
%TO.C,J1*%
X141350000Y-105600000D02*
X141350000Y-106750000D01*
X141350000Y-109300000D02*
X141350000Y-111600000D01*
X141350000Y-111600000D02*
X158650000Y-111600000D01*
X143250000Y-105600000D02*
X141350000Y-105600000D01*
X156750000Y-105600000D02*
X158650000Y-105600000D01*
X158650000Y-105600000D02*
X158650000Y-106750000D01*
X158650000Y-111600000D02*
X158650000Y-109300000D01*
X143250000Y-106200000D02*
G75*
G02*
X143050000Y-106200000I-100000J0D01*
G01*
X143050000Y-106200000D02*
G75*
G02*
X143250000Y-106200000I100000J0D01*
G01*
%TD*%
M02*
