%TF.GenerationSoftware,KiCad,Pcbnew,9.0.1*%
%TF.CreationDate,2025-05-28T15:06:28+02:00*%
%TF.ProjectId,fpc_connector_18pinOmnetics,6670635f-636f-46e6-9e65-63746f725f31,rev?*%
%TF.SameCoordinates,Original*%
%TF.FileFunction,Paste,Top*%
%TF.FilePolarity,Positive*%
%FSLAX46Y46*%
G04 Gerber Fmt 4.6, Leading zero omitted, Abs format (unit mm)*
G04 Created by KiCad (PCBNEW 9.0.1) date 2025-05-28 15:06:28*
%MOMM*%
%LPD*%
G01*
G04 APERTURE LIST*
%ADD10R,0.300000X1.300000*%
%ADD11R,2.000000X1.800000*%
%ADD12R,0.380000X0.760000*%
G04 APERTURE END LIST*
D10*
%TO.C,J1*%
X128750000Y-84250000D03*
X129250000Y-84250000D03*
X129750000Y-84250000D03*
X130250000Y-84250000D03*
X130750000Y-84250000D03*
X131250000Y-84250000D03*
X131750000Y-84250000D03*
X132250000Y-84250000D03*
X132750000Y-84250000D03*
X133250000Y-84250000D03*
X133750000Y-84250000D03*
X134250000Y-84250000D03*
X134750000Y-84250000D03*
X135250000Y-84250000D03*
X135750000Y-84250000D03*
X136250000Y-84250000D03*
X136750000Y-84250000D03*
X137250000Y-84250000D03*
X137750000Y-84250000D03*
X138250000Y-84250000D03*
X138750000Y-84250000D03*
X139250000Y-84250000D03*
X139750000Y-84250000D03*
X140250000Y-84250000D03*
X140750000Y-84250000D03*
X141250000Y-84250000D03*
D11*
X126950000Y-87000000D03*
X143050000Y-87000000D03*
%TD*%
D12*
%TO.C,J2*%
X134500000Y-79540000D03*
X133860000Y-79540000D03*
X133220000Y-79540000D03*
X132580000Y-79540000D03*
X132580000Y-80480000D03*
X133220000Y-80480000D03*
X133860000Y-80480000D03*
X134500000Y-80480000D03*
X135140000Y-80480000D03*
X135780000Y-80480000D03*
X136420000Y-80480000D03*
X137060000Y-80480000D03*
X137060000Y-79540000D03*
X136420000Y-79540000D03*
X135780000Y-79540000D03*
X135140000Y-79540000D03*
X137700000Y-79540000D03*
X131940000Y-79540000D03*
%TD*%
M02*
