%TF.GenerationSoftware,KiCad,Pcbnew,9.0.1*%
%TF.CreationDate,2025-05-28T15:06:28+02:00*%
%TF.ProjectId,fpc_connector_18pinOmnetics,6670635f-636f-46e6-9e65-63746f725f31,rev?*%
%TF.SameCoordinates,Original*%
%TF.FileFunction,Soldermask,Top*%
%TF.FilePolarity,Negative*%
%FSLAX46Y46*%
G04 Gerber Fmt 4.6, Leading zero omitted, Abs format (unit mm)*
G04 Created by KiCad (PCBNEW 9.0.1) date 2025-05-28 15:06:28*
%MOMM*%
%LPD*%
G01*
G04 APERTURE LIST*
G04 Aperture macros list*
%AMRoundRect*
0 Rectangle with rounded corners*
0 $1 Rounding radius*
0 $2 $3 $4 $5 $6 $7 $8 $9 X,Y pos of 4 corners*
0 Add a 4 corners polygon primitive as box body*
4,1,4,$2,$3,$4,$5,$6,$7,$8,$9,$2,$3,0*
0 Add four circle primitives for the rounded corners*
1,1,$1+$1,$2,$3*
1,1,$1+$1,$4,$5*
1,1,$1+$1,$6,$7*
1,1,$1+$1,$8,$9*
0 Add four rect primitives between the rounded corners*
20,1,$1+$1,$2,$3,$4,$5,0*
20,1,$1+$1,$4,$5,$6,$7,0*
20,1,$1+$1,$6,$7,$8,$9,0*
20,1,$1+$1,$8,$9,$2,$3,0*%
G04 Aperture macros list end*
%ADD10RoundRect,0.102000X-0.150000X-0.650000X0.150000X-0.650000X0.150000X0.650000X-0.150000X0.650000X0*%
%ADD11RoundRect,0.102000X-1.000000X-0.900000X1.000000X-0.900000X1.000000X0.900000X-1.000000X0.900000X0*%
%ADD12R,1.700000X1.700000*%
%ADD13R,0.380000X0.760000*%
G04 APERTURE END LIST*
D10*
%TO.C,J1*%
X128750000Y-84250000D03*
X129250000Y-84250000D03*
X129750000Y-84250000D03*
X130250000Y-84250000D03*
X130750000Y-84250000D03*
X131250000Y-84250000D03*
X131750000Y-84250000D03*
X132250000Y-84250000D03*
X132750000Y-84250000D03*
X133250000Y-84250000D03*
X133750000Y-84250000D03*
X134250000Y-84250000D03*
X134750000Y-84250000D03*
X135250000Y-84250000D03*
X135750000Y-84250000D03*
X136250000Y-84250000D03*
X136750000Y-84250000D03*
X137250000Y-84250000D03*
X137750000Y-84250000D03*
X138250000Y-84250000D03*
X138750000Y-84250000D03*
X139250000Y-84250000D03*
X139750000Y-84250000D03*
X140250000Y-84250000D03*
X140750000Y-84250000D03*
X141250000Y-84250000D03*
D11*
X126950000Y-87000000D03*
X143050000Y-87000000D03*
%TD*%
D12*
%TO.C,J4*%
X127500000Y-78600000D03*
%TD*%
%TO.C,J3*%
X142000000Y-78600000D03*
%TD*%
D13*
%TO.C,J2*%
X134500000Y-79540000D03*
X133860000Y-79540000D03*
X133220000Y-79540000D03*
X132580000Y-79540000D03*
X132580000Y-80480000D03*
X133220000Y-80480000D03*
X133860000Y-80480000D03*
X134500000Y-80480000D03*
X135140000Y-80480000D03*
X135780000Y-80480000D03*
X136420000Y-80480000D03*
X137060000Y-80480000D03*
X137060000Y-79540000D03*
X136420000Y-79540000D03*
X135780000Y-79540000D03*
X135140000Y-79540000D03*
X137700000Y-79540000D03*
X131940000Y-79540000D03*
%TD*%
M02*
