%TF.GenerationSoftware,KiCad,Pcbnew,9.0.1*%
%TF.CreationDate,2025-05-28T15:06:28+02:00*%
%TF.ProjectId,fpc_connector_18pinOmnetics,6670635f-636f-46e6-9e65-63746f725f31,rev?*%
%TF.SameCoordinates,Original*%
%TF.FileFunction,Copper,L1,Top*%
%TF.FilePolarity,Positive*%
%FSLAX46Y46*%
G04 Gerber Fmt 4.6, Leading zero omitted, Abs format (unit mm)*
G04 Created by KiCad (PCBNEW 9.0.1) date 2025-05-28 15:06:28*
%MOMM*%
%LPD*%
G01*
G04 APERTURE LIST*
%TA.AperFunction,SMDPad,CuDef*%
%ADD10R,0.300000X1.300000*%
%TD*%
%TA.AperFunction,SMDPad,CuDef*%
%ADD11R,2.000000X1.800000*%
%TD*%
%TA.AperFunction,ComponentPad*%
%ADD12R,1.700000X1.700000*%
%TD*%
%TA.AperFunction,SMDPad,CuDef*%
%ADD13R,0.380000X0.760000*%
%TD*%
%TA.AperFunction,ViaPad*%
%ADD14C,0.600000*%
%TD*%
%TA.AperFunction,Conductor*%
%ADD15C,0.200000*%
%TD*%
G04 APERTURE END LIST*
D10*
%TO.P,J1,1*%
%TO.N,GND*%
X128750000Y-84250000D03*
%TO.P,J1,2*%
%TO.N,unconnected-(J1-Pad2)*%
X129250000Y-84250000D03*
%TO.P,J1,3*%
%TO.N,unconnected-(J1-Pad3)*%
X129750000Y-84250000D03*
%TO.P,J1,4*%
%TO.N,Net-(J1-Pad4)*%
X130250000Y-84250000D03*
%TO.P,J1,5*%
%TO.N,Net-(J1-Pad5)*%
X130750000Y-84250000D03*
%TO.P,J1,6*%
%TO.N,Net-(J1-Pad6)*%
X131250000Y-84250000D03*
%TO.P,J1,7*%
%TO.N,Net-(J1-Pad7)*%
X131750000Y-84250000D03*
%TO.P,J1,8*%
%TO.N,Net-(J1-Pad8)*%
X132250000Y-84250000D03*
%TO.P,J1,9*%
%TO.N,Net-(J1-Pad9)*%
X132750000Y-84250000D03*
%TO.P,J1,10*%
%TO.N,Net-(J1-Pad10)*%
X133250000Y-84250000D03*
%TO.P,J1,11*%
%TO.N,Net-(J1-Pad11)*%
X133750000Y-84250000D03*
%TO.P,J1,12*%
%TO.N,unconnected-(J1-Pad12)*%
X134250000Y-84250000D03*
%TO.P,J1,13*%
%TO.N,unconnected-(J1-Pad13)*%
X134750000Y-84250000D03*
%TO.P,J1,14*%
%TO.N,unconnected-(J1-Pad14)*%
X135250000Y-84250000D03*
%TO.P,J1,15*%
%TO.N,unconnected-(J1-Pad15)*%
X135750000Y-84250000D03*
%TO.P,J1,16*%
%TO.N,Net-(J1-Pad16)*%
X136250000Y-84250000D03*
%TO.P,J1,17*%
%TO.N,Net-(J1-Pad17)*%
X136750000Y-84250000D03*
%TO.P,J1,18*%
%TO.N,Net-(J1-Pad18)*%
X137250000Y-84250000D03*
%TO.P,J1,19*%
%TO.N,Net-(J1-Pad19)*%
X137750000Y-84250000D03*
%TO.P,J1,20*%
%TO.N,Net-(J1-Pad20)*%
X138250000Y-84250000D03*
%TO.P,J1,21*%
%TO.N,Net-(J1-Pad21)*%
X138750000Y-84250000D03*
%TO.P,J1,22*%
%TO.N,Net-(J1-Pad22)*%
X139250000Y-84250000D03*
%TO.P,J1,23*%
%TO.N,Net-(J1-Pad23)*%
X139750000Y-84250000D03*
%TO.P,J1,24*%
%TO.N,unconnected-(J1-Pad24)*%
X140250000Y-84250000D03*
%TO.P,J1,25*%
%TO.N,unconnected-(J1-Pad25)*%
X140750000Y-84250000D03*
%TO.P,J1,26*%
%TO.N,GND*%
X141250000Y-84250000D03*
D11*
%TO.P,J1,Z1*%
%TO.N,unconnected-(J1-PadZ1)*%
X126950000Y-87000000D03*
%TO.P,J1,Z2*%
%TO.N,unconnected-(J1-PadZ2)*%
X143050000Y-87000000D03*
%TD*%
D12*
%TO.P,J4,1,Pin_1*%
%TO.N,GND*%
X127500000Y-78600000D03*
%TD*%
%TO.P,J3,1,Pin_1*%
%TO.N,GND*%
X142000000Y-78600000D03*
%TD*%
D13*
%TO.P,J2,0,0*%
%TO.N,Net-(J1-Pad4)*%
X134500000Y-79540000D03*
%TO.P,J2,1,1*%
%TO.N,Net-(J1-Pad5)*%
X133860000Y-79540000D03*
%TO.P,J2,2,2*%
%TO.N,Net-(J1-Pad6)*%
X133220000Y-79540000D03*
%TO.P,J2,3,3*%
%TO.N,Net-(J1-Pad7)*%
X132580000Y-79540000D03*
%TO.P,J2,4,4*%
%TO.N,Net-(J1-Pad8)*%
X132580000Y-80480000D03*
%TO.P,J2,5,5*%
%TO.N,Net-(J1-Pad9)*%
X133220000Y-80480000D03*
%TO.P,J2,6,6*%
%TO.N,Net-(J1-Pad10)*%
X133860000Y-80480000D03*
%TO.P,J2,7,7*%
%TO.N,Net-(J1-Pad11)*%
X134500000Y-80480000D03*
%TO.P,J2,8,8*%
%TO.N,Net-(J1-Pad16)*%
X135140000Y-80480000D03*
%TO.P,J2,9,9*%
%TO.N,Net-(J1-Pad17)*%
X135780000Y-80480000D03*
%TO.P,J2,10,10*%
%TO.N,Net-(J1-Pad18)*%
X136420000Y-80480000D03*
%TO.P,J2,11,11*%
%TO.N,Net-(J1-Pad19)*%
X137060000Y-80480000D03*
%TO.P,J2,12,12*%
%TO.N,Net-(J1-Pad20)*%
X137060000Y-79540000D03*
%TO.P,J2,13,13*%
%TO.N,Net-(J1-Pad21)*%
X136420000Y-79540000D03*
%TO.P,J2,14,14*%
%TO.N,Net-(J1-Pad22)*%
X135780000Y-79540000D03*
%TO.P,J2,15,15*%
%TO.N,Net-(J1-Pad23)*%
X135140000Y-79540000D03*
%TO.P,J2,16,16*%
%TO.N,GND*%
X137700000Y-79540000D03*
%TO.P,J2,17,17*%
X131940000Y-79540000D03*
%TD*%
D14*
%TO.N,GND*%
X131980000Y-81600000D03*
X138000000Y-81600000D03*
%TD*%
D15*
%TO.N,GND*%
X127500000Y-81000000D02*
X127500000Y-78600000D01*
X128750000Y-82250000D02*
X127500000Y-81000000D01*
X128750000Y-84250000D02*
X128750000Y-82250000D01*
%TO.N,Net-(J1-Pad4)*%
X130950700Y-77656000D02*
X133196000Y-77656000D01*
X130176000Y-78430700D02*
X130950700Y-77656000D01*
X130176000Y-82347243D02*
X130176000Y-78430700D01*
X133196000Y-77656000D02*
X134500000Y-78960000D01*
X130250000Y-82421243D02*
X130176000Y-82347243D01*
X134500000Y-78960000D02*
X134500000Y-79540000D01*
X130250000Y-84250000D02*
X130250000Y-82421243D01*
%TO.N,Net-(J1-Pad5)*%
X131116800Y-78057000D02*
X132957000Y-78057000D01*
X130577000Y-78596800D02*
X131116800Y-78057000D01*
X130577000Y-82181143D02*
X130577000Y-78596800D01*
X130750000Y-82354143D02*
X130577000Y-82181143D01*
X132957000Y-78057000D02*
X133860000Y-78960000D01*
X130750000Y-84250000D02*
X130750000Y-82354143D01*
X133860000Y-78960000D02*
X133860000Y-79540000D01*
%TO.N,Net-(J1-Pad6)*%
X133220000Y-78960000D02*
X133220000Y-79540000D01*
X130978000Y-82015043D02*
X130978000Y-78762900D01*
X130978000Y-78762900D02*
X131282900Y-78458000D01*
X131250000Y-82287043D02*
X130978000Y-82015043D01*
X131282900Y-78458000D02*
X132718000Y-78458000D01*
X131250000Y-84250000D02*
X131250000Y-82287043D01*
X132718000Y-78458000D02*
X133220000Y-78960000D01*
%TO.N,Net-(J1-Pad7)*%
X132580000Y-78960000D02*
X132580000Y-79540000D01*
X132479000Y-78859000D02*
X132580000Y-78960000D01*
X131379000Y-78929000D02*
X131449000Y-78859000D01*
X131750000Y-82219943D02*
X131379000Y-81848943D01*
X131750000Y-84250000D02*
X131750000Y-82219943D01*
X131379000Y-81848943D02*
X131379000Y-78929000D01*
X131449000Y-78859000D02*
X132479000Y-78859000D01*
%TO.N,GND*%
X142000000Y-81000000D02*
X142000000Y-78600000D01*
X141250000Y-81750000D02*
X142000000Y-81000000D01*
X141250000Y-84250000D02*
X141250000Y-81750000D01*
%TO.N,Net-(J1-Pad23)*%
X138689300Y-77656000D02*
X136376900Y-77656000D01*
X139750000Y-82584200D02*
X139804000Y-82530200D01*
X139804000Y-82530200D02*
X139804000Y-78770700D01*
X136376900Y-77656000D02*
X135140000Y-78892900D01*
X139750000Y-84250000D02*
X139750000Y-82584200D01*
X139804000Y-78770700D02*
X138689300Y-77656000D01*
X135140000Y-78892900D02*
X135140000Y-79540000D01*
%TO.N,Net-(J1-Pad22)*%
X136543000Y-78057000D02*
X135780000Y-78820000D01*
X138523200Y-78057000D02*
X136543000Y-78057000D01*
X139403000Y-78936800D02*
X138523200Y-78057000D01*
X135780000Y-78820000D02*
X135780000Y-79540000D01*
X139250000Y-82517100D02*
X139403000Y-82364100D01*
X139403000Y-82364100D02*
X139403000Y-78936800D01*
X139250000Y-84250000D02*
X139250000Y-82517100D01*
%TO.N,Net-(J1-Pad21)*%
X138357100Y-78458000D02*
X136922000Y-78458000D01*
X136922000Y-78458000D02*
X136420000Y-78960000D01*
X136420000Y-78960000D02*
X136420000Y-79540000D01*
X139002000Y-79102900D02*
X138357100Y-78458000D01*
X139002000Y-82198000D02*
X139002000Y-79102900D01*
X138750000Y-82450000D02*
X139002000Y-82198000D01*
X138750000Y-84250000D02*
X138750000Y-82450000D01*
%TO.N,Net-(J1-Pad20)*%
X137060000Y-78960000D02*
X137060000Y-79540000D01*
X137161000Y-78859000D02*
X137060000Y-78960000D01*
X138191000Y-78859000D02*
X137161000Y-78859000D01*
X138601000Y-79269000D02*
X138191000Y-78859000D01*
X138250000Y-82199943D02*
X138601000Y-81848943D01*
X138601000Y-81848943D02*
X138601000Y-79269000D01*
X138250000Y-84250000D02*
X138250000Y-82199943D01*
%TO.N,GND*%
X131940000Y-81560000D02*
X131980000Y-81600000D01*
X131940000Y-79540000D02*
X131940000Y-81560000D01*
X137700000Y-81300000D02*
X138000000Y-81600000D01*
X137700000Y-79540000D02*
X137700000Y-81300000D01*
%TO.N,Net-(J1-Pad8)*%
X132250000Y-82200000D02*
X132250000Y-84250000D01*
X132580000Y-80480000D02*
X132580000Y-81870000D01*
X132580000Y-81870000D02*
X132250000Y-82200000D01*
%TO.N,Net-(J1-Pad9)*%
X132750000Y-82315800D02*
X132750000Y-84250000D01*
X133220000Y-81845800D02*
X132750000Y-82315800D01*
X133220000Y-80480000D02*
X133220000Y-81845800D01*
%TO.N,Net-(J1-Pad10)*%
X133250000Y-82382900D02*
X133250000Y-84250000D01*
X133860000Y-81772900D02*
X133250000Y-82382900D01*
X133860000Y-80480000D02*
X133860000Y-81772900D01*
%TO.N,Net-(J1-Pad11)*%
X133750000Y-82450000D02*
X133750000Y-84250000D01*
X134500000Y-81700000D02*
X133750000Y-82450000D01*
X134500000Y-80480000D02*
X134500000Y-81700000D01*
%TO.N,Net-(J1-Pad19)*%
X137750000Y-82450000D02*
X137750000Y-84250000D01*
X137060000Y-80480000D02*
X137060000Y-81760000D01*
X137060000Y-81760000D02*
X137750000Y-82450000D01*
%TO.N,Net-(J1-Pad18)*%
X137250000Y-82815800D02*
X137250000Y-84250000D01*
X136420000Y-81985800D02*
X137250000Y-82815800D01*
X136420000Y-80480000D02*
X136420000Y-81985800D01*
%TO.N,Net-(J1-Pad17)*%
X136750000Y-82882900D02*
X136750000Y-84250000D01*
X135780000Y-81912900D02*
X136750000Y-82882900D01*
X135780000Y-80480000D02*
X135780000Y-81912900D01*
%TO.N,Net-(J1-Pad16)*%
X135140000Y-81840000D02*
X136250000Y-82950000D01*
X136250000Y-82950000D02*
X136250000Y-84250000D01*
X135140000Y-80480000D02*
X135140000Y-81840000D01*
%TD*%
M02*
